<svg width="540" height="388" viewBox="0 0 540 388" fill="none" xmlns="http://www.w3.org/2000/svg">
<path d="M536.124 210.711C536.124 210.711 536.037 103.533 449.737 52.3447C373.558 7.15889 268.672 -2.02018 198.242 50.2298C173.147 68.8472 142.801 88.2495 111.281 101.258C75.9402 115.843 34.6286 122.506 10.5753 170.801C-13.478 219.096 23.7676 289.914 78.3996 314.988C133.032 340.062 218.639 330.743 292.175 320.259C365.712 309.775 529.713 343.701 536.124 210.711Z" fill="#92E3A9"/>
<path opacity="0.7" d="M536.124 210.711C536.124 210.711 536.037 103.533 449.737 52.3447C373.558 7.15889 268.672 -2.02018 198.242 50.2298C173.147 68.8472 142.801 88.2495 111.281 101.258C75.9402 115.843 34.6286 122.506 10.5753 170.801C-13.478 219.096 23.7676 289.914 78.3996 314.988C133.032 340.062 218.639 330.743 292.175 320.259C365.712 309.775 529.713 343.701 536.124 210.711Z" fill="white"/>
<path opacity="0.16" d="M273.807 387.135C370.67 387.135 449.192 380.683 449.192 372.724C449.192 364.766 370.67 358.314 273.807 358.314C176.944 358.314 98.4211 364.766 98.4211 372.724C98.4211 380.683 176.944 387.135 273.807 387.135Z" fill="black"/>
<g filter="url(#filter0_d_42_103)">
<mask id="path-4-outside-1_42_103" maskUnits="userSpaceOnUse" x="30.124" y="89" width="477" height="102" fill="black">
<rect fill="white" x="30.124" y="89" width="477" height="102"/>
<path d="M51.3295 160.552V150.696C40.1509 127.059 33.9642 110.035 32.7695 99.624L48.7695 101.16C50.6469 110.717 54.5722 122.152 60.5455 135.464C67.6282 120.019 73.1322 106.067 77.0575 93.608L91.9055 95.016C85.5909 113.021 77.9962 131.325 69.1215 149.928C68.9509 157.608 68.8655 164.349 68.8655 170.152C68.8655 175.955 69.0362 181.8 69.3775 187.688L52.4815 185.896C51.7135 177.96 51.3295 169.512 51.3295 160.552ZM108.23 161.96C108.23 171.603 110.363 176.424 114.63 176.424C116.507 176.424 118.086 173.736 119.366 168.36C120.646 162.899 121.286 157.693 121.286 152.744C121.286 141.821 119.494 136.36 115.91 136.36C113.606 136.36 111.728 139.304 110.278 145.192C108.912 150.995 108.23 156.584 108.23 161.96ZM93.2535 160.808C93.2535 152.872 94.8749 145.107 98.1175 137.512C99.8242 133.672 102.214 130.557 105.286 128.168C108.443 125.693 111.942 124.456 115.782 124.456C119.622 124.456 122.907 125.352 125.638 127.144C128.454 128.851 130.587 131.155 132.038 134.056C134.854 139.773 136.262 146.003 136.262 152.744C136.262 162.045 134.342 170.323 130.502 177.576C126.747 184.744 121.456 188.328 114.63 188.328C100.379 188.328 93.2535 179.155 93.2535 160.808ZM194.651 124.968L194.395 145.192C194.395 164.221 194.736 178.216 195.419 187.176L182.747 185.896C182.491 182.312 181.936 178.685 181.083 175.016C176.389 181.928 171.653 185.384 166.875 185.384C162.181 185.384 158.427 183.763 155.611 180.52C152.795 177.277 151.387 172.797 151.387 167.08C151.387 155.987 152.197 142.76 153.819 127.4L168.667 128.808C167.131 143.4 166.363 155.517 166.363 165.16C166.363 169.512 167.728 171.688 170.459 171.688C171.739 171.688 173.275 169.939 175.067 166.44C176.944 162.941 178.437 158.717 179.547 153.768C179.461 151.891 179.419 149.672 179.419 147.112C179.419 144.552 179.547 136.744 179.803 123.688L194.651 124.968ZM259.817 184.232C258.707 166.653 258.153 150.568 258.153 135.976C258.153 121.299 258.622 107.987 259.561 96.04L276.585 97.576C275.305 112.253 274.665 126.291 274.665 139.688C274.665 153.085 274.878 162.941 275.305 169.256C278.377 168.829 285.929 167.976 297.961 166.696L300.521 181.544C294.121 182.312 285.075 183.592 273.385 185.384L259.817 184.232ZM325.57 161.96C325.57 171.603 327.703 176.424 331.97 176.424C333.847 176.424 335.426 173.736 336.706 168.36C337.986 162.899 338.626 157.693 338.626 152.744C338.626 141.821 336.834 136.36 333.25 136.36C330.946 136.36 329.068 139.304 327.618 145.192C326.252 150.995 325.57 156.584 325.57 161.96ZM310.594 160.808C310.594 152.872 312.215 145.107 315.458 137.512C317.164 133.672 319.554 130.557 322.626 128.168C325.783 125.693 329.282 124.456 333.122 124.456C336.962 124.456 340.247 125.352 342.978 127.144C345.794 128.851 347.927 131.155 349.378 134.056C352.194 139.773 353.602 146.003 353.602 152.744C353.602 162.045 351.682 170.323 347.842 177.576C344.087 184.744 338.796 188.328 331.97 188.328C317.719 188.328 310.594 179.155 310.594 160.808ZM393.943 144.68C393.943 139.56 392.663 137 390.103 137C388.823 137 387.628 137.64 386.519 138.92C385.495 140.115 384.983 141.779 384.983 143.912C384.983 145.96 385.367 147.667 386.135 149.032C386.988 150.397 388.481 151.763 390.615 153.128C392.833 154.408 394.54 155.475 395.735 156.328C397.015 157.096 398.508 158.205 400.215 159.656C403.713 162.728 405.463 166.696 405.463 171.56C405.463 176.339 403.628 180.221 399.959 183.208C396.375 186.195 392.321 187.688 387.799 187.688C383.276 187.688 379.18 186.493 375.511 184.104C371.927 181.629 369.025 178.557 366.807 174.888L373.719 167.08C377.132 172.968 380.716 175.912 384.471 175.912C385.751 175.912 386.86 175.571 387.799 174.888C388.737 174.12 389.207 173.096 389.207 171.816C389.207 169.085 387.244 166.568 383.319 164.264C379.137 161.96 375.852 159.4 373.463 156.584C371.073 153.768 369.879 149.8 369.879 144.68C369.879 139.475 372.012 134.824 376.279 130.728C380.545 126.547 385.111 124.456 389.975 124.456C394.924 124.456 398.807 126.163 401.623 129.576C404.524 132.904 405.975 137.427 405.975 143.144C405.975 145.448 405.719 147.923 405.207 150.568L393.559 149.544C393.815 147.581 393.943 145.96 393.943 144.68ZM440.494 175.784C443.736 175.784 447.192 172.669 450.862 166.44L460.59 172.2C458.968 175.016 457.39 177.405 455.854 179.368C454.403 181.331 452.184 183.208 449.198 185C446.211 186.792 442.883 187.688 439.214 187.688C433.838 187.688 429.315 185.427 425.646 180.904C421.976 176.296 420.142 170.109 420.142 162.344C420.142 153.469 421.72 145.192 424.878 137.512C426.584 133.501 429.016 130.259 432.174 127.784C435.416 125.224 438.702 123.944 442.03 123.944C445.443 123.944 448.174 124.499 450.222 125.608C452.27 126.632 453.891 127.827 455.086 129.192C456.366 130.472 457.475 132.392 458.414 134.952C459.352 137.512 459.992 139.603 460.334 141.224C460.76 142.845 461.102 145.192 461.358 148.264C461.699 152.36 461.87 156.072 461.87 159.4C455.043 161.277 446.211 162.984 435.374 164.52C435.63 167.933 436.227 170.664 437.166 172.712C438.104 174.76 439.214 175.784 440.494 175.784ZM443.31 136.488C441.432 136.488 439.726 138.365 438.19 142.12C436.739 145.875 435.886 150.227 435.63 155.176C440.152 154.237 444.078 153.341 447.406 152.488C447.406 141.821 446.04 136.488 443.31 136.488ZM484.934 159.912C483.398 147.197 482.63 135.635 482.63 125.224C482.63 114.728 483.44 103.464 485.062 91.432L503.75 95.016C499.483 111.571 496.624 133.629 495.174 161.192L484.934 159.912ZM497.094 167.848C498.032 169.555 498.502 172.541 498.502 176.808C498.502 181.075 497.819 184.787 496.454 187.944L481.222 185C482.075 181.843 482.502 178.557 482.502 175.144C482.502 171.645 482.416 168.701 482.246 166.312L497.094 167.848Z"/>
</mask>
<path d="M51.3295 160.552V150.696C40.1509 127.059 33.9642 110.035 32.7695 99.624L48.7695 101.16C50.6469 110.717 54.5722 122.152 60.5455 135.464C67.6282 120.019 73.1322 106.067 77.0575 93.608L91.9055 95.016C85.5909 113.021 77.9962 131.325 69.1215 149.928C68.9509 157.608 68.8655 164.349 68.8655 170.152C68.8655 175.955 69.0362 181.8 69.3775 187.688L52.4815 185.896C51.7135 177.96 51.3295 169.512 51.3295 160.552ZM108.23 161.96C108.23 171.603 110.363 176.424 114.63 176.424C116.507 176.424 118.086 173.736 119.366 168.36C120.646 162.899 121.286 157.693 121.286 152.744C121.286 141.821 119.494 136.36 115.91 136.36C113.606 136.36 111.728 139.304 110.278 145.192C108.912 150.995 108.23 156.584 108.23 161.96ZM93.2535 160.808C93.2535 152.872 94.8749 145.107 98.1175 137.512C99.8242 133.672 102.214 130.557 105.286 128.168C108.443 125.693 111.942 124.456 115.782 124.456C119.622 124.456 122.907 125.352 125.638 127.144C128.454 128.851 130.587 131.155 132.038 134.056C134.854 139.773 136.262 146.003 136.262 152.744C136.262 162.045 134.342 170.323 130.502 177.576C126.747 184.744 121.456 188.328 114.63 188.328C100.379 188.328 93.2535 179.155 93.2535 160.808ZM194.651 124.968L194.395 145.192C194.395 164.221 194.736 178.216 195.419 187.176L182.747 185.896C182.491 182.312 181.936 178.685 181.083 175.016C176.389 181.928 171.653 185.384 166.875 185.384C162.181 185.384 158.427 183.763 155.611 180.52C152.795 177.277 151.387 172.797 151.387 167.08C151.387 155.987 152.197 142.76 153.819 127.4L168.667 128.808C167.131 143.4 166.363 155.517 166.363 165.16C166.363 169.512 167.728 171.688 170.459 171.688C171.739 171.688 173.275 169.939 175.067 166.44C176.944 162.941 178.437 158.717 179.547 153.768C179.461 151.891 179.419 149.672 179.419 147.112C179.419 144.552 179.547 136.744 179.803 123.688L194.651 124.968ZM259.817 184.232C258.707 166.653 258.153 150.568 258.153 135.976C258.153 121.299 258.622 107.987 259.561 96.04L276.585 97.576C275.305 112.253 274.665 126.291 274.665 139.688C274.665 153.085 274.878 162.941 275.305 169.256C278.377 168.829 285.929 167.976 297.961 166.696L300.521 181.544C294.121 182.312 285.075 183.592 273.385 185.384L259.817 184.232ZM325.57 161.96C325.57 171.603 327.703 176.424 331.97 176.424C333.847 176.424 335.426 173.736 336.706 168.36C337.986 162.899 338.626 157.693 338.626 152.744C338.626 141.821 336.834 136.36 333.25 136.36C330.946 136.36 329.068 139.304 327.618 145.192C326.252 150.995 325.57 156.584 325.57 161.96ZM310.594 160.808C310.594 152.872 312.215 145.107 315.458 137.512C317.164 133.672 319.554 130.557 322.626 128.168C325.783 125.693 329.282 124.456 333.122 124.456C336.962 124.456 340.247 125.352 342.978 127.144C345.794 128.851 347.927 131.155 349.378 134.056C352.194 139.773 353.602 146.003 353.602 152.744C353.602 162.045 351.682 170.323 347.842 177.576C344.087 184.744 338.796 188.328 331.97 188.328C317.719 188.328 310.594 179.155 310.594 160.808ZM393.943 144.68C393.943 139.56 392.663 137 390.103 137C388.823 137 387.628 137.64 386.519 138.92C385.495 140.115 384.983 141.779 384.983 143.912C384.983 145.96 385.367 147.667 386.135 149.032C386.988 150.397 388.481 151.763 390.615 153.128C392.833 154.408 394.54 155.475 395.735 156.328C397.015 157.096 398.508 158.205 400.215 159.656C403.713 162.728 405.463 166.696 405.463 171.56C405.463 176.339 403.628 180.221 399.959 183.208C396.375 186.195 392.321 187.688 387.799 187.688C383.276 187.688 379.18 186.493 375.511 184.104C371.927 181.629 369.025 178.557 366.807 174.888L373.719 167.08C377.132 172.968 380.716 175.912 384.471 175.912C385.751 175.912 386.86 175.571 387.799 174.888C388.737 174.12 389.207 173.096 389.207 171.816C389.207 169.085 387.244 166.568 383.319 164.264C379.137 161.96 375.852 159.4 373.463 156.584C371.073 153.768 369.879 149.8 369.879 144.68C369.879 139.475 372.012 134.824 376.279 130.728C380.545 126.547 385.111 124.456 389.975 124.456C394.924 124.456 398.807 126.163 401.623 129.576C404.524 132.904 405.975 137.427 405.975 143.144C405.975 145.448 405.719 147.923 405.207 150.568L393.559 149.544C393.815 147.581 393.943 145.96 393.943 144.68ZM440.494 175.784C443.736 175.784 447.192 172.669 450.862 166.44L460.59 172.2C458.968 175.016 457.39 177.405 455.854 179.368C454.403 181.331 452.184 183.208 449.198 185C446.211 186.792 442.883 187.688 439.214 187.688C433.838 187.688 429.315 185.427 425.646 180.904C421.976 176.296 420.142 170.109 420.142 162.344C420.142 153.469 421.72 145.192 424.878 137.512C426.584 133.501 429.016 130.259 432.174 127.784C435.416 125.224 438.702 123.944 442.03 123.944C445.443 123.944 448.174 124.499 450.222 125.608C452.27 126.632 453.891 127.827 455.086 129.192C456.366 130.472 457.475 132.392 458.414 134.952C459.352 137.512 459.992 139.603 460.334 141.224C460.76 142.845 461.102 145.192 461.358 148.264C461.699 152.36 461.87 156.072 461.87 159.4C455.043 161.277 446.211 162.984 435.374 164.52C435.63 167.933 436.227 170.664 437.166 172.712C438.104 174.76 439.214 175.784 440.494 175.784ZM443.31 136.488C441.432 136.488 439.726 138.365 438.19 142.12C436.739 145.875 435.886 150.227 435.63 155.176C440.152 154.237 444.078 153.341 447.406 152.488C447.406 141.821 446.04 136.488 443.31 136.488ZM484.934 159.912C483.398 147.197 482.63 135.635 482.63 125.224C482.63 114.728 483.44 103.464 485.062 91.432L503.75 95.016C499.483 111.571 496.624 133.629 495.174 161.192L484.934 159.912ZM497.094 167.848C498.032 169.555 498.502 172.541 498.502 176.808C498.502 181.075 497.819 184.787 496.454 187.944L481.222 185C482.075 181.843 482.502 178.557 482.502 175.144C482.502 171.645 482.416 168.701 482.246 166.312L497.094 167.848Z" fill="#1C404C"/>
<path d="M51.3295 150.696H53.3295V150.247L53.1375 149.841L51.3295 150.696ZM32.7695 99.624L32.9606 97.6331L30.5008 97.397L30.7826 99.852L32.7695 99.624ZM48.7695 101.16L50.732 100.775L50.4447 99.3116L48.9606 99.1691L48.7695 101.16ZM60.5455 135.464L58.7208 136.283L60.5258 140.305L62.3635 136.298L60.5455 135.464ZM77.0575 93.608L77.2463 91.6169L75.636 91.4642L75.15 93.007L77.0575 93.608ZM91.9055 95.016L93.7928 95.6779L94.6386 93.2662L92.0943 93.0249L91.9055 95.016ZM69.1215 149.928L67.3164 149.067L67.1316 149.454L67.122 149.884L69.1215 149.928ZM69.3775 187.688L69.1666 189.677L71.5106 189.925L71.3742 187.572L69.3775 187.688ZM52.4815 185.896L50.4908 186.089L50.648 187.713L52.2706 187.885L52.4815 185.896ZM53.3295 160.552V150.696H49.3295V160.552H53.3295ZM53.1375 149.841C41.9535 126.192 35.9091 109.44 34.7565 99.396L30.7826 99.852C32.0193 110.629 38.3482 127.925 49.5215 151.551L53.1375 149.841ZM32.5784 101.615L48.5784 103.151L48.9606 99.1691L32.9606 97.6331L32.5784 101.615ZM46.807 101.545C48.7243 111.306 52.7128 122.893 58.7208 136.283L62.3702 134.645C56.4316 121.411 52.5694 110.129 50.732 100.775L46.807 101.545ZM62.3635 136.298C69.4712 120.798 75.0086 106.766 78.9651 94.209L75.15 93.007C71.2558 105.367 65.7852 119.239 58.7276 134.63L62.3635 136.298ZM76.8687 95.5991L91.7167 97.0071L92.0943 93.0249L77.2463 91.6169L76.8687 95.5991ZM90.0182 94.3541C83.7292 112.286 76.1626 130.524 67.3164 149.067L70.9266 150.789C79.8298 132.127 87.4526 113.756 93.7928 95.6779L90.0182 94.3541ZM67.122 149.884C66.9511 157.574 66.8655 164.331 66.8655 170.152H70.8655C70.8655 164.368 70.9506 157.642 71.121 149.972L67.122 149.884ZM66.8655 170.152C66.8655 175.994 67.0373 181.878 67.3809 187.804L71.3742 187.572C71.035 181.722 70.8655 175.915 70.8655 170.152H66.8655ZM69.5885 185.699L52.6925 183.907L52.2706 187.885L69.1666 189.677L69.5885 185.699ZM54.4722 185.703C53.7111 177.839 53.3295 169.455 53.3295 160.552H49.3295C49.3295 169.569 49.7159 178.081 50.4908 186.089L54.4722 185.703ZM119.366 168.36L121.311 168.823L121.313 168.816L119.366 168.36ZM110.278 145.192L108.336 144.714L108.333 144.724L108.331 144.734L110.278 145.192ZM98.1175 137.512L96.2899 136.7L96.2839 136.713L96.2782 136.727L98.1175 137.512ZM105.286 128.168L106.513 129.747L106.519 129.742L105.286 128.168ZM125.638 127.144L124.54 128.816L124.57 128.836L124.601 128.854L125.638 127.144ZM132.038 134.056L133.832 133.172L133.826 133.162L132.038 134.056ZM130.502 177.576L128.734 176.64L128.73 176.648L130.502 177.576ZM106.23 161.96C106.23 166.867 106.763 170.82 108.001 173.617C108.63 175.039 109.481 176.255 110.626 177.117C111.796 177.999 113.159 178.424 114.63 178.424V174.424C113.967 174.424 113.463 174.246 113.033 173.923C112.578 173.58 112.096 172.988 111.658 171.999C110.763 169.974 110.23 166.696 110.23 161.96H106.23ZM114.63 178.424C116.656 178.424 118.044 176.958 118.946 175.421C119.885 173.822 120.655 171.58 121.311 168.823L117.42 167.897C116.796 170.516 116.137 172.306 115.497 173.395C114.821 174.546 114.48 174.424 114.63 174.424V178.424ZM121.313 168.816C122.623 163.225 123.286 157.866 123.286 152.744H119.286C119.286 157.521 118.668 162.572 117.418 167.904L121.313 168.816ZM123.286 152.744C123.286 147.225 122.839 142.872 121.842 139.832C120.866 136.858 119.048 134.36 115.91 134.36V138.36C116.355 138.36 117.225 138.592 118.041 141.08C118.836 143.501 119.286 147.34 119.286 152.744H123.286ZM115.91 134.36C113.769 134.36 112.192 135.76 111.087 137.493C109.976 139.236 109.081 141.69 108.336 144.714L112.219 145.67C112.925 142.806 113.694 140.844 114.46 139.643C115.232 138.432 115.746 138.36 115.91 138.36V134.36ZM108.331 144.734C106.934 150.671 106.23 156.414 106.23 161.96H110.23C110.23 156.754 110.891 151.319 112.224 145.65L108.331 144.734ZM95.2535 160.808C95.2535 153.153 96.8158 145.654 99.9569 138.297L96.2782 136.727C92.9339 144.559 91.2535 152.591 91.2535 160.808H95.2535ZM99.9451 138.324C101.529 134.761 103.722 131.918 106.513 129.747L104.058 126.589C100.705 129.197 98.1194 132.583 96.2899 136.7L99.9451 138.324ZM106.519 129.742C109.341 127.53 112.41 126.456 115.782 126.456V122.456C111.473 122.456 107.544 123.857 104.052 126.594L106.519 129.742ZM115.782 126.456C119.301 126.456 122.189 127.273 124.54 128.816L126.735 125.472C123.624 123.431 119.942 122.456 115.782 122.456V126.456ZM124.601 128.854C127.099 130.369 128.969 132.392 130.249 134.95L133.826 133.162C132.204 129.917 129.808 127.333 126.674 125.434L124.601 128.854ZM130.243 134.94C132.916 140.366 134.262 146.291 134.262 152.744H138.262C138.262 145.714 136.791 139.18 133.832 133.172L130.243 134.94ZM134.262 152.744C134.262 161.763 132.402 169.712 128.734 176.64L132.269 178.512C136.281 170.934 138.262 162.328 138.262 152.744H134.262ZM128.73 176.648C125.243 183.304 120.559 186.328 114.63 186.328V190.328C122.353 190.328 128.251 186.184 132.273 178.504L128.73 176.648ZM114.63 186.328C107.966 186.328 103.275 184.209 100.177 180.221C97.0048 176.137 95.2535 169.778 95.2535 160.808H91.2535C91.2535 170.185 93.0649 177.586 97.018 182.675C101.046 187.86 107.042 190.328 114.63 190.328V186.328ZM194.651 124.968L196.65 124.993L196.674 123.135L194.822 122.975L194.651 124.968ZM194.395 145.192L192.395 145.167L192.395 145.179V145.192H194.395ZM195.419 187.176L195.218 189.166L197.594 189.406L197.413 187.024L195.419 187.176ZM182.747 185.896L180.752 186.038L180.871 187.717L182.546 187.886L182.747 185.896ZM181.083 175.016L183.031 174.563L181.995 170.111L179.428 173.892L181.083 175.016ZM155.611 180.52L154.1 181.831L155.611 180.52ZM153.819 127.4L154.007 125.409L152.037 125.222L151.83 127.19L153.819 127.4ZM168.667 128.808L170.656 129.017L170.867 127.008L168.855 126.817L168.667 128.808ZM175.067 166.44L173.304 165.494L173.295 165.511L173.286 165.528L175.067 166.44ZM179.547 153.768L181.498 154.205L181.557 153.944L181.544 153.677L179.547 153.768ZM179.803 123.688L179.974 121.695L177.845 121.512L177.803 123.649L179.803 123.688ZM192.651 124.943L192.395 145.167L196.394 145.217L196.65 124.993L192.651 124.943ZM192.395 145.192C192.395 164.229 192.736 178.288 193.424 187.328L197.413 187.024C196.736 178.144 196.395 164.214 196.395 145.192H192.395ZM195.62 185.186L182.948 183.906L182.546 187.886L195.218 189.166L195.62 185.186ZM184.741 185.754C184.478 182.06 183.906 178.33 183.031 174.563L179.135 175.469C179.965 179.041 180.503 182.564 180.752 186.038L184.741 185.754ZM179.428 173.892C174.832 180.661 170.618 183.384 166.875 183.384V187.384C172.688 187.384 177.946 183.195 182.737 176.14L179.428 173.892ZM166.875 183.384C162.7 183.384 159.519 181.97 157.121 179.209L154.1 181.831C157.334 185.555 161.662 187.384 166.875 187.384V183.384ZM157.121 179.209C154.712 176.436 153.387 172.477 153.387 167.08H149.387C149.387 173.118 150.877 178.119 154.1 181.831L157.121 179.209ZM153.387 167.08C153.387 156.078 154.191 142.925 155.807 127.61L151.83 127.19C150.203 142.595 149.387 155.895 149.387 167.08H153.387ZM153.63 129.391L168.478 130.799L168.855 126.817L154.007 125.409L153.63 129.391ZM166.678 128.599C165.138 143.228 164.363 155.421 164.363 165.16H168.363C168.363 155.613 169.124 143.572 170.656 129.017L166.678 128.599ZM164.363 165.16C164.363 167.48 164.715 169.561 165.692 171.119C166.768 172.833 168.457 173.688 170.459 173.688V169.688C169.729 169.688 169.371 169.455 169.081 168.993C168.693 168.375 168.363 167.192 168.363 165.16H164.363ZM170.459 173.688C172.001 173.688 173.214 172.674 174.073 171.696C174.999 170.641 175.919 169.162 176.847 167.352L173.286 165.528C172.422 167.217 171.678 168.362 171.068 169.056C170.391 169.827 170.197 169.688 170.459 169.688V173.688ZM176.829 167.386C178.812 163.69 180.359 159.286 181.498 154.205L177.595 153.331C176.515 158.149 175.076 162.193 173.304 165.494L176.829 167.386ZM181.544 153.677C181.461 151.839 181.419 149.652 181.419 147.112H177.419C177.419 149.692 177.461 151.943 177.549 153.859L181.544 153.677ZM181.419 147.112C181.419 144.577 181.546 136.794 181.802 123.727L177.803 123.649C177.547 136.694 177.419 144.527 177.419 147.112H181.419ZM179.631 125.681L194.479 126.961L194.822 122.975L179.974 121.695L179.631 125.681ZM259.817 184.232L257.82 184.358L257.929 186.079L259.647 186.225L259.817 184.232ZM259.561 96.04L259.74 94.0481L257.725 93.8663L257.567 95.8833L259.561 96.04ZM276.585 97.576L278.577 97.7498L278.75 95.7633L276.764 95.5841L276.585 97.576ZM275.305 169.256L273.309 169.391L273.454 171.532L275.58 171.237L275.305 169.256ZM297.961 166.696L299.931 166.356L299.613 164.509L297.749 164.707L297.961 166.696ZM300.521 181.544L300.759 183.53L302.849 183.279L302.491 181.204L300.521 181.544ZM273.385 185.384L273.215 187.377L273.452 187.397L273.688 187.361L273.385 185.384ZM261.813 184.106C260.705 166.561 260.153 150.518 260.153 135.976H256.153C256.153 150.618 256.709 166.746 257.82 184.358L261.813 184.106ZM260.153 135.976C260.153 121.34 260.621 108.081 261.554 96.1967L257.567 95.8833C256.623 107.892 256.153 121.257 256.153 135.976H260.153ZM259.381 98.0319L276.405 99.5679L276.764 95.5841L259.74 94.0481L259.381 98.0319ZM274.592 97.4022C273.308 112.132 272.665 126.227 272.665 139.688H276.665C276.665 126.354 277.302 112.375 278.577 97.7498L274.592 97.4022ZM272.665 139.688C272.665 153.092 272.878 163.005 273.309 169.391L277.3 169.121C276.878 162.878 276.665 153.078 276.665 139.688H272.665ZM275.58 171.237C278.613 170.816 286.129 169.966 298.172 168.685L297.749 164.707C285.728 165.986 278.14 166.843 275.029 167.275L275.58 171.237ZM295.99 167.036L298.55 181.884L302.491 181.204L299.931 166.356L295.99 167.036ZM300.282 179.558C293.85 180.33 284.779 181.614 273.081 183.407L273.688 187.361C285.371 185.57 294.391 184.294 300.759 183.53L300.282 179.558ZM273.554 183.391L259.986 182.239L259.647 186.225L273.215 187.377L273.554 183.391ZM336.706 168.36L338.651 168.823L338.653 168.816L336.706 168.36ZM327.618 145.192L325.676 144.714L325.673 144.724L325.671 144.734L327.618 145.192ZM315.458 137.512L313.63 136.7L313.624 136.713L313.618 136.727L315.458 137.512ZM322.626 128.168L323.853 129.747L323.859 129.742L322.626 128.168ZM342.978 127.144L341.88 128.816L341.91 128.836L341.941 128.854L342.978 127.144ZM349.378 134.056L351.172 133.172L351.166 133.162L349.378 134.056ZM347.842 177.576L346.074 176.64L346.07 176.648L347.842 177.576ZM323.57 161.96C323.57 166.867 324.103 170.82 325.341 173.617C325.97 175.039 326.821 176.255 327.966 177.117C329.136 177.999 330.499 178.424 331.97 178.424V174.424C331.307 174.424 330.803 174.246 330.373 173.923C329.918 173.58 329.436 172.988 328.998 171.999C328.103 169.974 327.57 166.696 327.57 161.96H323.57ZM331.97 178.424C333.996 178.424 335.384 176.958 336.286 175.421C337.225 173.822 337.995 171.58 338.651 168.823L334.76 167.897C334.136 170.516 333.477 172.306 332.837 173.395C332.161 174.546 331.82 174.424 331.97 174.424V178.424ZM338.653 168.816C339.963 163.225 340.626 157.866 340.626 152.744H336.626C336.626 157.521 336.008 162.572 334.758 167.904L338.653 168.816ZM340.626 152.744C340.626 147.225 340.179 142.872 339.182 139.832C338.206 136.858 336.388 134.36 333.25 134.36V138.36C333.695 138.36 334.565 138.592 335.381 141.08C336.176 143.501 336.626 147.34 336.626 152.744H340.626ZM333.25 134.36C331.109 134.36 329.532 135.76 328.427 137.493C327.316 139.236 326.421 141.69 325.676 144.714L329.559 145.67C330.265 142.806 331.034 140.844 331.8 139.643C332.572 138.432 333.086 138.36 333.25 138.36V134.36ZM325.671 144.734C324.274 150.671 323.57 156.414 323.57 161.96H327.57C327.57 156.754 328.231 151.319 329.564 145.65L325.671 144.734ZM312.594 160.808C312.594 153.153 314.156 145.654 317.297 138.297L313.618 136.727C310.274 144.559 308.594 152.591 308.594 160.808H312.594ZM317.285 138.324C318.869 134.761 321.062 131.918 323.853 129.747L321.398 126.589C318.045 129.197 315.459 132.583 313.63 136.7L317.285 138.324ZM323.859 129.742C326.681 127.53 329.75 126.456 333.122 126.456V122.456C328.813 122.456 324.884 123.857 321.392 126.594L323.859 129.742ZM333.122 126.456C336.641 126.456 339.529 127.273 341.88 128.816L344.075 125.472C340.964 123.431 337.282 122.456 333.122 122.456V126.456ZM341.941 128.854C344.439 130.369 346.309 132.392 347.589 134.95L351.166 133.162C349.544 129.917 347.148 127.333 344.014 125.434L341.941 128.854ZM347.583 134.94C350.256 140.366 351.602 146.291 351.602 152.744H355.602C355.602 145.714 354.131 139.18 351.172 133.172L347.583 134.94ZM351.602 152.744C351.602 161.763 349.742 169.712 346.074 176.64L349.609 178.512C353.621 170.934 355.602 162.328 355.602 152.744H351.602ZM346.07 176.648C342.583 183.304 337.899 186.328 331.97 186.328V190.328C339.693 190.328 345.591 186.184 349.613 178.504L346.07 176.648ZM331.97 186.328C325.306 186.328 320.615 184.209 317.517 180.221C314.345 176.137 312.594 169.778 312.594 160.808H308.594C308.594 170.185 310.405 177.586 314.358 182.675C318.386 187.86 324.382 190.328 331.97 190.328V186.328ZM386.519 138.92L385.007 137.61L385 137.618L386.519 138.92ZM386.135 149.032L384.391 150.013L384.414 150.053L384.439 150.092L386.135 149.032ZM390.615 153.128L389.536 154.813L389.575 154.837L389.615 154.86L390.615 153.128ZM395.735 156.328L394.572 157.955L394.637 158.002L394.706 158.043L395.735 156.328ZM400.215 159.656L401.534 158.153L401.522 158.143L401.51 158.132L400.215 159.656ZM399.959 183.208L398.696 181.657L398.687 181.664L398.678 181.672L399.959 183.208ZM375.511 184.104L374.374 185.75L374.396 185.765L374.419 185.78L375.511 184.104ZM366.807 174.888L365.309 173.562L364.334 174.664L365.095 175.923L366.807 174.888ZM373.719 167.08L375.449 166.077L374.059 163.679L372.221 165.754L373.719 167.08ZM387.799 174.888L388.975 176.505L389.021 176.472L389.065 176.436L387.799 174.888ZM383.319 164.264L384.331 162.539L384.308 162.525L384.284 162.512L383.319 164.264ZM373.463 156.584L374.988 155.29L374.988 155.29L373.463 156.584ZM376.279 130.728L377.664 132.171L377.671 132.164L377.678 132.156L376.279 130.728ZM401.623 129.576L400.08 130.849L400.097 130.87L400.115 130.89L401.623 129.576ZM405.207 150.568L405.031 152.56L406.827 152.718L407.17 150.948L405.207 150.568ZM393.559 149.544L391.575 149.285L391.306 151.354L393.383 151.536L393.559 149.544ZM395.943 144.68C395.943 142.018 395.62 139.723 394.771 138.026C394.333 137.148 393.723 136.37 392.892 135.816C392.048 135.253 391.093 135 390.103 135V139C390.393 139 390.557 139.067 390.673 139.144C390.802 139.23 390.992 139.412 391.194 139.814C391.625 140.677 391.943 142.222 391.943 144.68H395.943ZM390.103 135C388.07 135 386.366 136.042 385.007 137.61L388.03 140.23C388.89 139.238 389.576 139 390.103 139V135ZM385 137.618C383.57 139.287 382.983 141.472 382.983 143.912H386.983C386.983 142.086 387.419 140.942 388.037 140.222L385 137.618ZM382.983 143.912C382.983 146.201 383.411 148.27 384.391 150.013L387.878 148.051C387.322 147.064 386.983 145.719 386.983 143.912H382.983ZM384.439 150.092C385.513 151.812 387.282 153.369 389.536 154.813L391.693 151.443C389.681 150.156 388.462 148.983 387.831 147.972L384.439 150.092ZM389.615 154.86C391.812 156.128 393.455 157.157 394.572 157.955L396.897 154.701C395.625 153.792 393.854 152.688 391.614 151.396L389.615 154.86ZM394.706 158.043C395.858 158.734 397.259 159.769 398.919 161.18L401.51 158.132C399.757 156.642 398.171 155.458 396.764 154.613L394.706 158.043ZM398.895 161.159C401.94 163.832 403.463 167.242 403.463 171.56H407.463C407.463 166.15 405.487 161.624 401.534 158.153L398.895 161.159ZM403.463 171.56C403.463 175.744 401.893 179.054 398.696 181.657L401.221 184.759C405.362 181.388 407.463 176.933 407.463 171.56H403.463ZM398.678 181.672C395.441 184.369 391.838 185.688 387.799 185.688V189.688C392.805 189.688 397.308 188.02 401.239 184.744L398.678 181.672ZM387.799 185.688C383.65 185.688 379.935 184.599 376.602 182.428L374.419 185.78C378.424 188.388 382.902 189.688 387.799 189.688V185.688ZM376.647 182.458C373.292 180.142 370.588 177.277 368.518 173.853L365.095 175.923C367.462 179.838 370.561 183.117 374.374 185.75L376.647 182.458ZM368.304 176.214L375.216 168.406L372.221 165.754L365.309 173.562L368.304 176.214ZM371.988 168.083C375.469 174.088 379.57 177.912 384.471 177.912V173.912C381.862 173.912 378.794 171.848 375.449 166.077L371.988 168.083ZM384.471 177.912C386.128 177.912 387.659 177.462 388.975 176.505L386.622 173.271C386.061 173.679 385.374 173.912 384.471 173.912V177.912ZM389.065 176.436C390.497 175.265 391.207 173.658 391.207 171.816H387.207C387.207 172.534 386.978 172.975 386.532 173.34L389.065 176.436ZM391.207 171.816C391.207 167.995 388.446 164.954 384.331 162.539L382.306 165.989C386.042 168.182 387.207 170.176 387.207 171.816H391.207ZM384.284 162.512C380.256 160.293 377.181 157.875 374.988 155.29L371.938 157.878C374.523 160.925 378.018 163.627 382.353 166.016L384.284 162.512ZM374.988 155.29C373.005 152.954 371.879 149.508 371.879 144.68H367.879C367.879 150.092 369.141 154.582 371.938 157.878L374.988 155.29ZM371.879 144.68C371.879 140.096 373.731 135.946 377.664 132.171L374.893 129.285C370.293 133.702 367.879 138.854 367.879 144.68H371.879ZM377.678 132.156C381.662 128.253 385.748 126.456 389.975 126.456V122.456C384.473 122.456 379.429 124.84 374.879 129.3L377.678 132.156ZM389.975 126.456C394.407 126.456 397.692 127.954 400.08 130.849L403.165 128.303C399.921 124.371 395.441 122.456 389.975 122.456V126.456ZM400.115 130.89C402.615 133.757 403.975 137.764 403.975 143.144H407.975C407.975 137.089 406.433 132.051 403.13 128.262L400.115 130.89ZM403.975 143.144C403.975 145.301 403.735 147.647 403.243 150.188L407.17 150.948C407.702 148.198 407.975 145.595 407.975 143.144H403.975ZM405.382 148.576L393.734 147.552L393.383 151.536L405.031 152.56L405.382 148.576ZM395.542 149.803C395.804 147.795 395.943 146.08 395.943 144.68H391.943C391.943 145.84 391.825 147.368 391.575 149.285L395.542 149.803ZM450.862 166.44L451.881 164.719L450.156 163.698L449.138 165.425L450.862 166.44ZM460.59 172.2L462.323 173.198L463.309 171.486L461.609 170.479L460.59 172.2ZM455.854 179.368L454.279 178.135L454.262 178.157L454.245 178.179L455.854 179.368ZM425.646 180.904L424.081 182.15L424.087 182.157L424.092 182.164L425.646 180.904ZM424.878 137.512L423.037 136.729L423.032 136.74L423.028 136.752L424.878 137.512ZM432.174 127.784L433.407 129.358L433.413 129.354L432.174 127.784ZM450.222 125.608L449.269 127.367L449.298 127.382L449.327 127.397L450.222 125.608ZM455.086 129.192L453.58 130.509L453.624 130.559L453.671 130.606L455.086 129.192ZM458.414 134.952L456.536 135.641L456.536 135.641L458.414 134.952ZM460.334 141.224L458.376 141.636L458.387 141.685L458.399 141.733L460.334 141.224ZM461.358 148.264L459.364 148.43L459.364 148.43L461.358 148.264ZM461.87 159.4L462.4 161.328L463.87 160.924V159.4H461.87ZM435.374 164.52L435.093 162.54L433.239 162.803L433.379 164.67L435.374 164.52ZM437.166 172.712L435.347 173.545L435.347 173.545L437.166 172.712ZM438.19 142.12L436.338 141.363L436.331 141.381L436.324 141.399L438.19 142.12ZM435.63 155.176L433.632 155.073L433.498 157.661L436.036 157.134L435.63 155.176ZM447.406 152.488L447.902 154.425L449.406 154.04V152.488H447.406ZM440.494 177.784C442.787 177.784 444.919 176.68 446.856 174.934C448.795 173.186 450.697 170.659 452.585 167.455L449.138 165.425C447.356 168.45 445.696 170.595 444.179 171.962C442.66 173.331 441.442 173.784 440.494 173.784V177.784ZM449.843 168.161L459.571 173.921L461.609 170.479L451.881 164.719L449.843 168.161ZM458.856 171.202C457.269 173.959 455.742 176.266 454.279 178.135L457.429 180.601C459.037 178.545 460.668 176.073 462.323 173.198L458.856 171.202ZM454.245 178.179C453.003 179.86 451.018 181.575 448.169 183.285L450.227 186.715C453.35 184.841 455.803 182.801 457.462 180.557L454.245 178.179ZM448.169 183.285C445.51 184.88 442.541 185.688 439.214 185.688V189.688C443.225 189.688 446.912 188.704 450.227 186.715L448.169 183.285ZM439.214 185.688C434.495 185.688 430.524 183.743 427.199 179.644L424.092 182.164C428.105 187.11 433.18 189.688 439.214 189.688V185.688ZM427.21 179.658C423.901 175.503 422.142 169.801 422.142 162.344H418.142C418.142 170.417 420.051 177.089 424.081 182.15L427.21 179.658ZM422.142 162.344C422.142 153.712 423.676 145.695 426.727 138.272L423.028 136.752C419.765 144.689 418.142 153.227 418.142 162.344H422.142ZM426.718 138.295C428.304 134.567 430.538 131.607 433.407 129.358L430.94 126.21C427.494 128.911 424.864 132.435 423.037 136.729L426.718 138.295ZM433.413 129.354C436.39 127.004 439.251 125.944 442.03 125.944V121.944C438.152 121.944 434.443 123.444 430.934 126.214L433.413 129.354ZM442.03 125.944C445.254 125.944 447.618 126.472 449.269 127.367L451.174 123.849C448.729 122.525 445.632 121.944 442.03 121.944V125.944ZM449.327 127.397C451.201 128.334 452.595 129.383 453.58 130.509L456.591 127.875C455.187 126.27 453.338 124.93 451.116 123.819L449.327 127.397ZM453.671 130.606C454.669 131.604 455.651 133.228 456.536 135.641L460.291 134.263C459.299 131.556 458.062 129.34 456.5 127.778L453.671 130.606ZM456.536 135.641C457.46 138.16 458.063 140.149 458.376 141.636L462.291 140.812C461.921 139.056 461.245 136.864 460.291 134.263L456.536 135.641ZM458.399 141.733C458.782 143.185 459.112 145.395 459.364 148.43L463.351 148.098C463.092 144.989 462.739 142.506 462.268 140.715L458.399 141.733ZM459.364 148.43C459.702 152.483 459.87 156.138 459.87 159.4H463.87C463.87 156.006 463.696 152.237 463.351 148.098L459.364 148.43ZM461.339 157.472C454.626 159.318 445.886 161.01 435.093 162.54L435.654 166.5C446.536 164.958 455.46 163.237 462.4 161.328L461.339 157.472ZM433.379 164.67C433.645 168.209 434.272 171.2 435.347 173.545L438.984 171.879C438.181 170.128 437.614 167.657 437.368 164.37L433.379 164.67ZM435.347 173.545C436.351 175.735 437.955 177.784 440.494 177.784V173.784C440.445 173.784 440.314 173.782 440.058 173.546C439.769 173.28 439.392 172.77 438.984 171.879L435.347 173.545ZM443.31 134.488C441.629 134.488 440.235 135.348 439.142 136.551C438.066 137.734 437.148 139.383 436.338 141.363L440.041 142.877C440.767 141.103 441.471 139.935 442.101 139.241C442.715 138.567 443.112 138.488 443.31 138.488V134.488ZM436.324 141.399C434.782 145.391 433.897 149.959 433.632 155.073L437.627 155.279C437.874 150.494 438.696 146.358 440.055 142.841L436.324 141.399ZM436.036 157.134C440.579 156.191 444.536 155.288 447.902 154.425L446.909 150.551C443.619 151.394 439.725 152.283 435.223 153.218L436.036 157.134ZM449.406 152.488C449.406 147.113 449.066 142.909 448.319 139.992C447.948 138.543 447.437 137.245 446.688 136.27C445.894 135.237 444.758 134.488 443.31 134.488V138.488C443.316 138.488 443.311 138.489 443.302 138.486C443.292 138.483 443.289 138.481 443.295 138.484C443.308 138.492 443.388 138.541 443.515 138.706C443.79 139.064 444.132 139.766 444.444 140.984C445.063 143.401 445.406 147.197 445.406 152.488H449.406ZM484.934 159.912L482.948 160.152L483.135 161.703L484.685 161.897L484.934 159.912ZM485.062 91.432L485.438 89.4678L483.362 89.0696L483.079 91.1649L485.062 91.432ZM503.75 95.016L505.686 95.5152L506.218 93.4529L504.126 93.0518L503.75 95.016ZM495.174 161.192L494.925 163.177L497.058 163.443L497.171 161.297L495.174 161.192ZM497.094 167.848L498.846 166.884L498.341 165.966L497.299 165.859L497.094 167.848ZM496.454 187.944L496.074 189.908L497.652 190.213L498.289 188.738L496.454 187.944ZM481.222 185L479.291 184.478L478.729 186.555L480.842 186.964L481.222 185ZM482.246 166.312L482.451 164.323L480.081 164.077L480.251 166.454L482.246 166.312ZM486.919 159.672C485.391 147.02 484.63 135.539 484.63 125.224H480.63C480.63 135.731 481.404 147.375 482.948 160.152L486.919 159.672ZM484.63 125.224C484.63 114.83 485.432 103.656 487.044 91.6991L483.079 91.1649C481.448 103.272 480.63 114.626 480.63 125.224H484.63ZM484.685 93.3962L503.373 96.9802L504.126 93.0518L485.438 89.4678L484.685 93.3962ZM501.813 94.5168C497.499 111.254 494.63 133.462 493.176 161.087L497.171 161.297C498.618 133.797 501.467 111.887 505.686 95.5152L501.813 94.5168ZM495.422 159.207L485.182 157.927L484.685 161.897L494.925 163.177L495.422 159.207ZM495.341 168.812C496.014 170.036 496.502 172.567 496.502 176.808H500.502C500.502 172.516 500.05 169.073 498.846 166.884L495.341 168.812ZM496.502 176.808C496.502 180.865 495.852 184.296 494.618 187.15L498.289 188.738C499.786 185.277 500.502 181.284 500.502 176.808H496.502ZM496.833 185.98L481.601 183.036L480.842 186.964L496.074 189.908L496.833 185.98ZM483.152 185.522C484.054 182.187 484.502 178.726 484.502 175.144H480.502C480.502 178.389 480.096 181.498 479.291 184.478L483.152 185.522ZM484.502 175.144C484.502 171.617 484.416 168.622 484.24 166.17L480.251 166.454C480.417 168.78 480.502 171.673 480.502 175.144H484.502ZM482.04 168.301L496.888 169.837L497.299 165.859L482.451 164.323L482.04 168.301Z" fill="white" mask="url(#path-4-outside-1_42_103)"/>
</g>
<path d="M149.331 241.048C149.171 238.216 149.091 235.752 149.091 233.656C149.091 231.544 149.139 229.344 149.235 227.056L146.307 227.464L145.779 224.68C147.347 224.408 148.899 224.208 150.435 224.08L154.923 223.84L155.379 226.504C154.499 226.552 153.507 226.624 152.403 226.72C152.307 229.024 152.259 231.136 152.259 233.056C152.259 234.976 152.291 237.728 152.355 241.312L149.331 241.048ZM161.681 232.336C161.009 232.336 160.505 233.184 160.169 234.88C160.201 236 160.217 237.072 160.217 238.096C160.217 239.12 160.185 240.272 160.121 241.552L157.337 241.312C157.385 238.96 157.409 237.664 157.409 237.424C157.409 234.464 157.265 232.2 156.977 230.632L158.777 230.824C158.889 231.288 159.017 231.696 159.161 232.048C159.945 230.368 160.737 229.528 161.537 229.528C162.193 229.528 162.769 229.816 163.265 230.392L162.641 232.6C162.385 232.424 162.065 232.336 161.681 232.336ZM172.177 228.976L174.481 230.32C173.153 234.432 171.793 239.888 170.401 246.688L167.761 246.448C168.017 245.184 168.441 243.44 169.033 241.216C167.497 238.272 166.529 234.56 166.129 230.08L168.817 230.344C169.057 233.288 169.441 235.8 169.969 237.88C170.705 234.456 171.441 231.488 172.177 228.976ZM191.957 240.76L191.405 237.424L187.829 237.568L186.917 242.08L183.557 241.792L187.853 224.392L192.293 224.776L195.437 241.048L191.957 240.76ZM189.845 227.536L188.333 235L191.021 234.904L189.845 227.536ZM202.172 244.216C202.668 244.216 203.068 243.704 203.372 242.68C203.676 241.672 203.828 240.416 203.828 238.912C202.98 240.432 202.1 241.192 201.188 241.192C200.292 241.192 199.564 240.888 199.004 240.28C198.46 239.656 198.188 238.72 198.188 237.472C198.188 236.208 198.404 234.96 198.836 233.728C199.268 232.48 199.796 231.488 200.42 230.752C201.06 230 201.668 229.624 202.244 229.624C203.252 229.624 204.18 230.032 205.028 230.848L206.708 231.088C206.5 232.128 206.396 233.728 206.396 235.888C206.396 238.032 206.332 239.616 206.204 240.64C206.092 241.648 205.9 242.64 205.628 243.616C205.356 244.592 204.956 245.368 204.428 245.944C203.9 246.52 203.204 246.808 202.34 246.808C201.476 246.808 200.652 246.456 199.868 245.752C199.084 245.064 198.452 244.232 197.972 243.256L199.988 242.392C200.612 243.608 201.34 244.216 202.172 244.216ZM202.844 232.072C202.444 232.072 202.036 232.648 201.62 233.8C201.22 234.952 201.02 236.176 201.02 237.472C201.02 237.968 201.084 238.344 201.212 238.6C201.356 238.856 201.508 238.984 201.668 238.984C201.844 238.984 202.068 238.824 202.34 238.504C202.612 238.184 202.9 237.672 203.204 236.968C203.524 236.264 203.756 235.488 203.9 234.64L203.948 232.816C203.484 232.32 203.116 232.072 202.844 232.072ZM210.027 233.92C210.267 232.672 210.723 231.616 211.395 230.752C212.067 229.872 212.947 229.432 214.035 229.432C215.123 229.432 215.923 229.888 216.435 230.8C216.963 231.696 217.227 232.976 217.227 234.64C217.227 236.304 217.131 238.6 216.939 241.528L214.923 241.36L214.731 240.592C213.979 241.024 213.211 241.24 212.427 241.24C211.643 241.24 210.995 240.984 210.483 240.472C209.971 239.944 209.715 239.192 209.715 238.216C209.715 237.24 210.195 236.4 211.155 235.696C212.131 234.992 213.251 234.624 214.515 234.592V233.944C214.515 232.68 214.211 232.048 213.603 232.048C213.299 232.048 213.019 232.264 212.763 232.696C212.523 233.112 212.347 233.592 212.235 234.136L210.027 233.92ZM212.163 238.36C212.163 238.872 212.467 239.128 213.075 239.128C213.491 239.128 213.931 239.032 214.395 238.84L214.443 236.824C213.691 236.888 213.123 237.08 212.739 237.4C212.355 237.704 212.163 238.024 212.163 238.36ZM221.61 229.552L224.346 229.816V241.336L221.61 241.072V229.552ZM221.802 225.328L224.49 225.64L224.25 228.328L221.562 227.992L221.802 225.328ZM233.474 229.576C235.586 229.576 236.642 231.336 236.642 234.856C236.642 236.712 236.538 238.68 236.33 240.76L233.522 240.496C233.698 238.672 233.786 236.832 233.786 234.976C233.786 233.104 233.522 232.168 232.994 232.168C232.738 232.168 232.41 232.816 232.01 234.112C231.61 235.392 231.362 236.648 231.266 237.88C231.298 238.536 231.362 239.72 231.458 241.432L228.65 241.168C228.474 238.912 228.386 236.928 228.386 235.216C228.386 233.504 228.434 231.968 228.53 230.608L230.306 230.8C230.338 230.928 230.458 231.448 230.666 232.36C231.594 230.504 232.53 229.576 233.474 229.576ZM240.958 236.272L244.15 237.328C243.99 238.784 243.366 240.968 242.278 243.88L240.07 243.712C240.502 241.088 240.798 238.608 240.958 236.272ZM258.429 236.416V234.568C256.333 230.136 255.173 226.944 254.949 224.992L257.949 225.28C258.301 227.072 259.037 229.216 260.157 231.712C261.485 228.816 262.517 226.2 263.253 223.864L266.037 224.128C264.853 227.504 263.429 230.936 261.765 234.424C261.733 235.864 261.717 237.128 261.717 238.216C261.717 239.304 261.749 240.4 261.813 241.504L258.645 241.168C258.501 239.68 258.429 238.096 258.429 236.416ZM269.098 236.68C269.098 238.488 269.498 239.392 270.298 239.392C270.65 239.392 270.946 238.888 271.186 237.88C271.426 236.856 271.546 235.88 271.546 234.952C271.546 232.904 271.21 231.88 270.538 231.88C270.106 231.88 269.754 232.432 269.482 233.536C269.226 234.624 269.098 235.672 269.098 236.68ZM266.29 236.464C266.29 234.976 266.594 233.52 267.202 232.096C267.522 231.376 267.97 230.792 268.546 230.344C269.138 229.88 269.794 229.648 270.514 229.648C271.234 229.648 271.85 229.816 272.362 230.152C272.89 230.472 273.29 230.904 273.562 231.448C274.09 232.52 274.354 233.688 274.354 234.952C274.354 236.696 273.994 238.248 273.274 239.608C272.57 240.952 271.578 241.624 270.298 241.624C267.626 241.624 266.29 239.904 266.29 236.464ZM285.302 229.744L285.254 233.536C285.254 237.104 285.318 239.728 285.446 241.408L283.07 241.168C283.022 240.496 282.918 239.816 282.758 239.128C281.878 240.424 280.99 241.072 280.094 241.072C279.214 241.072 278.51 240.768 277.982 240.16C277.454 239.552 277.19 238.712 277.19 237.64C277.19 235.56 277.342 233.08 277.646 230.2L280.43 230.464C280.142 233.2 279.998 235.472 279.998 237.28C279.998 238.096 280.254 238.504 280.766 238.504C281.006 238.504 281.294 238.176 281.63 237.52C281.982 236.864 282.262 236.072 282.47 235.144C282.454 234.792 282.446 234.376 282.446 233.896C282.446 233.416 282.47 231.952 282.518 229.504L285.302 229.744ZM291.396 230.632L288.948 230.344C289.06 228.488 289.356 226.232 289.836 223.576L292.668 224.44C292.012 226.424 291.588 228.488 291.396 230.632ZM300.396 232.336C299.724 232.336 299.22 233.184 298.884 234.88C298.916 236 298.932 237.072 298.932 238.096C298.932 239.12 298.9 240.272 298.836 241.552L296.052 241.312C296.1 238.96 296.124 237.664 296.124 237.424C296.124 234.464 295.98 232.2 295.692 230.632L297.492 230.824C297.604 231.288 297.732 231.696 297.876 232.048C298.66 230.368 299.452 229.528 300.252 229.528C300.908 229.528 301.484 229.816 301.98 230.392L301.356 232.6C301.1 232.424 300.78 232.336 300.396 232.336ZM307.975 239.272C308.583 239.272 309.231 238.688 309.919 237.52L311.743 238.6C311.439 239.128 311.143 239.576 310.855 239.944C310.583 240.312 310.167 240.664 309.607 241C309.047 241.336 308.423 241.504 307.735 241.504C306.727 241.504 305.879 241.08 305.191 240.232C304.503 239.368 304.159 238.208 304.159 236.752C304.159 235.088 304.455 233.536 305.047 232.096C305.367 231.344 305.823 230.736 306.415 230.272C307.023 229.792 307.639 229.552 308.263 229.552C308.903 229.552 309.415 229.656 309.799 229.864C310.183 230.056 310.487 230.28 310.711 230.536C310.951 230.776 311.159 231.136 311.335 231.616C311.511 232.096 311.631 232.488 311.695 232.792C311.775 233.096 311.839 233.536 311.887 234.112C311.951 234.88 311.983 235.576 311.983 236.2C310.703 236.552 309.047 236.872 307.015 237.16C307.063 237.8 307.175 238.312 307.351 238.696C307.527 239.08 307.735 239.272 307.975 239.272ZM308.503 231.904C308.151 231.904 307.831 232.256 307.543 232.96C307.271 233.664 307.111 234.48 307.063 235.408C307.911 235.232 308.647 235.064 309.271 234.904C309.271 232.904 309.015 231.904 308.503 231.904ZM329.536 231.472C329.6 231.152 329.632 230.632 329.632 229.912C329.632 229.176 329.512 228.504 329.272 227.896C329.032 227.272 328.68 226.96 328.216 226.96C327.656 226.96 327.112 227.688 326.584 229.144C326.056 230.584 325.792 232.136 325.792 233.8C325.792 235.448 325.952 236.744 326.272 237.688C326.592 238.616 327.064 239.08 327.688 239.08C328.312 239.08 328.784 238.792 329.104 238.216C329.424 237.64 329.664 236.792 329.824 235.672C329.248 235.672 328.632 235.728 327.976 235.84L327.472 233.464C328.928 233.368 330.752 233.192 332.944 232.936C333.04 233.768 333.088 234.528 333.088 235.216C333.088 235.904 332.88 236.76 332.464 237.784C332.064 238.808 331.456 239.712 330.64 240.496C329.84 241.28 328.96 241.672 328 241.672C326.336 241.672 325 241.024 323.992 239.728C323 238.432 322.504 236.6 322.504 234.232C322.504 232.488 322.72 230.856 323.152 229.336C323.584 227.816 324.224 226.568 325.072 225.592C325.92 224.616 326.888 224.128 327.976 224.128C329.032 224.128 330.024 224.512 330.952 225.28C331.432 225.68 331.816 226.256 332.104 227.008C332.408 227.744 332.56 228.52 332.56 229.336C332.56 230.152 332.488 230.944 332.344 231.712L329.536 231.472ZM339.593 239.272C340.201 239.272 340.849 238.688 341.537 237.52L343.361 238.6C343.057 239.128 342.761 239.576 342.473 239.944C342.201 240.312 341.785 240.664 341.225 241C340.665 241.336 340.041 241.504 339.353 241.504C338.345 241.504 337.497 241.08 336.809 240.232C336.121 239.368 335.777 238.208 335.777 236.752C335.777 235.088 336.073 233.536 336.665 232.096C336.985 231.344 337.441 230.736 338.033 230.272C338.641 229.792 339.257 229.552 339.881 229.552C340.521 229.552 341.033 229.656 341.417 229.864C341.801 230.056 342.105 230.28 342.329 230.536C342.569 230.776 342.777 231.136 342.953 231.616C343.129 232.096 343.249 232.488 343.313 232.792C343.393 233.096 343.457 233.536 343.505 234.112C343.569 234.88 343.601 235.576 343.601 236.2C342.321 236.552 340.665 236.872 338.633 237.16C338.681 237.8 338.793 238.312 338.969 238.696C339.145 239.08 339.353 239.272 339.593 239.272ZM340.121 231.904C339.769 231.904 339.449 232.256 339.161 232.96C338.889 233.664 338.729 234.48 338.681 235.408C339.529 235.232 340.265 235.064 340.889 234.904C340.889 232.904 340.633 231.904 340.121 231.904ZM352.509 230.968V233.248C351.741 233.248 351.149 233.256 350.733 233.272C350.685 234.872 350.661 237.56 350.661 241.336L347.829 241.072C347.829 238.272 347.853 235.736 347.901 233.464C347.661 233.464 347.205 233.504 346.533 233.584L346.173 231.616C346.557 231.536 347.157 231.432 347.973 231.304C348.005 230.12 348.069 228.392 348.165 226.12L351.021 226.384C350.925 227.968 350.853 229.504 350.805 230.992C351.205 230.976 351.773 230.968 352.509 230.968ZM361.08 230.968V233.248C360.312 233.248 359.72 233.256 359.304 233.272C359.256 234.872 359.232 237.56 359.232 241.336L356.4 241.072C356.4 238.272 356.424 235.736 356.472 233.464C356.232 233.464 355.776 233.504 355.104 233.584L354.744 231.616C355.128 231.536 355.728 231.432 356.544 231.304C356.576 230.12 356.64 228.392 356.736 226.12L359.592 226.384C359.496 227.968 359.424 229.504 359.376 230.992C359.776 230.976 360.344 230.968 361.08 230.968ZM364.467 229.552L367.203 229.816V241.336L364.467 241.072V229.552ZM364.659 225.328L367.347 225.64L367.107 228.328L364.419 227.992L364.659 225.328ZM376.33 229.576C378.442 229.576 379.498 231.336 379.498 234.856C379.498 236.712 379.394 238.68 379.186 240.76L376.378 240.496C376.554 238.672 376.642 236.832 376.642 234.976C376.642 233.104 376.378 232.168 375.85 232.168C375.594 232.168 375.266 232.816 374.866 234.112C374.466 235.392 374.218 236.648 374.122 237.88C374.154 238.536 374.218 239.72 374.314 241.432L371.506 241.168C371.33 238.912 371.242 236.928 371.242 235.216C371.242 233.504 371.29 231.968 371.386 230.608L373.162 230.8C373.194 230.928 373.314 231.448 373.522 232.36C374.45 230.504 375.386 229.576 376.33 229.576ZM386.646 244.216C387.142 244.216 387.542 243.704 387.846 242.68C388.15 241.672 388.302 240.416 388.302 238.912C387.454 240.432 386.574 241.192 385.662 241.192C384.766 241.192 384.038 240.888 383.478 240.28C382.934 239.656 382.662 238.72 382.662 237.472C382.662 236.208 382.878 234.96 383.31 233.728C383.742 232.48 384.27 231.488 384.894 230.752C385.534 230 386.142 229.624 386.718 229.624C387.726 229.624 388.654 230.032 389.502 230.848L391.182 231.088C390.974 232.128 390.87 233.728 390.87 235.888C390.87 238.032 390.806 239.616 390.678 240.64C390.566 241.648 390.374 242.64 390.102 243.616C389.83 244.592 389.43 245.368 388.902 245.944C388.374 246.52 387.678 246.808 386.814 246.808C385.95 246.808 385.126 246.456 384.342 245.752C383.558 245.064 382.926 244.232 382.446 243.256L384.462 242.392C385.086 243.608 385.814 244.216 386.646 244.216ZM387.318 232.072C386.918 232.072 386.51 232.648 386.094 233.8C385.694 234.952 385.494 236.176 385.494 237.472C385.494 237.968 385.558 238.344 385.686 238.6C385.83 238.856 385.982 238.984 386.142 238.984C386.318 238.984 386.542 238.824 386.814 238.504C387.086 238.184 387.374 237.672 387.678 236.968C387.998 236.264 388.23 235.488 388.374 234.64L388.422 232.816C387.958 232.32 387.59 232.072 387.318 232.072ZM219.196 257.976L219.22 260.736L222.82 260.52C222.82 258.024 222.86 255.376 222.94 252.576L226.108 252.864C225.964 255.408 225.892 258.168 225.892 261.144C225.892 264.104 225.98 267.08 226.156 270.072L223.084 269.808C222.94 268.432 222.852 266.224 222.82 263.184L219.292 263.4C219.34 265.672 219.412 267.984 219.508 270.336L216.244 270.048C216.068 266.672 215.98 263.568 215.98 260.736C215.98 257.904 216.044 255.456 216.172 253.392L219.34 253.68C219.244 255.104 219.196 256.536 219.196 257.976ZM230.094 262.92C230.334 261.672 230.79 260.616 231.462 259.752C232.134 258.872 233.014 258.432 234.102 258.432C235.19 258.432 235.99 258.888 236.502 259.8C237.03 260.696 237.294 261.976 237.294 263.64C237.294 265.304 237.198 267.6 237.006 270.528L234.99 270.36L234.798 269.592C234.046 270.024 233.278 270.24 232.494 270.24C231.71 270.24 231.062 269.984 230.55 269.472C230.038 268.944 229.782 268.192 229.782 267.216C229.782 266.24 230.262 265.4 231.222 264.696C232.198 263.992 233.318 263.624 234.582 263.592V262.944C234.582 261.68 234.278 261.048 233.67 261.048C233.366 261.048 233.086 261.264 232.83 261.696C232.59 262.112 232.414 262.592 232.302 263.136L230.094 262.92ZM232.23 267.36C232.23 267.872 232.534 268.128 233.142 268.128C233.558 268.128 233.998 268.032 234.462 267.84L234.51 265.824C233.758 265.888 233.19 266.08 232.806 266.4C232.422 266.704 232.23 267.024 232.23 267.36ZM246.19 258.576C248.302 258.576 249.358 260.336 249.358 263.856C249.358 265.712 249.254 267.68 249.046 269.76L246.238 269.496C246.414 267.672 246.502 265.832 246.502 263.976C246.502 262.104 246.238 261.168 245.71 261.168C245.454 261.168 245.126 261.816 244.726 263.112C244.326 264.392 244.078 265.648 243.982 266.88C244.014 267.536 244.078 268.72 244.174 270.432L241.366 270.168C241.19 267.912 241.102 265.928 241.102 264.216C241.102 262.504 241.15 260.968 241.246 259.608L243.022 259.8C243.054 259.928 243.174 260.448 243.382 261.36C244.31 259.504 245.246 258.576 246.19 258.576ZM256.505 273.216C257.001 273.216 257.401 272.704 257.705 271.68C258.009 270.672 258.161 269.416 258.161 267.912C257.313 269.432 256.433 270.192 255.521 270.192C254.625 270.192 253.897 269.888 253.337 269.28C252.793 268.656 252.521 267.72 252.521 266.472C252.521 265.208 252.737 263.96 253.169 262.728C253.601 261.48 254.129 260.488 254.753 259.752C255.393 259 256.001 258.624 256.577 258.624C257.585 258.624 258.513 259.032 259.361 259.848L261.041 260.088C260.833 261.128 260.729 262.728 260.729 264.888C260.729 267.032 260.665 268.616 260.537 269.64C260.425 270.648 260.233 271.64 259.961 272.616C259.689 273.592 259.289 274.368 258.761 274.944C258.233 275.52 257.537 275.808 256.673 275.808C255.809 275.808 254.985 275.456 254.201 274.752C253.417 274.064 252.785 273.232 252.305 272.256L254.321 271.392C254.945 272.608 255.673 273.216 256.505 273.216ZM257.177 261.072C256.777 261.072 256.369 261.648 255.953 262.8C255.553 263.952 255.353 265.176 255.353 266.472C255.353 266.968 255.417 267.344 255.545 267.6C255.689 267.856 255.841 267.984 256.001 267.984C256.177 267.984 256.401 267.824 256.673 267.504C256.945 267.184 257.233 266.672 257.537 265.968C257.857 265.264 258.089 264.488 258.233 263.64L258.281 261.816C257.817 261.32 257.449 261.072 257.177 261.072ZM276.989 270.816C275.469 270.816 274.181 270.136 273.125 268.776C272.085 267.4 271.565 265.32 271.565 262.536C271.565 259.736 272.133 257.456 273.269 255.696C274.421 253.936 275.773 253.056 277.325 253.056C278.877 253.056 280.165 253.744 281.189 255.12C282.229 256.496 282.749 258.568 282.749 261.336C282.749 264.104 282.173 266.376 281.021 268.152C279.869 269.928 278.525 270.816 276.989 270.816ZM277.349 255.912C276.645 255.912 276.037 256.536 275.525 257.784C275.013 259.016 274.757 260.576 274.757 262.464C274.757 264.336 274.973 265.728 275.405 266.64C275.853 267.536 276.405 267.984 277.061 267.984C277.717 267.984 278.293 267.36 278.789 266.112C279.301 264.864 279.557 263.304 279.557 261.432C279.557 259.544 279.341 258.152 278.909 257.256C278.493 256.36 277.973 255.912 277.349 255.912ZM286.649 259.32C286.649 257.16 286.969 255.464 287.609 254.232C288.265 252.984 289.097 252.36 290.105 252.36C291.129 252.36 291.905 252.88 292.433 253.92C292.977 254.944 293.249 256.36 293.249 258.168L291.017 257.928C291.017 256.136 290.737 255.24 290.177 255.24C289.697 255.24 289.457 256.6 289.457 259.32V260.016C290.529 259.936 291.401 259.896 292.073 259.896V262.128C290.969 262.128 290.105 262.168 289.481 262.248C289.481 264.696 289.569 267.416 289.745 270.408L286.937 270.12C286.809 267.912 286.721 265.416 286.673 262.632C286.257 262.696 285.969 262.752 285.809 262.8L285.305 260.64C285.465 260.592 285.913 260.504 286.649 260.376V259.32ZM306.6 253.392C306.456 255.92 306.384 258.768 306.384 261.936C306.384 265.104 306.488 267.992 306.696 270.6L303.456 270.312C303.248 267.048 303.144 264.104 303.144 261.48C303.144 258.84 303.216 256.048 303.36 253.104L306.6 253.392ZM316.465 259.968V262.248C315.697 262.248 315.105 262.256 314.689 262.272C314.641 263.872 314.617 266.56 314.617 270.336L311.785 270.072C311.785 267.272 311.809 264.736 311.857 262.464C311.617 262.464 311.161 262.504 310.489 262.584L310.129 260.616C310.513 260.536 311.113 260.432 311.929 260.304C311.961 259.12 312.025 257.392 312.121 255.12L314.977 255.384C314.881 256.968 314.809 258.504 314.761 259.992C315.161 259.976 315.729 259.968 316.465 259.968ZM320.452 265.296C320.164 262.912 320.02 260.744 320.02 258.792C320.02 256.824 320.172 254.712 320.476 252.456L323.98 253.128C323.18 256.232 322.644 260.368 322.372 265.536L320.452 265.296ZM322.732 266.784C322.908 267.104 322.996 267.664 322.996 268.464C322.996 269.264 322.868 269.96 322.612 270.552L319.756 270C319.916 269.408 319.996 268.792 319.996 268.152C319.996 267.496 319.98 266.944 319.948 266.496L322.732 266.784Z" fill="#1C404C"/>
<defs>
<filter id="filter0_d_42_103" x="32.7695" y="91.432" width="477.98" height="98.896" filterUnits="userSpaceOnUse" color-interpolation-filters="sRGB">
<feFlood flood-opacity="0" result="BackgroundImageFix"/>
<feColorMatrix in="SourceAlpha" type="matrix" values="0 0 0 0 0 0 0 0 0 0 0 0 0 0 0 0 0 0 127 0" result="hardAlpha"/>
<feOffset dx="7" dy="2"/>
<feComposite in2="hardAlpha" operator="out"/>
<feColorMatrix type="matrix" values="0 0 0 0 0.803922 0 0 0 0 0.309804 0 0 0 0 0.254902 0 0 0 1 0"/>
<feBlend mode="normal" in2="BackgroundImageFix" result="effect1_dropShadow_42_103"/>
<feBlend mode="normal" in="SourceGraphic" in2="effect1_dropShadow_42_103" result="shape"/>
</filter>
</defs>
</svg>
