<svg width="540" height="388" viewBox="0 0 540 388" fill="none" xmlns="http://www.w3.org/2000/svg">
<path d="M536.124 210.711C536.124 210.711 536.037 103.533 449.737 52.3447C373.558 7.15889 268.672 -2.02018 198.242 50.2298C173.147 68.8472 142.801 88.2495 111.281 101.258C75.9402 115.843 34.6286 122.506 10.5753 170.801C-13.478 219.096 23.7676 289.914 78.3996 314.988C133.032 340.062 218.639 330.743 292.175 320.259C365.712 309.775 529.713 343.701 536.124 210.711Z" fill="#92E3A9"/>
<path opacity="0.7" d="M536.124 210.711C536.124 210.711 536.037 103.533 449.737 52.3447C373.558 7.15889 268.672 -2.02018 198.242 50.2298C173.147 68.8472 142.801 88.2495 111.281 101.258C75.9402 115.843 34.6286 122.506 10.5753 170.801C-13.478 219.096 23.7676 289.914 78.3996 314.988C133.032 340.062 218.639 330.743 292.175 320.259C365.712 309.775 529.713 343.701 536.124 210.711Z" fill="white"/>
<path opacity="0.16" d="M273.807 387.135C370.67 387.135 449.192 380.683 449.192 372.724C449.192 364.766 370.67 358.314 273.807 358.314C176.944 358.314 98.4211 364.766 98.4211 372.724C98.4211 380.683 176.944 387.135 273.807 387.135Z" fill="black"/>
<g filter="url(#filter0_d_42_103)">
<mask id="path-4-outside-1_42_103" maskUnits="userSpaceOnUse" x="2.12402" y="89" width="533" height="102" fill="black">
<rect fill="white" x="2.12402" y="89" width="533" height="102"/>
<path d="M23.287 160.552V150.696C12.1084 127.059 5.92168 110.035 4.72702 99.624L20.727 101.16C22.6043 110.717 26.5297 122.152 32.503 135.464C39.5857 120.019 45.0897 106.067 49.015 93.608L63.863 95.016C57.5484 113.021 49.9537 131.325 41.079 149.928C40.9084 157.608 40.823 164.349 40.823 170.152C40.823 175.955 40.9937 181.8 41.335 187.688L24.439 185.896C23.671 177.96 23.287 169.512 23.287 160.552ZM80.187 161.96C80.187 171.603 82.3203 176.424 86.587 176.424C88.4644 176.424 90.043 173.736 91.323 168.36C92.603 162.899 93.243 157.693 93.243 152.744C93.243 141.821 91.451 136.36 87.867 136.36C85.563 136.36 83.6857 139.304 82.235 145.192C80.8697 150.995 80.187 156.584 80.187 161.96ZM65.211 160.808C65.211 152.872 66.8323 145.107 70.075 137.512C71.7817 133.672 74.171 130.557 77.243 128.168C80.4003 125.693 83.899 124.456 87.739 124.456C91.579 124.456 94.8643 125.352 97.595 127.144C100.411 128.851 102.544 131.155 103.995 134.056C106.811 139.773 108.219 146.003 108.219 152.744C108.219 162.045 106.299 170.323 102.459 177.576C98.7044 184.744 93.4137 188.328 86.587 188.328C72.3363 188.328 65.211 179.155 65.211 160.808ZM166.608 124.968L166.352 145.192C166.352 164.221 166.693 178.216 167.376 187.176L154.704 185.896C154.448 182.312 153.893 178.685 153.04 175.016C148.347 181.928 143.611 185.384 138.832 185.384C134.139 185.384 130.384 183.763 127.568 180.52C124.752 177.277 123.344 172.797 123.344 167.08C123.344 155.987 124.155 142.76 125.776 127.4L140.624 128.808C139.088 143.4 138.32 155.517 138.32 165.16C138.32 169.512 139.685 171.688 142.416 171.688C143.696 171.688 145.232 169.939 147.024 166.44C148.901 162.941 150.395 158.717 151.504 153.768C151.419 151.891 151.376 149.672 151.376 147.112C151.376 144.552 151.504 136.744 151.76 123.688L166.608 124.968ZM231.774 184.232C230.665 166.653 230.11 150.568 230.11 135.976C230.11 121.299 230.579 107.987 231.518 96.04L248.542 97.576C247.262 112.253 246.622 126.291 246.622 139.688C246.622 153.085 246.835 162.941 247.262 169.256C250.334 168.829 257.886 167.976 269.918 166.696L272.478 181.544C266.078 182.312 257.033 183.592 245.342 185.384L231.774 184.232ZM297.527 161.96C297.527 171.603 299.66 176.424 303.927 176.424C305.804 176.424 307.383 173.736 308.663 168.36C309.943 162.899 310.583 157.693 310.583 152.744C310.583 141.821 308.791 136.36 305.207 136.36C302.903 136.36 301.026 139.304 299.575 145.192C298.21 150.995 297.527 156.584 297.527 161.96ZM282.551 160.808C282.551 152.872 284.172 145.107 287.415 137.512C289.122 133.672 291.511 130.557 294.583 128.168C297.74 125.693 301.239 124.456 305.079 124.456C308.919 124.456 312.204 125.352 314.935 127.144C317.751 128.851 319.884 131.155 321.335 134.056C324.151 139.773 325.559 146.003 325.559 152.744C325.559 162.045 323.639 170.323 319.799 177.576C316.044 184.744 310.754 188.328 303.927 188.328C289.676 188.328 282.551 179.155 282.551 160.808ZM353.612 161.96C353.612 171.603 355.745 176.424 360.012 176.424C361.889 176.424 363.468 173.736 364.748 168.36C366.028 162.899 366.668 157.693 366.668 152.744C366.668 141.821 364.876 136.36 361.292 136.36C358.988 136.36 357.111 139.304 355.66 145.192C354.295 150.995 353.612 156.584 353.612 161.96ZM338.636 160.808C338.636 152.872 340.257 145.107 343.5 137.512C345.207 133.672 347.596 130.557 350.668 128.168C353.825 125.693 357.324 124.456 361.164 124.456C365.004 124.456 368.289 125.352 371.02 127.144C373.836 128.851 375.969 131.155 377.42 134.056C380.236 139.773 381.644 146.003 381.644 152.744C381.644 162.045 379.724 170.323 375.884 177.576C372.129 184.744 366.839 188.328 360.012 188.328C345.761 188.328 338.636 179.155 338.636 160.808ZM421.985 144.68C421.985 139.56 420.705 137 418.145 137C416.865 137 415.67 137.64 414.561 138.92C413.537 140.115 413.025 141.779 413.025 143.912C413.025 145.96 413.409 147.667 414.177 149.032C415.03 150.397 416.524 151.763 418.657 153.128C420.876 154.408 422.582 155.475 423.777 156.328C425.057 157.096 426.55 158.205 428.257 159.656C431.756 162.728 433.505 166.696 433.505 171.56C433.505 176.339 431.67 180.221 428.001 183.208C424.417 186.195 420.364 187.688 415.841 187.688C411.318 187.688 407.222 186.493 403.553 184.104C399.969 181.629 397.068 178.557 394.849 174.888L401.761 167.08C405.174 172.968 408.758 175.912 412.513 175.912C413.793 175.912 414.902 175.571 415.841 174.888C416.78 174.12 417.249 173.096 417.249 171.816C417.249 169.085 415.286 166.568 411.361 164.264C407.18 161.96 403.894 159.4 401.505 156.584C399.116 153.768 397.921 149.8 397.921 144.68C397.921 139.475 400.054 134.824 404.321 130.728C408.588 126.547 413.153 124.456 418.017 124.456C422.966 124.456 426.849 126.163 429.665 129.576C432.566 132.904 434.017 137.427 434.017 143.144C434.017 145.448 433.761 147.923 433.249 150.568L421.601 149.544C421.857 147.581 421.985 145.96 421.985 144.68ZM468.536 175.784C471.779 175.784 475.235 172.669 478.904 166.44L488.632 172.2C487.011 175.016 485.432 177.405 483.896 179.368C482.445 181.331 480.227 183.208 477.24 185C474.253 186.792 470.925 187.688 467.256 187.688C461.88 187.688 457.357 185.427 453.688 180.904C450.019 176.296 448.184 170.109 448.184 162.344C448.184 153.469 449.763 145.192 452.92 137.512C454.627 133.501 457.059 130.259 460.216 127.784C463.459 125.224 466.744 123.944 470.072 123.944C473.485 123.944 476.216 124.499 478.264 125.608C480.312 126.632 481.933 127.827 483.128 129.192C484.408 130.472 485.517 132.392 486.456 134.952C487.395 137.512 488.035 139.603 488.376 141.224C488.803 142.845 489.144 145.192 489.4 148.264C489.741 152.36 489.912 156.072 489.912 159.4C483.085 161.277 474.253 162.984 463.416 164.52C463.672 167.933 464.269 170.664 465.208 172.712C466.147 174.76 467.256 175.784 468.536 175.784ZM471.352 136.488C469.475 136.488 467.768 138.365 466.232 142.12C464.781 145.875 463.928 150.227 463.672 155.176C468.195 154.237 472.12 153.341 475.448 152.488C475.448 141.821 474.083 136.488 471.352 136.488ZM512.976 159.912C511.44 147.197 510.672 135.635 510.672 125.224C510.672 114.728 511.483 103.464 513.104 91.432L531.792 95.016C527.525 111.571 524.667 133.629 523.216 161.192L512.976 159.912ZM525.136 167.848C526.075 169.555 526.544 172.541 526.544 176.808C526.544 181.075 525.861 184.787 524.496 187.944L509.264 185C510.117 181.843 510.544 178.557 510.544 175.144C510.544 171.645 510.459 168.701 510.288 166.312L525.136 167.848Z"/>
</mask>
<path d="M23.287 160.552V150.696C12.1084 127.059 5.92168 110.035 4.72702 99.624L20.727 101.16C22.6043 110.717 26.5297 122.152 32.503 135.464C39.5857 120.019 45.0897 106.067 49.015 93.608L63.863 95.016C57.5484 113.021 49.9537 131.325 41.079 149.928C40.9084 157.608 40.823 164.349 40.823 170.152C40.823 175.955 40.9937 181.8 41.335 187.688L24.439 185.896C23.671 177.96 23.287 169.512 23.287 160.552ZM80.187 161.96C80.187 171.603 82.3203 176.424 86.587 176.424C88.4644 176.424 90.043 173.736 91.323 168.36C92.603 162.899 93.243 157.693 93.243 152.744C93.243 141.821 91.451 136.36 87.867 136.36C85.563 136.36 83.6857 139.304 82.235 145.192C80.8697 150.995 80.187 156.584 80.187 161.96ZM65.211 160.808C65.211 152.872 66.8323 145.107 70.075 137.512C71.7817 133.672 74.171 130.557 77.243 128.168C80.4003 125.693 83.899 124.456 87.739 124.456C91.579 124.456 94.8643 125.352 97.595 127.144C100.411 128.851 102.544 131.155 103.995 134.056C106.811 139.773 108.219 146.003 108.219 152.744C108.219 162.045 106.299 170.323 102.459 177.576C98.7044 184.744 93.4137 188.328 86.587 188.328C72.3363 188.328 65.211 179.155 65.211 160.808ZM166.608 124.968L166.352 145.192C166.352 164.221 166.693 178.216 167.376 187.176L154.704 185.896C154.448 182.312 153.893 178.685 153.04 175.016C148.347 181.928 143.611 185.384 138.832 185.384C134.139 185.384 130.384 183.763 127.568 180.52C124.752 177.277 123.344 172.797 123.344 167.08C123.344 155.987 124.155 142.76 125.776 127.4L140.624 128.808C139.088 143.4 138.32 155.517 138.32 165.16C138.32 169.512 139.685 171.688 142.416 171.688C143.696 171.688 145.232 169.939 147.024 166.44C148.901 162.941 150.395 158.717 151.504 153.768C151.419 151.891 151.376 149.672 151.376 147.112C151.376 144.552 151.504 136.744 151.76 123.688L166.608 124.968ZM231.774 184.232C230.665 166.653 230.11 150.568 230.11 135.976C230.11 121.299 230.579 107.987 231.518 96.04L248.542 97.576C247.262 112.253 246.622 126.291 246.622 139.688C246.622 153.085 246.835 162.941 247.262 169.256C250.334 168.829 257.886 167.976 269.918 166.696L272.478 181.544C266.078 182.312 257.033 183.592 245.342 185.384L231.774 184.232ZM297.527 161.96C297.527 171.603 299.66 176.424 303.927 176.424C305.804 176.424 307.383 173.736 308.663 168.36C309.943 162.899 310.583 157.693 310.583 152.744C310.583 141.821 308.791 136.36 305.207 136.36C302.903 136.36 301.026 139.304 299.575 145.192C298.21 150.995 297.527 156.584 297.527 161.96ZM282.551 160.808C282.551 152.872 284.172 145.107 287.415 137.512C289.122 133.672 291.511 130.557 294.583 128.168C297.74 125.693 301.239 124.456 305.079 124.456C308.919 124.456 312.204 125.352 314.935 127.144C317.751 128.851 319.884 131.155 321.335 134.056C324.151 139.773 325.559 146.003 325.559 152.744C325.559 162.045 323.639 170.323 319.799 177.576C316.044 184.744 310.754 188.328 303.927 188.328C289.676 188.328 282.551 179.155 282.551 160.808ZM353.612 161.96C353.612 171.603 355.745 176.424 360.012 176.424C361.889 176.424 363.468 173.736 364.748 168.36C366.028 162.899 366.668 157.693 366.668 152.744C366.668 141.821 364.876 136.36 361.292 136.36C358.988 136.36 357.111 139.304 355.66 145.192C354.295 150.995 353.612 156.584 353.612 161.96ZM338.636 160.808C338.636 152.872 340.257 145.107 343.5 137.512C345.207 133.672 347.596 130.557 350.668 128.168C353.825 125.693 357.324 124.456 361.164 124.456C365.004 124.456 368.289 125.352 371.02 127.144C373.836 128.851 375.969 131.155 377.42 134.056C380.236 139.773 381.644 146.003 381.644 152.744C381.644 162.045 379.724 170.323 375.884 177.576C372.129 184.744 366.839 188.328 360.012 188.328C345.761 188.328 338.636 179.155 338.636 160.808ZM421.985 144.68C421.985 139.56 420.705 137 418.145 137C416.865 137 415.67 137.64 414.561 138.92C413.537 140.115 413.025 141.779 413.025 143.912C413.025 145.96 413.409 147.667 414.177 149.032C415.03 150.397 416.524 151.763 418.657 153.128C420.876 154.408 422.582 155.475 423.777 156.328C425.057 157.096 426.55 158.205 428.257 159.656C431.756 162.728 433.505 166.696 433.505 171.56C433.505 176.339 431.67 180.221 428.001 183.208C424.417 186.195 420.364 187.688 415.841 187.688C411.318 187.688 407.222 186.493 403.553 184.104C399.969 181.629 397.068 178.557 394.849 174.888L401.761 167.08C405.174 172.968 408.758 175.912 412.513 175.912C413.793 175.912 414.902 175.571 415.841 174.888C416.78 174.12 417.249 173.096 417.249 171.816C417.249 169.085 415.286 166.568 411.361 164.264C407.18 161.96 403.894 159.4 401.505 156.584C399.116 153.768 397.921 149.8 397.921 144.68C397.921 139.475 400.054 134.824 404.321 130.728C408.588 126.547 413.153 124.456 418.017 124.456C422.966 124.456 426.849 126.163 429.665 129.576C432.566 132.904 434.017 137.427 434.017 143.144C434.017 145.448 433.761 147.923 433.249 150.568L421.601 149.544C421.857 147.581 421.985 145.96 421.985 144.68ZM468.536 175.784C471.779 175.784 475.235 172.669 478.904 166.44L488.632 172.2C487.011 175.016 485.432 177.405 483.896 179.368C482.445 181.331 480.227 183.208 477.24 185C474.253 186.792 470.925 187.688 467.256 187.688C461.88 187.688 457.357 185.427 453.688 180.904C450.019 176.296 448.184 170.109 448.184 162.344C448.184 153.469 449.763 145.192 452.92 137.512C454.627 133.501 457.059 130.259 460.216 127.784C463.459 125.224 466.744 123.944 470.072 123.944C473.485 123.944 476.216 124.499 478.264 125.608C480.312 126.632 481.933 127.827 483.128 129.192C484.408 130.472 485.517 132.392 486.456 134.952C487.395 137.512 488.035 139.603 488.376 141.224C488.803 142.845 489.144 145.192 489.4 148.264C489.741 152.36 489.912 156.072 489.912 159.4C483.085 161.277 474.253 162.984 463.416 164.52C463.672 167.933 464.269 170.664 465.208 172.712C466.147 174.76 467.256 175.784 468.536 175.784ZM471.352 136.488C469.475 136.488 467.768 138.365 466.232 142.12C464.781 145.875 463.928 150.227 463.672 155.176C468.195 154.237 472.12 153.341 475.448 152.488C475.448 141.821 474.083 136.488 471.352 136.488ZM512.976 159.912C511.44 147.197 510.672 135.635 510.672 125.224C510.672 114.728 511.483 103.464 513.104 91.432L531.792 95.016C527.525 111.571 524.667 133.629 523.216 161.192L512.976 159.912ZM525.136 167.848C526.075 169.555 526.544 172.541 526.544 176.808C526.544 181.075 525.861 184.787 524.496 187.944L509.264 185C510.117 181.843 510.544 178.557 510.544 175.144C510.544 171.645 510.459 168.701 510.288 166.312L525.136 167.848Z" fill="#1C404C"/>
<path d="M23.287 150.696H25.287V150.247L25.095 149.841L23.287 150.696ZM4.72702 99.624L4.91814 97.6331L2.45833 97.397L2.74006 99.852L4.72702 99.624ZM20.727 101.16L22.6895 100.775L22.4022 99.3116L20.9181 99.1691L20.727 101.16ZM32.503 135.464L30.6783 136.283L32.4833 140.305L34.321 136.298L32.503 135.464ZM49.015 93.608L49.2038 91.6169L47.5935 91.4642L47.1075 93.007L49.015 93.608ZM63.863 95.016L65.7503 95.6779L66.5961 93.2662L64.0518 93.0249L63.863 95.016ZM41.079 149.928L39.2739 149.067L39.0891 149.454L39.0795 149.884L41.079 149.928ZM41.335 187.688L41.1241 189.677L43.4681 189.925L43.3317 187.572L41.335 187.688ZM24.439 185.896L22.4483 186.089L22.6055 187.713L24.2281 187.885L24.439 185.896ZM25.287 160.552V150.696H21.287V160.552H25.287ZM25.095 149.841C13.911 126.192 7.86661 109.44 6.71398 99.396L2.74006 99.852C3.97675 110.629 10.3057 127.925 21.479 151.551L25.095 149.841ZM4.53589 101.615L20.5359 103.151L20.9181 99.1691L4.91814 97.6331L4.53589 101.615ZM18.7645 101.545C20.6818 111.306 24.6703 122.893 30.6783 136.283L34.3277 134.645C28.3891 121.411 24.5269 110.129 22.6895 100.775L18.7645 101.545ZM34.321 136.298C41.4286 120.798 46.9661 106.766 50.9226 94.209L47.1075 93.007C43.2132 105.367 37.7427 119.239 30.685 134.63L34.321 136.298ZM48.8262 95.5991L63.6742 97.0071L64.0518 93.0249L49.2038 91.6169L48.8262 95.5991ZM61.9757 94.3541C55.6867 112.286 48.1201 130.524 39.2739 149.067L42.8841 150.789C51.7873 132.127 59.41 113.756 65.7503 95.6779L61.9757 94.3541ZM39.0795 149.884C38.9086 157.574 38.823 164.331 38.823 170.152H42.823C42.823 164.368 42.9081 157.642 43.0785 149.972L39.0795 149.884ZM38.823 170.152C38.823 175.994 38.9948 181.878 39.3384 187.804L43.3317 187.572C42.9925 181.722 42.823 175.915 42.823 170.152H38.823ZM41.546 185.699L24.65 183.907L24.2281 187.885L41.1241 189.677L41.546 185.699ZM26.4297 185.703C25.6686 177.839 25.287 169.455 25.287 160.552H21.287C21.287 169.569 21.6734 178.081 22.4483 186.089L26.4297 185.703ZM91.323 168.36L93.2686 168.823L93.2702 168.816L91.323 168.36ZM82.235 145.192L80.2931 144.714L80.2906 144.724L80.2882 144.734L82.235 145.192ZM70.075 137.512L68.2474 136.7L68.2414 136.713L68.2357 136.727L70.075 137.512ZM77.243 128.168L78.4709 129.747L78.4768 129.742L77.243 128.168ZM97.595 127.144L96.4977 128.816L96.5277 128.836L96.5584 128.854L97.595 127.144ZM103.995 134.056L105.789 133.172L105.784 133.162L103.995 134.056ZM102.459 177.576L100.691 176.64L100.687 176.648L102.459 177.576ZM78.187 161.96C78.187 166.867 78.7204 170.82 79.9581 173.617C80.5871 175.039 81.4387 176.255 82.5836 177.117C83.7537 177.999 85.1162 178.424 86.587 178.424V174.424C85.9245 174.424 85.4204 174.246 84.9904 173.923C84.5354 173.58 84.0536 172.988 83.616 171.999C82.7203 169.974 82.187 166.696 82.187 161.96H78.187ZM86.587 178.424C88.6138 178.424 90.0011 176.958 90.9036 175.421C91.8425 173.822 92.6123 171.58 93.2686 168.823L89.3774 167.897C88.7537 170.516 88.0942 172.306 87.4544 173.395C86.7783 174.546 86.4376 174.424 86.587 174.424V178.424ZM93.2702 168.816C94.5807 163.225 95.243 157.866 95.243 152.744H91.243C91.243 157.521 90.6253 162.572 89.3758 167.904L93.2702 168.816ZM95.243 152.744C95.243 147.225 94.7966 142.872 93.7993 139.832C92.8235 136.858 91.0059 134.36 87.867 134.36V138.36C88.3121 138.36 89.1826 138.592 89.9987 141.08C90.7934 143.501 91.243 147.34 91.243 152.744H95.243ZM87.867 134.36C85.727 134.36 84.1494 135.76 83.0447 137.493C81.9332 139.236 81.0381 141.69 80.2931 144.714L84.1769 145.67C84.8826 142.806 85.6515 140.844 86.4173 139.643C87.1899 138.432 87.7031 138.36 87.867 138.36V134.36ZM80.2882 144.734C78.8913 150.671 78.187 156.414 78.187 161.96H82.187C82.187 156.754 82.8481 151.319 84.1818 145.65L80.2882 144.734ZM67.211 160.808C67.211 153.153 68.7733 145.654 71.9144 138.297L68.2357 136.727C64.8914 144.559 63.211 152.591 63.211 160.808H67.211ZM71.9026 138.324C73.4865 134.761 75.6793 131.918 78.4709 129.747L76.0151 126.589C72.6627 129.197 70.0769 132.583 68.2474 136.7L71.9026 138.324ZM78.4768 129.742C81.299 127.53 84.3674 126.456 87.739 126.456V122.456C83.4307 122.456 79.5017 123.857 76.0093 126.594L78.4768 129.742ZM87.739 126.456C91.2589 126.456 94.1469 127.273 96.4977 128.816L98.6923 125.472C95.5818 123.431 91.8991 122.456 87.739 122.456V126.456ZM96.5584 128.854C99.0569 130.369 100.927 132.392 102.206 134.95L105.784 133.162C104.162 129.917 101.765 127.333 98.6316 125.434L96.5584 128.854ZM102.201 134.94C104.874 140.366 106.219 146.291 106.219 152.744H110.219C110.219 145.714 108.748 139.18 105.789 133.172L102.201 134.94ZM106.219 152.744C106.219 161.763 104.359 169.712 100.691 176.64L104.227 178.512C108.239 170.934 110.219 162.328 110.219 152.744H106.219ZM100.687 176.648C97.2006 183.304 92.5168 186.328 86.587 186.328V190.328C94.3106 190.328 100.208 186.184 104.231 178.504L100.687 176.648ZM86.587 186.328C79.9239 186.328 75.2322 184.209 72.1345 180.221C68.9623 176.137 67.211 169.778 67.211 160.808H63.211C63.211 170.185 65.0224 177.586 68.9755 182.675C73.0032 187.86 78.9994 190.328 86.587 190.328V186.328ZM166.608 124.968L168.608 124.993L168.631 123.135L166.78 122.975L166.608 124.968ZM166.352 145.192L164.352 145.167L164.352 145.179V145.192H166.352ZM167.376 187.176L167.175 189.166L169.552 189.406L169.37 187.024L167.376 187.176ZM154.704 185.896L152.709 186.038L152.829 187.717L154.503 187.886L154.704 185.896ZM153.04 175.016L154.988 174.563L153.953 170.111L151.385 173.892L153.04 175.016ZM127.568 180.52L126.058 181.831L127.568 180.52ZM125.776 127.4L125.965 125.409L123.995 125.222L123.787 127.19L125.776 127.4ZM140.624 128.808L142.613 129.017L142.825 127.008L140.813 126.817L140.624 128.808ZM147.024 166.44L145.262 165.494L145.253 165.511L145.244 165.528L147.024 166.44ZM151.504 153.768L153.456 154.205L153.514 153.944L153.502 153.677L151.504 153.768ZM151.76 123.688L151.932 121.695L149.802 121.512L149.76 123.649L151.76 123.688ZM164.608 124.943L164.352 145.167L168.352 145.217L168.608 124.993L164.608 124.943ZM164.352 145.192C164.352 164.229 164.693 178.288 165.382 187.328L169.37 187.024C168.694 178.144 168.352 164.214 168.352 145.192H164.352ZM167.577 185.186L154.905 183.906L154.503 187.886L167.175 189.166L167.577 185.186ZM156.699 185.754C156.435 182.06 155.864 178.33 154.988 174.563L151.092 175.469C151.923 179.041 152.461 182.564 152.709 186.038L156.699 185.754ZM151.385 173.892C146.79 180.661 142.576 183.384 138.832 183.384V187.384C144.646 187.384 149.904 183.195 154.695 176.14L151.385 173.892ZM138.832 183.384C134.657 183.384 131.476 181.97 129.078 179.209L126.058 181.831C129.292 185.555 133.62 187.384 138.832 187.384V183.384ZM129.078 179.209C126.67 176.436 125.344 172.477 125.344 167.08H121.344C121.344 173.118 122.834 178.119 126.058 181.831L129.078 179.209ZM125.344 167.08C125.344 156.078 126.148 142.925 127.765 127.61L123.787 127.19C122.161 142.595 121.344 155.895 121.344 167.08H125.344ZM125.587 129.391L140.435 130.799L140.813 126.817L125.965 125.409L125.587 129.391ZM138.635 128.599C137.095 143.228 136.32 155.421 136.32 165.16H140.32C140.32 155.613 141.081 143.572 142.613 129.017L138.635 128.599ZM136.32 165.16C136.32 167.48 136.672 169.561 137.65 171.119C138.725 172.833 140.415 173.688 142.416 173.688V169.688C141.687 169.688 141.328 169.455 141.038 168.993C140.65 168.375 140.32 167.192 140.32 165.16H136.32ZM142.416 173.688C143.958 173.688 145.171 172.674 146.031 171.696C146.957 170.641 147.877 169.162 148.804 167.352L145.244 165.528C144.379 167.217 143.635 168.362 143.025 169.056C142.349 169.827 142.154 169.688 142.416 169.688V173.688ZM148.786 167.386C150.769 163.69 152.317 159.286 153.456 154.205L149.552 153.331C148.472 158.149 147.033 162.193 145.262 165.494L148.786 167.386ZM153.502 153.677C153.418 151.839 153.376 149.652 153.376 147.112H149.376C149.376 149.692 149.419 151.943 149.506 153.859L153.502 153.677ZM153.376 147.112C153.376 144.577 153.503 136.794 153.76 123.727L149.76 123.649C149.505 136.694 149.376 144.527 149.376 147.112H153.376ZM151.588 125.681L166.436 126.961L166.78 122.975L151.932 121.695L151.588 125.681ZM231.774 184.232L229.778 184.358L229.887 186.079L231.605 186.225L231.774 184.232ZM231.518 96.04L231.698 94.0481L229.683 93.8663L229.524 95.8833L231.518 96.04ZM248.542 97.576L250.534 97.7498L250.708 95.7633L248.722 95.5841L248.542 97.576ZM247.262 169.256L245.267 169.391L245.411 171.532L247.537 171.237L247.262 169.256ZM269.918 166.696L271.889 166.356L271.57 164.509L269.706 164.707L269.918 166.696ZM272.478 181.544L272.716 183.53L274.807 183.279L274.449 181.204L272.478 181.544ZM245.342 185.384L245.173 187.377L245.41 187.397L245.645 187.361L245.342 185.384ZM233.77 184.106C232.663 166.561 232.11 150.518 232.11 135.976H228.11C228.11 150.618 228.667 166.746 229.778 184.358L233.77 184.106ZM232.11 135.976C232.11 121.34 232.578 108.081 233.512 96.1967L229.524 95.8833C228.581 107.892 228.11 121.257 228.11 135.976H232.11ZM231.338 98.0319L248.362 99.5679L248.722 95.5841L231.698 94.0481L231.338 98.0319ZM246.55 97.4022C245.265 112.132 244.622 126.227 244.622 139.688H248.622C248.622 126.354 249.259 112.375 250.534 97.7498L246.55 97.4022ZM244.622 139.688C244.622 153.092 244.835 163.005 245.267 169.391L249.257 169.121C248.836 162.878 248.622 153.078 248.622 139.688H244.622ZM247.537 171.237C250.57 170.816 258.086 169.966 270.13 168.685L269.706 164.707C257.686 165.986 250.098 166.843 246.987 167.275L247.537 171.237ZM267.947 167.036L270.507 181.884L274.449 181.204L271.889 166.356L267.947 167.036ZM272.24 179.558C265.807 180.33 256.737 181.614 245.039 183.407L245.645 187.361C257.329 185.57 266.349 184.294 272.716 183.53L272.24 179.558ZM245.511 183.391L231.943 182.239L231.605 186.225L245.173 187.377L245.511 183.391ZM308.663 168.36L310.609 168.823L310.61 168.816L308.663 168.36ZM299.575 145.192L297.633 144.714L297.631 144.724L297.628 144.734L299.575 145.192ZM287.415 137.512L285.587 136.7L285.581 136.713L285.576 136.727L287.415 137.512ZM294.583 128.168L295.811 129.747L295.817 129.742L294.583 128.168ZM314.935 127.144L313.838 128.816L313.868 128.836L313.898 128.854L314.935 127.144ZM321.335 134.056L323.129 133.172L323.124 133.162L321.335 134.056ZM319.799 177.576L318.031 176.64L318.027 176.648L319.799 177.576ZM295.527 161.96C295.527 166.867 296.06 170.82 297.298 173.617C297.927 175.039 298.779 176.255 299.924 177.117C301.094 177.999 302.456 178.424 303.927 178.424V174.424C303.264 174.424 302.76 174.246 302.33 173.923C301.875 173.58 301.394 172.988 300.956 171.999C300.06 169.974 299.527 166.696 299.527 161.96H295.527ZM303.927 178.424C305.954 178.424 307.341 176.958 308.244 175.421C309.182 173.822 309.952 171.58 310.609 168.823L306.717 167.897C306.094 170.516 305.434 172.306 304.794 173.395C304.118 174.546 303.778 174.424 303.927 174.424V178.424ZM310.61 168.816C311.921 163.225 312.583 157.866 312.583 152.744H308.583C308.583 157.521 307.965 162.572 306.716 167.904L310.61 168.816ZM312.583 152.744C312.583 147.225 312.137 142.872 311.139 139.832C310.163 136.858 308.346 134.36 305.207 134.36V138.36C305.652 138.36 306.523 138.592 307.339 141.08C308.133 143.501 308.583 147.34 308.583 152.744H312.583ZM305.207 134.36C303.067 134.36 301.489 135.76 300.385 137.493C299.273 139.236 298.378 141.69 297.633 144.714L301.517 145.67C302.223 142.806 302.991 140.844 303.757 139.643C304.53 138.432 305.043 138.36 305.207 138.36V134.36ZM297.628 144.734C296.231 150.671 295.527 156.414 295.527 161.96H299.527C299.527 156.754 300.188 151.319 301.522 145.65L297.628 144.734ZM284.551 160.808C284.551 153.153 286.113 145.654 289.254 138.297L285.576 136.727C282.231 144.559 280.551 152.591 280.551 160.808H284.551ZM289.243 138.324C290.826 134.761 293.019 131.918 295.811 129.747L293.355 126.589C290.003 129.197 287.417 132.583 285.587 136.7L289.243 138.324ZM295.817 129.742C298.639 127.53 301.707 126.456 305.079 126.456V122.456C300.771 122.456 296.842 123.857 293.349 126.594L295.817 129.742ZM305.079 126.456C308.599 126.456 311.487 127.273 313.838 128.816L316.032 125.472C312.922 123.431 309.239 122.456 305.079 122.456V126.456ZM313.898 128.854C316.397 130.369 318.267 132.392 319.546 134.95L323.124 133.162C321.502 129.917 319.105 127.333 315.972 125.434L313.898 128.854ZM319.541 134.94C322.214 140.366 323.559 146.291 323.559 152.744H327.559C327.559 145.714 326.088 139.18 323.129 133.172L319.541 134.94ZM323.559 152.744C323.559 161.763 321.699 169.712 318.031 176.64L321.567 178.512C325.579 170.934 327.559 162.328 327.559 152.744H323.559ZM318.027 176.648C314.541 183.304 309.857 186.328 303.927 186.328V190.328C311.651 190.328 317.548 186.184 321.571 178.504L318.027 176.648ZM303.927 186.328C297.264 186.328 292.572 184.209 289.474 180.221C286.302 176.137 284.551 169.778 284.551 160.808H280.551C280.551 170.185 282.362 177.586 286.316 182.675C290.343 187.86 296.339 190.328 303.927 190.328V186.328ZM364.748 168.36L366.694 168.823L366.695 168.816L364.748 168.36ZM355.66 145.192L353.718 144.714L353.716 144.724L353.713 144.734L355.66 145.192ZM343.5 137.512L341.672 136.7L341.666 136.713L341.661 136.727L343.5 137.512ZM350.668 128.168L351.896 129.747L351.902 129.742L350.668 128.168ZM371.02 127.144L369.923 128.816L369.953 128.836L369.983 128.854L371.02 127.144ZM377.42 134.056L379.214 133.172L379.209 133.162L377.42 134.056ZM375.884 177.576L374.116 176.64L374.112 176.648L375.884 177.576ZM351.612 161.96C351.612 166.867 352.145 170.82 353.383 173.617C354.012 175.039 354.864 176.255 356.009 177.117C357.179 177.999 358.541 178.424 360.012 178.424V174.424C359.35 174.424 358.845 174.246 358.415 173.923C357.96 173.58 357.479 172.988 357.041 171.999C356.145 169.974 355.612 166.696 355.612 161.96H351.612ZM360.012 178.424C362.039 178.424 363.426 176.958 364.329 175.421C365.267 173.822 366.037 171.58 366.694 168.823L362.802 167.897C362.179 170.516 361.519 172.306 360.879 173.395C360.203 174.546 359.863 174.424 360.012 174.424V178.424ZM366.695 168.816C368.006 163.225 368.668 157.866 368.668 152.744H364.668C364.668 157.521 364.05 162.572 362.801 167.904L366.695 168.816ZM368.668 152.744C368.668 147.225 368.222 142.872 367.224 139.832C366.248 136.858 364.431 134.36 361.292 134.36V138.36C361.737 138.36 362.608 138.592 363.424 141.08C364.218 143.501 364.668 147.34 364.668 152.744H368.668ZM361.292 134.36C359.152 134.36 357.574 135.76 356.47 137.493C355.358 139.236 354.463 141.69 353.718 144.714L357.602 145.67C358.308 142.806 359.076 140.844 359.842 139.643C360.615 138.432 361.128 138.36 361.292 138.36V134.36ZM353.713 144.734C352.316 150.671 351.612 156.414 351.612 161.96H355.612C355.612 156.754 356.273 151.319 357.607 145.65L353.713 144.734ZM340.636 160.808C340.636 153.153 342.198 145.654 345.339 138.297L341.661 136.727C338.316 144.559 336.636 152.591 336.636 160.808H340.636ZM345.328 138.324C346.911 134.761 349.104 131.918 351.896 129.747L349.44 126.589C346.088 129.197 343.502 132.583 341.672 136.7L345.328 138.324ZM351.902 129.742C354.724 127.53 357.792 126.456 361.164 126.456V122.456C356.856 122.456 352.927 123.857 349.434 126.594L351.902 129.742ZM361.164 126.456C364.684 126.456 367.572 127.273 369.923 128.816L372.117 125.472C369.007 123.431 365.324 122.456 361.164 122.456V126.456ZM369.983 128.854C372.482 130.369 374.352 132.392 375.631 134.95L379.209 133.162C377.587 129.917 375.19 127.333 372.057 125.434L369.983 128.854ZM375.626 134.94C378.299 140.366 379.644 146.291 379.644 152.744H383.644C383.644 145.714 382.173 139.18 379.214 133.172L375.626 134.94ZM379.644 152.744C379.644 161.763 377.784 169.712 374.116 176.64L377.652 178.512C381.664 170.934 383.644 162.328 383.644 152.744H379.644ZM374.112 176.648C370.626 183.304 365.942 186.328 360.012 186.328V190.328C367.736 190.328 373.633 186.184 377.656 178.504L374.112 176.648ZM360.012 186.328C353.349 186.328 348.657 184.209 345.56 180.221C342.387 176.137 340.636 169.778 340.636 160.808H336.636C336.636 170.185 338.447 177.586 342.401 182.675C346.428 187.86 352.424 190.328 360.012 190.328V186.328ZM414.561 138.92L413.05 137.61L413.043 137.618L414.561 138.92ZM414.177 149.032L412.434 150.013L412.457 150.053L412.481 150.092L414.177 149.032ZM418.657 153.128L417.579 154.813L417.618 154.837L417.658 154.86L418.657 153.128ZM423.777 156.328L422.615 157.955L422.68 158.002L422.748 158.043L423.777 156.328ZM428.257 159.656L429.577 158.153L429.565 158.143L429.552 158.132L428.257 159.656ZM428.001 183.208L426.738 181.657L426.73 181.664L426.721 181.672L428.001 183.208ZM403.553 184.104L402.417 185.75L402.439 185.765L402.462 185.78L403.553 184.104ZM394.849 174.888L393.352 173.562L392.376 174.664L393.138 175.923L394.849 174.888ZM401.761 167.08L403.491 166.077L402.101 163.679L400.263 165.754L401.761 167.08ZM415.841 174.888L417.017 176.505L417.063 176.472L417.107 176.436L415.841 174.888ZM411.361 164.264L412.373 162.539L412.35 162.525L412.326 162.512L411.361 164.264ZM401.505 156.584L403.03 155.29V155.29L401.505 156.584ZM404.321 130.728L405.706 132.171L405.714 132.164L405.721 132.156L404.321 130.728ZM429.665 129.576L428.122 130.849L428.14 130.87L428.157 130.89L429.665 129.576ZM433.249 150.568L433.074 152.56L434.87 152.718L435.213 150.948L433.249 150.568ZM421.601 149.544L419.618 149.285L419.348 151.354L421.426 151.536L421.601 149.544ZM423.985 144.68C423.985 142.018 423.663 139.723 422.814 138.026C422.375 137.148 421.766 136.37 420.934 135.816C420.09 135.253 419.135 135 418.145 135V139C418.435 139 418.6 139.067 418.716 139.144C418.844 139.23 419.035 139.412 419.236 139.814C419.667 140.676 419.985 142.222 419.985 144.68H423.985ZM418.145 135C416.112 135 414.409 136.042 413.05 137.61L416.072 140.23C416.932 139.238 417.618 139 418.145 139V135ZM413.043 137.618C411.612 139.287 411.025 141.472 411.025 143.912H415.025C415.025 142.086 415.462 140.942 416.08 140.222L413.043 137.618ZM411.025 143.912C411.025 146.201 411.453 148.27 412.434 150.013L415.92 148.051C415.365 147.064 415.025 145.719 415.025 143.912H411.025ZM412.481 150.092C413.556 151.812 415.324 153.369 417.579 154.813L419.735 151.443C417.723 150.156 416.505 148.983 415.873 147.972L412.481 150.092ZM417.658 154.86C419.855 156.128 421.497 157.157 422.615 157.955L424.939 154.701C423.667 153.792 421.897 152.688 419.656 151.396L417.658 154.86ZM422.748 158.043C423.9 158.734 425.302 159.769 426.962 161.18L429.552 158.132C427.799 156.642 426.214 155.458 424.806 154.613L422.748 158.043ZM426.937 161.159C429.982 163.832 431.505 167.242 431.505 171.56H435.505C435.505 166.15 433.529 161.624 429.577 158.153L426.937 161.159ZM431.505 171.56C431.505 175.744 429.936 179.054 426.738 181.657L429.264 184.759C433.405 181.388 435.505 176.933 435.505 171.56H431.505ZM426.721 181.672C423.484 184.369 419.88 185.688 415.841 185.688V189.688C420.847 189.688 425.35 188.02 429.281 184.744L426.721 181.672ZM415.841 185.688C411.692 185.688 407.978 184.599 404.644 182.428L402.462 185.78C406.467 188.388 410.944 189.688 415.841 189.688V185.688ZM404.689 182.458C401.334 180.142 398.63 177.277 396.56 173.853L393.138 175.923C395.505 179.838 398.604 183.117 402.417 185.75L404.689 182.458ZM396.347 176.214L403.259 168.406L400.263 165.754L393.352 173.562L396.347 176.214ZM400.031 168.083C403.512 174.088 407.612 177.912 412.513 177.912V173.912C409.904 173.912 406.837 171.848 403.491 166.077L400.031 168.083ZM412.513 177.912C414.17 177.912 415.702 177.462 417.017 176.505L414.665 173.271C414.103 173.679 413.416 173.912 412.513 173.912V177.912ZM417.107 176.436C418.539 175.265 419.249 173.658 419.249 171.816H415.249C415.249 172.534 415.02 172.975 414.575 173.34L417.107 176.436ZM419.249 171.816C419.249 167.995 416.488 164.954 412.373 162.539L410.349 165.989C414.084 168.182 415.249 170.176 415.249 171.816H419.249ZM412.326 162.512C408.298 160.293 405.224 157.875 403.03 155.29L399.98 157.878C402.565 160.925 406.061 163.627 410.396 166.016L412.326 162.512ZM403.03 155.29C401.048 152.954 399.921 149.508 399.921 144.68H395.921C395.921 150.092 397.184 154.582 399.98 157.878L403.03 155.29ZM399.921 144.68C399.921 140.096 401.774 135.946 405.706 132.171L402.936 129.285C398.335 133.702 395.921 138.854 395.921 144.68H399.921ZM405.721 132.156C409.704 128.253 413.791 126.456 418.017 126.456V122.456C412.515 122.456 407.471 124.84 402.921 129.3L405.721 132.156ZM418.017 126.456C422.449 126.456 425.734 127.954 428.122 130.849L431.208 128.303C427.964 124.371 423.483 122.456 418.017 122.456V126.456ZM428.157 130.89C430.657 133.757 432.017 137.764 432.017 143.144H436.017C436.017 137.089 434.476 132.051 431.173 128.262L428.157 130.89ZM432.017 143.144C432.017 145.301 431.777 147.647 431.285 150.188L435.213 150.948C435.745 148.198 436.017 145.595 436.017 143.144H432.017ZM433.424 148.576L421.776 147.552L421.426 151.536L433.074 152.56L433.424 148.576ZM423.584 149.803C423.846 147.795 423.985 146.08 423.985 144.68H419.985C419.985 145.84 419.868 147.368 419.618 149.285L423.584 149.803ZM478.904 166.44L479.923 164.719L478.198 163.698L477.181 165.425L478.904 166.44ZM488.632 172.2L490.365 173.198L491.351 171.486L489.651 170.479L488.632 172.2ZM483.896 179.368L482.321 178.135L482.304 178.157L482.288 178.179L483.896 179.368ZM453.688 180.904L452.123 182.15L452.129 182.157L452.135 182.164L453.688 180.904ZM452.92 137.512L451.08 136.729L451.075 136.74L451.07 136.752L452.92 137.512ZM460.216 127.784L461.45 129.358L461.455 129.354L460.216 127.784ZM478.264 125.608L477.311 127.367L477.34 127.382L477.37 127.397L478.264 125.608ZM483.128 129.192L481.623 130.509L481.667 130.559L481.714 130.606L483.128 129.192ZM486.456 134.952L484.578 135.641L486.456 134.952ZM488.376 141.224L486.419 141.636L486.429 141.685L486.442 141.733L488.376 141.224ZM489.4 148.264L487.407 148.43L489.4 148.264ZM489.912 159.4L490.442 161.328L491.912 160.924V159.4H489.912ZM463.416 164.52L463.135 162.54L461.282 162.803L461.422 164.67L463.416 164.52ZM465.208 172.712L463.39 173.545L465.208 172.712ZM466.232 142.12L464.381 141.363L464.373 141.381L464.366 141.399L466.232 142.12ZM463.672 155.176L461.675 155.073L461.541 157.661L464.078 157.134L463.672 155.176ZM475.448 152.488L475.945 154.425L477.448 154.04V152.488H475.448ZM468.536 177.784C470.83 177.784 472.962 176.68 474.899 174.934C476.838 173.186 478.74 170.659 480.627 167.455L477.181 165.425C475.399 168.45 473.738 170.595 472.221 171.962C470.702 173.331 469.485 173.784 468.536 173.784V177.784ZM477.885 168.161L487.613 173.921L489.651 170.479L479.923 164.719L477.885 168.161ZM486.899 171.202C485.311 173.959 483.784 176.266 482.321 178.135L485.471 180.601C487.08 178.545 488.71 176.073 490.365 173.198L486.899 171.202ZM482.288 178.179C481.045 179.86 479.061 181.575 476.211 183.285L478.269 186.715C481.393 184.841 483.845 182.801 485.504 180.557L482.288 178.179ZM476.211 183.285C473.552 184.88 470.583 185.688 467.256 185.688V189.688C471.268 189.688 474.955 188.704 478.269 186.715L476.211 183.285ZM467.256 185.688C462.538 185.688 458.567 183.743 455.241 179.644L452.135 182.164C456.148 187.11 461.222 189.688 467.256 189.688V185.688ZM455.253 179.658C451.944 175.503 450.184 169.801 450.184 162.344H446.184C446.184 170.417 448.094 177.089 452.123 182.15L455.253 179.658ZM450.184 162.344C450.184 153.712 451.718 145.695 454.77 138.272L451.07 136.752C447.807 144.689 446.184 153.227 446.184 162.344H450.184ZM454.76 138.295C456.347 134.567 458.581 131.607 461.45 129.358L458.982 126.21C455.537 128.911 452.907 132.435 451.08 136.729L454.76 138.295ZM461.455 129.354C464.432 127.004 467.294 125.944 470.072 125.944V121.944C466.194 121.944 462.485 123.444 458.977 126.214L461.455 129.354ZM470.072 125.944C473.297 125.944 475.661 126.472 477.311 127.367L479.217 123.849C476.771 122.525 473.674 121.944 470.072 121.944V125.944ZM477.37 127.397C479.244 128.334 480.638 129.383 481.623 130.509L484.633 127.875C483.229 126.27 481.38 124.93 479.158 123.819L477.37 127.397ZM481.714 130.606C482.711 131.604 483.694 133.228 484.578 135.641L488.334 134.263C487.341 131.556 486.105 129.34 484.542 127.778L481.714 130.606ZM484.578 135.641C485.502 138.16 486.106 140.149 486.419 141.636L490.333 140.812C489.964 139.056 489.287 136.864 488.334 134.263L484.578 135.641ZM486.442 141.733C486.824 143.185 487.154 145.395 487.407 148.43L491.393 148.098C491.134 144.989 490.781 142.506 490.31 140.715L486.442 141.733ZM487.407 148.43C487.745 152.483 487.912 156.138 487.912 159.4H491.912C491.912 156.006 491.738 152.237 491.393 148.098L487.407 148.43ZM489.382 157.472C482.669 159.318 473.929 161.01 463.135 162.54L463.697 166.5C474.578 164.958 483.502 163.237 490.442 161.328L489.382 157.472ZM461.422 164.67C461.687 168.209 462.315 171.2 463.39 173.545L467.026 171.879C466.224 170.128 465.657 167.657 465.41 164.37L461.422 164.67ZM463.39 173.545C464.393 175.735 465.998 177.784 468.536 177.784V173.784C468.487 173.784 468.356 173.782 468.101 173.546C467.812 173.28 467.434 172.77 467.026 171.879L463.39 173.545ZM471.352 134.488C469.672 134.488 468.277 135.348 467.184 136.551C466.108 137.734 465.191 139.383 464.381 141.363L468.083 142.877C468.809 141.103 469.513 139.935 470.144 139.241C470.757 138.567 471.155 138.488 471.352 138.488V134.488ZM464.366 141.399C462.824 145.391 461.939 149.959 461.675 155.073L465.669 155.279C465.917 150.494 466.739 146.358 468.098 142.841L464.366 141.399ZM464.078 157.134C468.622 156.191 472.579 155.288 475.945 154.425L474.951 150.551C471.661 151.394 467.768 152.283 463.266 153.218L464.078 157.134ZM477.448 152.488C477.448 147.113 477.108 142.909 476.362 139.992C475.991 138.543 475.479 137.245 474.73 136.27C473.937 135.237 472.8 134.488 471.352 134.488V138.488C471.358 138.488 471.354 138.489 471.344 138.486C471.334 138.483 471.331 138.481 471.337 138.484C471.351 138.492 471.431 138.541 471.558 138.706C471.833 139.064 472.175 139.766 472.486 140.984C473.105 143.401 473.448 147.197 473.448 152.488H477.448ZM512.976 159.912L510.99 160.152L511.178 161.703L512.728 161.897L512.976 159.912ZM513.104 91.432L513.481 89.4678L511.404 89.0696L511.122 91.1649L513.104 91.432ZM531.792 95.016L533.729 95.5152L534.26 93.4529L532.169 93.0518L531.792 95.016ZM523.216 161.192L522.968 163.177L525.1 163.443L525.213 161.297L523.216 161.192ZM525.136 167.848L526.888 166.884L526.384 165.966L525.342 165.859L525.136 167.848ZM524.496 187.944L524.117 189.908L525.694 190.213L526.332 188.738L524.496 187.944ZM509.264 185L507.333 184.478L506.772 186.555L508.884 186.964L509.264 185ZM510.288 166.312L510.494 164.323L508.123 164.077L508.293 166.454L510.288 166.312ZM514.962 159.672C513.433 147.02 512.672 135.539 512.672 125.224H508.672C508.672 135.731 509.447 147.375 510.99 160.152L514.962 159.672ZM512.672 125.224C512.672 114.83 513.475 103.656 515.086 91.6991L511.122 91.1649C509.49 103.272 508.672 114.626 508.672 125.224H512.672ZM512.727 93.3962L531.415 96.9802L532.169 93.0518L513.481 89.4678L512.727 93.3962ZM529.855 94.5168C525.542 111.254 522.673 133.462 521.219 161.087L525.213 161.297C526.661 133.797 529.509 111.887 533.729 95.5152L529.855 94.5168ZM523.464 159.207L513.224 157.927L512.728 161.897L522.968 163.177L523.464 159.207ZM523.384 168.812C524.057 170.036 524.544 172.567 524.544 176.808H528.544C528.544 172.516 528.093 169.073 526.888 166.884L523.384 168.812ZM524.544 176.808C524.544 180.865 523.895 184.296 522.66 187.15L526.332 188.738C527.828 185.277 528.544 181.284 528.544 176.808H524.544ZM524.876 185.98L509.644 183.036L508.884 186.964L524.117 189.908L524.876 185.98ZM511.195 185.522C512.096 182.187 512.544 178.726 512.544 175.144H508.544C508.544 178.389 508.139 181.498 507.333 184.478L511.195 185.522ZM512.544 175.144C512.544 171.617 512.458 168.622 512.283 166.17L508.293 166.454C508.459 168.78 508.544 171.673 508.544 175.144H512.544ZM510.082 168.301L524.93 169.837L525.342 165.859L510.494 164.323L510.082 168.301Z" fill="white" mask="url(#path-4-outside-1_42_103)"/>
</g>
<path d="M149.331 241.048C149.171 238.216 149.091 235.752 149.091 233.656C149.091 231.544 149.139 229.344 149.235 227.056L146.307 227.464L145.779 224.68C147.347 224.408 148.899 224.208 150.435 224.08L154.923 223.84L155.379 226.504C154.499 226.552 153.507 226.624 152.403 226.72C152.307 229.024 152.259 231.136 152.259 233.056C152.259 234.976 152.291 237.728 152.355 241.312L149.331 241.048ZM161.681 232.336C161.009 232.336 160.505 233.184 160.169 234.88C160.201 236 160.217 237.072 160.217 238.096C160.217 239.12 160.185 240.272 160.121 241.552L157.337 241.312C157.385 238.96 157.409 237.664 157.409 237.424C157.409 234.464 157.265 232.2 156.977 230.632L158.777 230.824C158.889 231.288 159.017 231.696 159.161 232.048C159.945 230.368 160.737 229.528 161.537 229.528C162.193 229.528 162.769 229.816 163.265 230.392L162.641 232.6C162.385 232.424 162.065 232.336 161.681 232.336ZM172.177 228.976L174.481 230.32C173.153 234.432 171.793 239.888 170.401 246.688L167.761 246.448C168.017 245.184 168.441 243.44 169.033 241.216C167.497 238.272 166.529 234.56 166.129 230.08L168.817 230.344C169.057 233.288 169.441 235.8 169.969 237.88C170.705 234.456 171.441 231.488 172.177 228.976ZM191.957 240.76L191.405 237.424L187.829 237.568L186.917 242.08L183.557 241.792L187.853 224.392L192.293 224.776L195.437 241.048L191.957 240.76ZM189.845 227.536L188.333 235L191.021 234.904L189.845 227.536ZM202.172 244.216C202.668 244.216 203.068 243.704 203.372 242.68C203.676 241.672 203.828 240.416 203.828 238.912C202.98 240.432 202.1 241.192 201.188 241.192C200.292 241.192 199.564 240.888 199.004 240.28C198.46 239.656 198.188 238.72 198.188 237.472C198.188 236.208 198.404 234.96 198.836 233.728C199.268 232.48 199.796 231.488 200.42 230.752C201.06 230 201.668 229.624 202.244 229.624C203.252 229.624 204.18 230.032 205.028 230.848L206.708 231.088C206.5 232.128 206.396 233.728 206.396 235.888C206.396 238.032 206.332 239.616 206.204 240.64C206.092 241.648 205.9 242.64 205.628 243.616C205.356 244.592 204.956 245.368 204.428 245.944C203.9 246.52 203.204 246.808 202.34 246.808C201.476 246.808 200.652 246.456 199.868 245.752C199.084 245.064 198.452 244.232 197.972 243.256L199.988 242.392C200.612 243.608 201.34 244.216 202.172 244.216ZM202.844 232.072C202.444 232.072 202.036 232.648 201.62 233.8C201.22 234.952 201.02 236.176 201.02 237.472C201.02 237.968 201.084 238.344 201.212 238.6C201.356 238.856 201.508 238.984 201.668 238.984C201.844 238.984 202.068 238.824 202.34 238.504C202.612 238.184 202.9 237.672 203.204 236.968C203.524 236.264 203.756 235.488 203.9 234.64L203.948 232.816C203.484 232.32 203.116 232.072 202.844 232.072ZM210.027 233.92C210.267 232.672 210.723 231.616 211.395 230.752C212.067 229.872 212.947 229.432 214.035 229.432C215.123 229.432 215.923 229.888 216.435 230.8C216.963 231.696 217.227 232.976 217.227 234.64C217.227 236.304 217.131 238.6 216.939 241.528L214.923 241.36L214.731 240.592C213.979 241.024 213.211 241.24 212.427 241.24C211.643 241.24 210.995 240.984 210.483 240.472C209.971 239.944 209.715 239.192 209.715 238.216C209.715 237.24 210.195 236.4 211.155 235.696C212.131 234.992 213.251 234.624 214.515 234.592V233.944C214.515 232.68 214.211 232.048 213.603 232.048C213.299 232.048 213.019 232.264 212.763 232.696C212.523 233.112 212.347 233.592 212.235 234.136L210.027 233.92ZM212.163 238.36C212.163 238.872 212.467 239.128 213.075 239.128C213.491 239.128 213.931 239.032 214.395 238.84L214.443 236.824C213.691 236.888 213.123 237.08 212.739 237.4C212.355 237.704 212.163 238.024 212.163 238.36ZM221.61 229.552L224.346 229.816V241.336L221.61 241.072V229.552ZM221.802 225.328L224.49 225.64L224.25 228.328L221.562 227.992L221.802 225.328ZM233.474 229.576C235.586 229.576 236.642 231.336 236.642 234.856C236.642 236.712 236.538 238.68 236.33 240.76L233.522 240.496C233.698 238.672 233.786 236.832 233.786 234.976C233.786 233.104 233.522 232.168 232.994 232.168C232.738 232.168 232.41 232.816 232.01 234.112C231.61 235.392 231.362 236.648 231.266 237.88C231.298 238.536 231.362 239.72 231.458 241.432L228.65 241.168C228.474 238.912 228.386 236.928 228.386 235.216C228.386 233.504 228.434 231.968 228.53 230.608L230.306 230.8C230.338 230.928 230.458 231.448 230.666 232.36C231.594 230.504 232.53 229.576 233.474 229.576ZM240.958 236.272L244.15 237.328C243.99 238.784 243.366 240.968 242.278 243.88L240.07 243.712C240.502 241.088 240.798 238.608 240.958 236.272ZM258.429 236.416V234.568C256.333 230.136 255.173 226.944 254.949 224.992L257.949 225.28C258.301 227.072 259.037 229.216 260.157 231.712C261.485 228.816 262.517 226.2 263.253 223.864L266.037 224.128C264.853 227.504 263.429 230.936 261.765 234.424C261.733 235.864 261.717 237.128 261.717 238.216C261.717 239.304 261.749 240.4 261.813 241.504L258.645 241.168C258.501 239.68 258.429 238.096 258.429 236.416ZM269.098 236.68C269.098 238.488 269.498 239.392 270.298 239.392C270.65 239.392 270.946 238.888 271.186 237.88C271.426 236.856 271.546 235.88 271.546 234.952C271.546 232.904 271.21 231.88 270.538 231.88C270.106 231.88 269.754 232.432 269.482 233.536C269.226 234.624 269.098 235.672 269.098 236.68ZM266.29 236.464C266.29 234.976 266.594 233.52 267.202 232.096C267.522 231.376 267.97 230.792 268.546 230.344C269.138 229.88 269.794 229.648 270.514 229.648C271.234 229.648 271.85 229.816 272.362 230.152C272.89 230.472 273.29 230.904 273.562 231.448C274.09 232.52 274.354 233.688 274.354 234.952C274.354 236.696 273.994 238.248 273.274 239.608C272.57 240.952 271.578 241.624 270.298 241.624C267.626 241.624 266.29 239.904 266.29 236.464ZM285.302 229.744L285.254 233.536C285.254 237.104 285.318 239.728 285.446 241.408L283.07 241.168C283.022 240.496 282.918 239.816 282.758 239.128C281.878 240.424 280.99 241.072 280.094 241.072C279.214 241.072 278.51 240.768 277.982 240.16C277.454 239.552 277.19 238.712 277.19 237.64C277.19 235.56 277.342 233.08 277.646 230.2L280.43 230.464C280.142 233.2 279.998 235.472 279.998 237.28C279.998 238.096 280.254 238.504 280.766 238.504C281.006 238.504 281.294 238.176 281.63 237.52C281.982 236.864 282.262 236.072 282.47 235.144C282.454 234.792 282.446 234.376 282.446 233.896C282.446 233.416 282.47 231.952 282.518 229.504L285.302 229.744ZM291.396 230.632L288.948 230.344C289.06 228.488 289.356 226.232 289.836 223.576L292.668 224.44C292.012 226.424 291.588 228.488 291.396 230.632ZM300.396 232.336C299.724 232.336 299.22 233.184 298.884 234.88C298.916 236 298.932 237.072 298.932 238.096C298.932 239.12 298.9 240.272 298.836 241.552L296.052 241.312C296.1 238.96 296.124 237.664 296.124 237.424C296.124 234.464 295.98 232.2 295.692 230.632L297.492 230.824C297.604 231.288 297.732 231.696 297.876 232.048C298.66 230.368 299.452 229.528 300.252 229.528C300.908 229.528 301.484 229.816 301.98 230.392L301.356 232.6C301.1 232.424 300.78 232.336 300.396 232.336ZM307.975 239.272C308.583 239.272 309.231 238.688 309.919 237.52L311.743 238.6C311.439 239.128 311.143 239.576 310.855 239.944C310.583 240.312 310.167 240.664 309.607 241C309.047 241.336 308.423 241.504 307.735 241.504C306.727 241.504 305.879 241.08 305.191 240.232C304.503 239.368 304.159 238.208 304.159 236.752C304.159 235.088 304.455 233.536 305.047 232.096C305.367 231.344 305.823 230.736 306.415 230.272C307.023 229.792 307.639 229.552 308.263 229.552C308.903 229.552 309.415 229.656 309.799 229.864C310.183 230.056 310.487 230.28 310.711 230.536C310.951 230.776 311.159 231.136 311.335 231.616C311.511 232.096 311.631 232.488 311.695 232.792C311.775 233.096 311.839 233.536 311.887 234.112C311.951 234.88 311.983 235.576 311.983 236.2C310.703 236.552 309.047 236.872 307.015 237.16C307.063 237.8 307.175 238.312 307.351 238.696C307.527 239.08 307.735 239.272 307.975 239.272ZM308.503 231.904C308.151 231.904 307.831 232.256 307.543 232.96C307.271 233.664 307.111 234.48 307.063 235.408C307.911 235.232 308.647 235.064 309.271 234.904C309.271 232.904 309.015 231.904 308.503 231.904ZM329.536 231.472C329.6 231.152 329.632 230.632 329.632 229.912C329.632 229.176 329.512 228.504 329.272 227.896C329.032 227.272 328.68 226.96 328.216 226.96C327.656 226.96 327.112 227.688 326.584 229.144C326.056 230.584 325.792 232.136 325.792 233.8C325.792 235.448 325.952 236.744 326.272 237.688C326.592 238.616 327.064 239.08 327.688 239.08C328.312 239.08 328.784 238.792 329.104 238.216C329.424 237.64 329.664 236.792 329.824 235.672C329.248 235.672 328.632 235.728 327.976 235.84L327.472 233.464C328.928 233.368 330.752 233.192 332.944 232.936C333.04 233.768 333.088 234.528 333.088 235.216C333.088 235.904 332.88 236.76 332.464 237.784C332.064 238.808 331.456 239.712 330.64 240.496C329.84 241.28 328.96 241.672 328 241.672C326.336 241.672 325 241.024 323.992 239.728C323 238.432 322.504 236.6 322.504 234.232C322.504 232.488 322.72 230.856 323.152 229.336C323.584 227.816 324.224 226.568 325.072 225.592C325.92 224.616 326.888 224.128 327.976 224.128C329.032 224.128 330.024 224.512 330.952 225.28C331.432 225.68 331.816 226.256 332.104 227.008C332.408 227.744 332.56 228.52 332.56 229.336C332.56 230.152 332.488 230.944 332.344 231.712L329.536 231.472ZM339.593 239.272C340.201 239.272 340.849 238.688 341.537 237.52L343.361 238.6C343.057 239.128 342.761 239.576 342.473 239.944C342.201 240.312 341.785 240.664 341.225 241C340.665 241.336 340.041 241.504 339.353 241.504C338.345 241.504 337.497 241.08 336.809 240.232C336.121 239.368 335.777 238.208 335.777 236.752C335.777 235.088 336.073 233.536 336.665 232.096C336.985 231.344 337.441 230.736 338.033 230.272C338.641 229.792 339.257 229.552 339.881 229.552C340.521 229.552 341.033 229.656 341.417 229.864C341.801 230.056 342.105 230.28 342.329 230.536C342.569 230.776 342.777 231.136 342.953 231.616C343.129 232.096 343.249 232.488 343.313 232.792C343.393 233.096 343.457 233.536 343.505 234.112C343.569 234.88 343.601 235.576 343.601 236.2C342.321 236.552 340.665 236.872 338.633 237.16C338.681 237.8 338.793 238.312 338.969 238.696C339.145 239.08 339.353 239.272 339.593 239.272ZM340.121 231.904C339.769 231.904 339.449 232.256 339.161 232.96C338.889 233.664 338.729 234.48 338.681 235.408C339.529 235.232 340.265 235.064 340.889 234.904C340.889 232.904 340.633 231.904 340.121 231.904ZM352.509 230.968V233.248C351.741 233.248 351.149 233.256 350.733 233.272C350.685 234.872 350.661 237.56 350.661 241.336L347.829 241.072C347.829 238.272 347.853 235.736 347.901 233.464C347.661 233.464 347.205 233.504 346.533 233.584L346.173 231.616C346.557 231.536 347.157 231.432 347.973 231.304C348.005 230.12 348.069 228.392 348.165 226.12L351.021 226.384C350.925 227.968 350.853 229.504 350.805 230.992C351.205 230.976 351.773 230.968 352.509 230.968ZM361.08 230.968V233.248C360.312 233.248 359.72 233.256 359.304 233.272C359.256 234.872 359.232 237.56 359.232 241.336L356.4 241.072C356.4 238.272 356.424 235.736 356.472 233.464C356.232 233.464 355.776 233.504 355.104 233.584L354.744 231.616C355.128 231.536 355.728 231.432 356.544 231.304C356.576 230.12 356.64 228.392 356.736 226.12L359.592 226.384C359.496 227.968 359.424 229.504 359.376 230.992C359.776 230.976 360.344 230.968 361.08 230.968ZM364.467 229.552L367.203 229.816V241.336L364.467 241.072V229.552ZM364.659 225.328L367.347 225.64L367.107 228.328L364.419 227.992L364.659 225.328ZM376.33 229.576C378.442 229.576 379.498 231.336 379.498 234.856C379.498 236.712 379.394 238.68 379.186 240.76L376.378 240.496C376.554 238.672 376.642 236.832 376.642 234.976C376.642 233.104 376.378 232.168 375.85 232.168C375.594 232.168 375.266 232.816 374.866 234.112C374.466 235.392 374.218 236.648 374.122 237.88C374.154 238.536 374.218 239.72 374.314 241.432L371.506 241.168C371.33 238.912 371.242 236.928 371.242 235.216C371.242 233.504 371.29 231.968 371.386 230.608L373.162 230.8C373.194 230.928 373.314 231.448 373.522 232.36C374.45 230.504 375.386 229.576 376.33 229.576ZM386.646 244.216C387.142 244.216 387.542 243.704 387.846 242.68C388.15 241.672 388.302 240.416 388.302 238.912C387.454 240.432 386.574 241.192 385.662 241.192C384.766 241.192 384.038 240.888 383.478 240.28C382.934 239.656 382.662 238.72 382.662 237.472C382.662 236.208 382.878 234.96 383.31 233.728C383.742 232.48 384.27 231.488 384.894 230.752C385.534 230 386.142 229.624 386.718 229.624C387.726 229.624 388.654 230.032 389.502 230.848L391.182 231.088C390.974 232.128 390.87 233.728 390.87 235.888C390.87 238.032 390.806 239.616 390.678 240.64C390.566 241.648 390.374 242.64 390.102 243.616C389.83 244.592 389.43 245.368 388.902 245.944C388.374 246.52 387.678 246.808 386.814 246.808C385.95 246.808 385.126 246.456 384.342 245.752C383.558 245.064 382.926 244.232 382.446 243.256L384.462 242.392C385.086 243.608 385.814 244.216 386.646 244.216ZM387.318 232.072C386.918 232.072 386.51 232.648 386.094 233.8C385.694 234.952 385.494 236.176 385.494 237.472C385.494 237.968 385.558 238.344 385.686 238.6C385.83 238.856 385.982 238.984 386.142 238.984C386.318 238.984 386.542 238.824 386.814 238.504C387.086 238.184 387.374 237.672 387.678 236.968C387.998 236.264 388.23 235.488 388.374 234.64L388.422 232.816C387.958 232.32 387.59 232.072 387.318 232.072ZM219.196 257.976L219.22 260.736L222.82 260.52C222.82 258.024 222.86 255.376 222.94 252.576L226.108 252.864C225.964 255.408 225.892 258.168 225.892 261.144C225.892 264.104 225.98 267.08 226.156 270.072L223.084 269.808C222.94 268.432 222.852 266.224 222.82 263.184L219.292 263.4C219.34 265.672 219.412 267.984 219.508 270.336L216.244 270.048C216.068 266.672 215.98 263.568 215.98 260.736C215.98 257.904 216.044 255.456 216.172 253.392L219.34 253.68C219.244 255.104 219.196 256.536 219.196 257.976ZM230.094 262.92C230.334 261.672 230.79 260.616 231.462 259.752C232.134 258.872 233.014 258.432 234.102 258.432C235.19 258.432 235.99 258.888 236.502 259.8C237.03 260.696 237.294 261.976 237.294 263.64C237.294 265.304 237.198 267.6 237.006 270.528L234.99 270.36L234.798 269.592C234.046 270.024 233.278 270.24 232.494 270.24C231.71 270.24 231.062 269.984 230.55 269.472C230.038 268.944 229.782 268.192 229.782 267.216C229.782 266.24 230.262 265.4 231.222 264.696C232.198 263.992 233.318 263.624 234.582 263.592V262.944C234.582 261.68 234.278 261.048 233.67 261.048C233.366 261.048 233.086 261.264 232.83 261.696C232.59 262.112 232.414 262.592 232.302 263.136L230.094 262.92ZM232.23 267.36C232.23 267.872 232.534 268.128 233.142 268.128C233.558 268.128 233.998 268.032 234.462 267.84L234.51 265.824C233.758 265.888 233.19 266.08 232.806 266.4C232.422 266.704 232.23 267.024 232.23 267.36ZM246.19 258.576C248.302 258.576 249.358 260.336 249.358 263.856C249.358 265.712 249.254 267.68 249.046 269.76L246.238 269.496C246.414 267.672 246.502 265.832 246.502 263.976C246.502 262.104 246.238 261.168 245.71 261.168C245.454 261.168 245.126 261.816 244.726 263.112C244.326 264.392 244.078 265.648 243.982 266.88C244.014 267.536 244.078 268.72 244.174 270.432L241.366 270.168C241.19 267.912 241.102 265.928 241.102 264.216C241.102 262.504 241.15 260.968 241.246 259.608L243.022 259.8C243.054 259.928 243.174 260.448 243.382 261.36C244.31 259.504 245.246 258.576 246.19 258.576ZM256.505 273.216C257.001 273.216 257.401 272.704 257.705 271.68C258.009 270.672 258.161 269.416 258.161 267.912C257.313 269.432 256.433 270.192 255.521 270.192C254.625 270.192 253.897 269.888 253.337 269.28C252.793 268.656 252.521 267.72 252.521 266.472C252.521 265.208 252.737 263.96 253.169 262.728C253.601 261.48 254.129 260.488 254.753 259.752C255.393 259 256.001 258.624 256.577 258.624C257.585 258.624 258.513 259.032 259.361 259.848L261.041 260.088C260.833 261.128 260.729 262.728 260.729 264.888C260.729 267.032 260.665 268.616 260.537 269.64C260.425 270.648 260.233 271.64 259.961 272.616C259.689 273.592 259.289 274.368 258.761 274.944C258.233 275.52 257.537 275.808 256.673 275.808C255.809 275.808 254.985 275.456 254.201 274.752C253.417 274.064 252.785 273.232 252.305 272.256L254.321 271.392C254.945 272.608 255.673 273.216 256.505 273.216ZM257.177 261.072C256.777 261.072 256.369 261.648 255.953 262.8C255.553 263.952 255.353 265.176 255.353 266.472C255.353 266.968 255.417 267.344 255.545 267.6C255.689 267.856 255.841 267.984 256.001 267.984C256.177 267.984 256.401 267.824 256.673 267.504C256.945 267.184 257.233 266.672 257.537 265.968C257.857 265.264 258.089 264.488 258.233 263.64L258.281 261.816C257.817 261.32 257.449 261.072 257.177 261.072ZM276.989 270.816C275.469 270.816 274.181 270.136 273.125 268.776C272.085 267.4 271.565 265.32 271.565 262.536C271.565 259.736 272.133 257.456 273.269 255.696C274.421 253.936 275.773 253.056 277.325 253.056C278.877 253.056 280.165 253.744 281.189 255.12C282.229 256.496 282.749 258.568 282.749 261.336C282.749 264.104 282.173 266.376 281.021 268.152C279.869 269.928 278.525 270.816 276.989 270.816ZM277.349 255.912C276.645 255.912 276.037 256.536 275.525 257.784C275.013 259.016 274.757 260.576 274.757 262.464C274.757 264.336 274.973 265.728 275.405 266.64C275.853 267.536 276.405 267.984 277.061 267.984C277.717 267.984 278.293 267.36 278.789 266.112C279.301 264.864 279.557 263.304 279.557 261.432C279.557 259.544 279.341 258.152 278.909 257.256C278.493 256.36 277.973 255.912 277.349 255.912ZM286.649 259.32C286.649 257.16 286.969 255.464 287.609 254.232C288.265 252.984 289.097 252.36 290.105 252.36C291.129 252.36 291.905 252.88 292.433 253.92C292.977 254.944 293.249 256.36 293.249 258.168L291.017 257.928C291.017 256.136 290.737 255.24 290.177 255.24C289.697 255.24 289.457 256.6 289.457 259.32V260.016C290.529 259.936 291.401 259.896 292.073 259.896V262.128C290.969 262.128 290.105 262.168 289.481 262.248C289.481 264.696 289.569 267.416 289.745 270.408L286.937 270.12C286.809 267.912 286.721 265.416 286.673 262.632C286.257 262.696 285.969 262.752 285.809 262.8L285.305 260.64C285.465 260.592 285.913 260.504 286.649 260.376V259.32ZM306.6 253.392C306.456 255.92 306.384 258.768 306.384 261.936C306.384 265.104 306.488 267.992 306.696 270.6L303.456 270.312C303.248 267.048 303.144 264.104 303.144 261.48C303.144 258.84 303.216 256.048 303.36 253.104L306.6 253.392ZM316.465 259.968V262.248C315.697 262.248 315.105 262.256 314.689 262.272C314.641 263.872 314.617 266.56 314.617 270.336L311.785 270.072C311.785 267.272 311.809 264.736 311.857 262.464C311.617 262.464 311.161 262.504 310.489 262.584L310.129 260.616C310.513 260.536 311.113 260.432 311.929 260.304C311.961 259.12 312.025 257.392 312.121 255.12L314.977 255.384C314.881 256.968 314.809 258.504 314.761 259.992C315.161 259.976 315.729 259.968 316.465 259.968ZM320.452 265.296C320.164 262.912 320.02 260.744 320.02 258.792C320.02 256.824 320.172 254.712 320.476 252.456L323.98 253.128C323.18 256.232 322.644 260.368 322.372 265.536L320.452 265.296ZM322.732 266.784C322.908 267.104 322.996 267.664 322.996 268.464C322.996 269.264 322.868 269.96 322.612 270.552L319.756 270C319.916 269.408 319.996 268.792 319.996 268.152C319.996 267.496 319.98 266.944 319.948 266.496L322.732 266.784Z" fill="#1C404C"/>
<defs>
<filter id="filter0_d_42_103" x="4.72705" y="91.432" width="534.065" height="98.896" filterUnits="userSpaceOnUse" color-interpolation-filters="sRGB">
<feFlood flood-opacity="0" result="BackgroundImageFix"/>
<feColorMatrix in="SourceAlpha" type="matrix" values="0 0 0 0 0 0 0 0 0 0 0 0 0 0 0 0 0 0 127 0" result="hardAlpha"/>
<feOffset dx="7" dy="2"/>
<feComposite in2="hardAlpha" operator="out"/>
<feColorMatrix type="matrix" values="0 0 0 0 0.803922 0 0 0 0 0.309804 0 0 0 0 0.254902 0 0 0 1 0"/>
<feBlend mode="normal" in2="BackgroundImageFix" result="effect1_dropShadow_42_103"/>
<feBlend mode="normal" in="SourceGraphic" in2="effect1_dropShadow_42_103" result="shape"/>
</filter>
</defs>
</svg>
