<svg width="534" height="386" viewBox="0 0 534 386" fill="none" xmlns="http://www.w3.org/2000/svg">
<path d="M533.248 200.711C533.248 200.711 533.161 93.533 446.861 42.3447C370.682 -2.84111 265.796 -12.0202 195.366 40.2298C170.271 58.8472 139.925 78.2495 108.405 91.2576C73.0642 105.843 31.7527 112.506 7.69932 160.801C-16.354 209.096 20.8917 279.914 75.5236 304.988C130.156 330.062 215.763 320.743 289.299 310.259C362.836 299.775 526.837 333.701 533.248 200.711Z" fill="#92E3A9"/>
<path opacity="0.7" d="M533.248 200.711C533.248 200.711 533.161 93.533 446.861 42.3447C370.682 -2.84111 265.796 -12.0202 195.366 40.2298C170.271 58.8472 139.925 78.2495 108.405 91.2576C73.0642 105.843 31.7527 112.506 7.69932 160.801C-16.354 209.096 20.8917 279.914 75.5236 304.988C130.156 330.062 215.763 320.743 289.299 310.259C362.836 299.775 526.837 333.701 533.248 200.711Z" fill="white"/>
<path opacity="0.16" d="M270.931 377.135C367.794 377.135 446.316 370.683 446.316 362.724C446.316 354.766 367.794 348.314 270.931 348.314C174.068 348.314 95.5452 354.766 95.5452 362.724C95.5452 370.683 174.068 377.135 270.931 377.135Z" fill="black"/>
<g filter="url(#filter0_d_39_575)">
<mask id="path-4-outside-1_39_575" maskUnits="userSpaceOnUse" x="33.124" y="48" width="463" height="242" fill="black">
<rect fill="white" x="33.124" y="48" width="463" height="242"/>
<path d="M55.344 143.256C54.4907 128.152 54.064 115.011 54.064 103.832C54.064 92.568 54.32 80.8347 54.832 68.632L39.216 70.808L36.4 55.96C44.7627 54.5093 53.04 53.4427 61.232 52.76L85.168 51.48L87.6 65.688C82.9067 65.944 77.616 66.328 71.728 66.84C71.216 79.128 70.96 90.392 70.96 100.632C70.96 110.872 71.1307 125.549 71.472 144.664L55.344 143.256ZM118.412 90.904C122.337 86.04 126.177 83.608 129.932 83.608C133.772 83.608 136.887 84.888 139.276 87.448C143.457 91.8853 145.548 97.5173 145.548 104.344C145.548 116.717 145.079 129.645 144.14 143.128L129.292 141.72C129.889 129.176 130.188 116.845 130.188 104.728C130.188 100.205 129.036 97.944 126.732 97.944C124.001 97.944 121.057 103.917 117.9 115.864C117.729 124.397 117.303 134.083 116.62 144.92L101.644 143.512C102.753 128.835 103.308 112.451 103.308 94.36C103.308 76.2693 103.009 61.72 102.412 50.712L117.388 52.12C118.071 64.152 118.412 77.08 118.412 90.904ZM164.467 105.24C165.747 98.584 168.179 92.952 171.763 88.344C175.347 83.6507 180.04 81.304 185.843 81.304C191.646 81.304 195.912 83.736 198.643 88.6C201.459 93.3787 202.867 100.205 202.867 109.08C202.867 117.955 202.355 130.2 201.331 145.816L190.579 144.92L189.555 140.824C185.544 143.128 181.448 144.28 177.267 144.28C173.086 144.28 169.63 142.915 166.899 140.184C164.168 137.368 162.803 133.357 162.803 128.152C162.803 122.947 165.363 118.467 170.483 114.712C175.688 110.957 181.662 108.995 188.403 108.824V105.368C188.403 98.6267 186.782 95.256 183.539 95.256C181.918 95.256 180.424 96.408 179.059 98.712C177.779 100.931 176.84 103.491 176.243 106.392L164.467 105.24ZM175.859 128.92C175.859 131.651 177.48 133.016 180.723 133.016C182.942 133.016 185.288 132.504 187.763 131.48L188.019 120.728C184.008 121.069 180.979 122.093 178.931 123.8C176.883 125.421 175.859 127.128 175.859 128.92ZM253.894 89.496V101.656C249.798 101.656 246.641 101.699 244.422 101.784C244.166 110.317 244.038 124.653 244.038 144.792L228.934 143.384C228.934 128.451 229.062 114.925 229.318 102.808C228.038 102.808 225.606 103.021 222.022 103.448L220.102 92.952C222.15 92.5253 225.35 91.9707 229.702 91.288C229.873 84.9733 230.214 75.7573 230.726 63.64L245.958 65.048C245.446 73.496 245.062 81.688 244.806 89.624C246.939 89.5387 249.969 89.496 253.894 89.496ZM341.356 62.872L354.156 64.024C354.753 70.8507 355.649 79.896 356.844 91.16C358.124 102.339 359.02 110.275 359.532 114.968L360.172 114.84C366.231 88.728 370.156 68.2907 371.948 53.528L388.716 54.936C383.937 83.1813 376.94 112.195 367.724 141.976L355.436 140.952C352.535 130.883 349.292 117.699 345.708 101.4C342.039 118.979 338.54 133.016 335.212 143.512L322.924 142.488C315.671 106.307 310.764 76.952 308.204 54.424L324.716 55.832C326.081 70.2533 328.215 89.9653 331.116 114.968L331.756 114.84C336.705 92.056 339.905 74.7333 341.356 62.872ZM398.182 105.24C399.462 98.584 401.894 92.952 405.478 88.344C409.062 83.6507 413.755 81.304 419.558 81.304C425.361 81.304 429.627 83.736 432.358 88.6C435.174 93.3787 436.582 100.205 436.582 109.08C436.582 117.955 436.07 130.2 435.046 145.816L424.294 144.92L423.27 140.824C419.259 143.128 415.163 144.28 410.982 144.28C406.801 144.28 403.345 142.915 400.614 140.184C397.883 137.368 396.518 133.357 396.518 128.152C396.518 122.947 399.078 118.467 404.198 114.712C409.403 110.957 415.377 108.995 422.118 108.824V105.368C422.118 98.6267 420.497 95.256 417.254 95.256C415.633 95.256 414.139 96.408 412.774 98.712C411.494 100.931 410.555 103.491 409.958 106.392L398.182 105.24ZM409.574 128.92C409.574 131.651 411.195 133.016 414.438 133.016C416.657 133.016 419.003 132.504 421.478 131.48L421.734 120.728C417.723 121.069 414.694 122.093 412.646 123.8C410.598 125.421 409.574 127.128 409.574 128.92ZM481.465 102.68C481.465 97.56 480.185 95 477.625 95C476.345 95 475.15 95.64 474.041 96.92C473.017 98.1147 472.505 99.7787 472.505 101.912C472.505 103.96 472.889 105.667 473.657 107.032C474.51 108.397 476.004 109.763 478.137 111.128C480.356 112.408 482.062 113.475 483.257 114.328C484.537 115.096 486.03 116.205 487.737 117.656C491.236 120.728 492.985 124.696 492.985 129.56C492.985 134.339 491.15 138.221 487.481 141.208C483.897 144.195 479.844 145.688 475.321 145.688C470.798 145.688 466.702 144.493 463.033 142.104C459.449 139.629 456.548 136.557 454.329 132.888L461.241 125.08C464.654 130.968 468.238 133.912 471.993 133.912C473.273 133.912 474.382 133.571 475.321 132.888C476.26 132.12 476.729 131.096 476.729 129.816C476.729 127.085 474.766 124.568 470.841 122.264C466.66 119.96 463.374 117.4 460.985 114.584C458.596 111.768 457.401 107.8 457.401 102.68C457.401 97.4747 459.534 92.824 463.801 88.728C468.068 84.5467 472.633 82.456 477.497 82.456C482.446 82.456 486.329 84.1627 489.145 87.576C492.046 90.904 493.497 95.4267 493.497 101.144C493.497 103.448 493.241 105.923 492.729 108.568L481.081 107.544C481.337 105.581 481.465 103.96 481.465 102.68ZM184.826 280.72L181.882 262.928L162.81 263.696L157.946 287.76L140.026 286.224L162.938 193.424L186.618 195.472L203.386 282.256L184.826 280.72ZM173.562 210.192L165.498 250L179.834 249.488L173.562 210.192ZM273.122 282.256C272.268 267.152 271.842 254.011 271.842 242.832C271.842 231.568 272.098 219.835 272.61 207.632L256.994 209.808L254.178 194.96C262.54 193.509 270.818 192.443 279.01 191.76L302.946 190.48L305.378 204.688C300.684 204.944 295.394 205.328 289.506 205.84C288.994 218.128 288.738 229.392 288.738 239.632C288.738 249.872 288.908 264.549 289.25 283.664L273.122 282.256ZM324.229 220.944L338.821 222.352V283.792L324.229 282.384V220.944ZM325.253 198.416L339.589 200.08L338.309 214.416L323.973 212.624L325.253 198.416ZM378.159 272.784C381.401 272.784 384.857 269.669 388.527 263.44L398.255 269.2C396.633 272.016 395.055 274.405 393.519 276.368C392.068 278.331 389.849 280.208 386.863 282C383.876 283.792 380.548 284.688 376.879 284.688C371.503 284.688 366.98 282.427 363.311 277.904C359.641 273.296 357.807 267.109 357.807 259.344C357.807 250.469 359.385 242.192 362.543 234.512C364.249 230.501 366.681 227.259 369.839 224.784C373.081 222.224 376.367 220.944 379.695 220.944C383.108 220.944 385.839 221.499 387.887 222.608C389.935 223.632 391.556 224.827 392.751 226.192C394.031 227.472 395.14 229.392 396.079 231.952C397.017 234.512 397.657 236.603 397.999 238.224C398.425 239.845 398.767 242.192 399.023 245.264C399.364 249.36 399.535 253.072 399.535 256.4C392.708 258.277 383.876 259.984 373.039 261.52C373.295 264.933 373.892 267.664 374.831 269.712C375.769 271.76 376.879 272.784 378.159 272.784ZM380.975 233.488C379.097 233.488 377.391 235.365 375.855 239.12C374.404 242.875 373.551 247.227 373.295 252.176C377.817 251.237 381.743 250.341 385.071 249.488C385.071 238.821 383.705 233.488 380.975 233.488Z"/>
</mask>
<path d="M55.344 143.256C54.4907 128.152 54.064 115.011 54.064 103.832C54.064 92.568 54.32 80.8347 54.832 68.632L39.216 70.808L36.4 55.96C44.7627 54.5093 53.04 53.4427 61.232 52.76L85.168 51.48L87.6 65.688C82.9067 65.944 77.616 66.328 71.728 66.84C71.216 79.128 70.96 90.392 70.96 100.632C70.96 110.872 71.1307 125.549 71.472 144.664L55.344 143.256ZM118.412 90.904C122.337 86.04 126.177 83.608 129.932 83.608C133.772 83.608 136.887 84.888 139.276 87.448C143.457 91.8853 145.548 97.5173 145.548 104.344C145.548 116.717 145.079 129.645 144.14 143.128L129.292 141.72C129.889 129.176 130.188 116.845 130.188 104.728C130.188 100.205 129.036 97.944 126.732 97.944C124.001 97.944 121.057 103.917 117.9 115.864C117.729 124.397 117.303 134.083 116.62 144.92L101.644 143.512C102.753 128.835 103.308 112.451 103.308 94.36C103.308 76.2693 103.009 61.72 102.412 50.712L117.388 52.12C118.071 64.152 118.412 77.08 118.412 90.904ZM164.467 105.24C165.747 98.584 168.179 92.952 171.763 88.344C175.347 83.6507 180.04 81.304 185.843 81.304C191.646 81.304 195.912 83.736 198.643 88.6C201.459 93.3787 202.867 100.205 202.867 109.08C202.867 117.955 202.355 130.2 201.331 145.816L190.579 144.92L189.555 140.824C185.544 143.128 181.448 144.28 177.267 144.28C173.086 144.28 169.63 142.915 166.899 140.184C164.168 137.368 162.803 133.357 162.803 128.152C162.803 122.947 165.363 118.467 170.483 114.712C175.688 110.957 181.662 108.995 188.403 108.824V105.368C188.403 98.6267 186.782 95.256 183.539 95.256C181.918 95.256 180.424 96.408 179.059 98.712C177.779 100.931 176.84 103.491 176.243 106.392L164.467 105.24ZM175.859 128.92C175.859 131.651 177.48 133.016 180.723 133.016C182.942 133.016 185.288 132.504 187.763 131.48L188.019 120.728C184.008 121.069 180.979 122.093 178.931 123.8C176.883 125.421 175.859 127.128 175.859 128.92ZM253.894 89.496V101.656C249.798 101.656 246.641 101.699 244.422 101.784C244.166 110.317 244.038 124.653 244.038 144.792L228.934 143.384C228.934 128.451 229.062 114.925 229.318 102.808C228.038 102.808 225.606 103.021 222.022 103.448L220.102 92.952C222.15 92.5253 225.35 91.9707 229.702 91.288C229.873 84.9733 230.214 75.7573 230.726 63.64L245.958 65.048C245.446 73.496 245.062 81.688 244.806 89.624C246.939 89.5387 249.969 89.496 253.894 89.496ZM341.356 62.872L354.156 64.024C354.753 70.8507 355.649 79.896 356.844 91.16C358.124 102.339 359.02 110.275 359.532 114.968L360.172 114.84C366.231 88.728 370.156 68.2907 371.948 53.528L388.716 54.936C383.937 83.1813 376.94 112.195 367.724 141.976L355.436 140.952C352.535 130.883 349.292 117.699 345.708 101.4C342.039 118.979 338.54 133.016 335.212 143.512L322.924 142.488C315.671 106.307 310.764 76.952 308.204 54.424L324.716 55.832C326.081 70.2533 328.215 89.9653 331.116 114.968L331.756 114.84C336.705 92.056 339.905 74.7333 341.356 62.872ZM398.182 105.24C399.462 98.584 401.894 92.952 405.478 88.344C409.062 83.6507 413.755 81.304 419.558 81.304C425.361 81.304 429.627 83.736 432.358 88.6C435.174 93.3787 436.582 100.205 436.582 109.08C436.582 117.955 436.07 130.2 435.046 145.816L424.294 144.92L423.27 140.824C419.259 143.128 415.163 144.28 410.982 144.28C406.801 144.28 403.345 142.915 400.614 140.184C397.883 137.368 396.518 133.357 396.518 128.152C396.518 122.947 399.078 118.467 404.198 114.712C409.403 110.957 415.377 108.995 422.118 108.824V105.368C422.118 98.6267 420.497 95.256 417.254 95.256C415.633 95.256 414.139 96.408 412.774 98.712C411.494 100.931 410.555 103.491 409.958 106.392L398.182 105.24ZM409.574 128.92C409.574 131.651 411.195 133.016 414.438 133.016C416.657 133.016 419.003 132.504 421.478 131.48L421.734 120.728C417.723 121.069 414.694 122.093 412.646 123.8C410.598 125.421 409.574 127.128 409.574 128.92ZM481.465 102.68C481.465 97.56 480.185 95 477.625 95C476.345 95 475.15 95.64 474.041 96.92C473.017 98.1147 472.505 99.7787 472.505 101.912C472.505 103.96 472.889 105.667 473.657 107.032C474.51 108.397 476.004 109.763 478.137 111.128C480.356 112.408 482.062 113.475 483.257 114.328C484.537 115.096 486.03 116.205 487.737 117.656C491.236 120.728 492.985 124.696 492.985 129.56C492.985 134.339 491.15 138.221 487.481 141.208C483.897 144.195 479.844 145.688 475.321 145.688C470.798 145.688 466.702 144.493 463.033 142.104C459.449 139.629 456.548 136.557 454.329 132.888L461.241 125.08C464.654 130.968 468.238 133.912 471.993 133.912C473.273 133.912 474.382 133.571 475.321 132.888C476.26 132.12 476.729 131.096 476.729 129.816C476.729 127.085 474.766 124.568 470.841 122.264C466.66 119.96 463.374 117.4 460.985 114.584C458.596 111.768 457.401 107.8 457.401 102.68C457.401 97.4747 459.534 92.824 463.801 88.728C468.068 84.5467 472.633 82.456 477.497 82.456C482.446 82.456 486.329 84.1627 489.145 87.576C492.046 90.904 493.497 95.4267 493.497 101.144C493.497 103.448 493.241 105.923 492.729 108.568L481.081 107.544C481.337 105.581 481.465 103.96 481.465 102.68ZM184.826 280.72L181.882 262.928L162.81 263.696L157.946 287.76L140.026 286.224L162.938 193.424L186.618 195.472L203.386 282.256L184.826 280.72ZM173.562 210.192L165.498 250L179.834 249.488L173.562 210.192ZM273.122 282.256C272.268 267.152 271.842 254.011 271.842 242.832C271.842 231.568 272.098 219.835 272.61 207.632L256.994 209.808L254.178 194.96C262.54 193.509 270.818 192.443 279.01 191.76L302.946 190.48L305.378 204.688C300.684 204.944 295.394 205.328 289.506 205.84C288.994 218.128 288.738 229.392 288.738 239.632C288.738 249.872 288.908 264.549 289.25 283.664L273.122 282.256ZM324.229 220.944L338.821 222.352V283.792L324.229 282.384V220.944ZM325.253 198.416L339.589 200.08L338.309 214.416L323.973 212.624L325.253 198.416ZM378.159 272.784C381.401 272.784 384.857 269.669 388.527 263.44L398.255 269.2C396.633 272.016 395.055 274.405 393.519 276.368C392.068 278.331 389.849 280.208 386.863 282C383.876 283.792 380.548 284.688 376.879 284.688C371.503 284.688 366.98 282.427 363.311 277.904C359.641 273.296 357.807 267.109 357.807 259.344C357.807 250.469 359.385 242.192 362.543 234.512C364.249 230.501 366.681 227.259 369.839 224.784C373.081 222.224 376.367 220.944 379.695 220.944C383.108 220.944 385.839 221.499 387.887 222.608C389.935 223.632 391.556 224.827 392.751 226.192C394.031 227.472 395.14 229.392 396.079 231.952C397.017 234.512 397.657 236.603 397.999 238.224C398.425 239.845 398.767 242.192 399.023 245.264C399.364 249.36 399.535 253.072 399.535 256.4C392.708 258.277 383.876 259.984 373.039 261.52C373.295 264.933 373.892 267.664 374.831 269.712C375.769 271.76 376.879 272.784 378.159 272.784ZM380.975 233.488C379.097 233.488 377.391 235.365 375.855 239.12C374.404 242.875 373.551 247.227 373.295 252.176C377.817 251.237 381.743 250.341 385.071 249.488C385.071 238.821 383.705 233.488 380.975 233.488Z" fill="#1C404C"/>
<path d="M55.344 143.256L53.3472 143.369L53.4449 145.098L55.1701 145.248L55.344 143.256ZM54.832 68.632L56.8303 68.7158L56.9308 66.3202L54.556 66.6511L54.832 68.632ZM39.216 70.808L37.2511 71.1807L37.6059 73.0517L39.4921 72.7889L39.216 70.808ZM36.4 55.96L36.0582 53.9894L34.0565 54.3367L34.4351 56.3327L36.4 55.96ZM61.232 52.76L61.1252 50.7628L61.0956 50.7644L61.0659 50.7669L61.232 52.76ZM85.168 51.48L87.1394 51.1426L86.839 49.3878L85.0612 49.4828L85.168 51.48ZM87.6 65.688L87.709 67.685L89.95 67.5628L89.5714 65.3506L87.6 65.688ZM71.728 66.84L71.5548 64.8475L69.803 64.9998L69.7298 66.7567L71.728 66.84ZM71.472 144.664L71.2981 146.656L73.5114 146.85L73.4717 144.628L71.472 144.664ZM57.3408 143.143C56.4889 128.065 56.064 114.963 56.064 103.832H52.064C52.064 115.059 52.4924 128.239 53.3472 143.369L57.3408 143.143ZM56.064 103.832C56.064 92.5982 56.3193 80.8929 56.8303 68.7158L52.8338 68.5482C52.3207 80.7764 52.064 92.5378 52.064 103.832H56.064ZM54.556 66.6511L38.94 68.8271L39.4921 72.7889L55.1081 70.6129L54.556 66.6511ZM41.181 70.4353L38.365 55.5873L34.4351 56.3327L37.2511 71.1807L41.181 70.4353ZM36.7419 57.9306C45.0482 56.4897 53.2669 55.4307 61.3981 54.7531L61.0659 50.7669C52.8132 51.4546 44.4772 52.529 36.0582 53.9894L36.7419 57.9306ZM61.3388 54.7571L85.2748 53.4771L85.0612 49.4828L61.1252 50.7628L61.3388 54.7571ZM83.1967 51.8174L85.6287 66.0254L89.5714 65.3506L87.1394 51.1426L83.1967 51.8174ZM87.4911 63.691C82.7717 63.9484 77.459 64.3341 71.5548 64.8475L71.9013 68.8325C77.773 68.3219 83.0417 67.9396 87.709 67.685L87.4911 63.691ZM69.7298 66.7567C69.2168 79.0672 68.96 90.3594 68.96 100.632H72.96C72.96 90.4246 73.2152 79.1888 73.7263 66.9233L69.7298 66.7567ZM68.96 100.632C68.96 110.89 69.131 125.581 69.4724 144.7L73.4717 144.628C73.1304 125.517 72.96 110.854 72.96 100.632H68.96ZM71.646 142.672L55.518 141.264L55.1701 145.248L71.2981 146.656L71.646 142.672ZM118.412 90.904H116.412V96.5669L119.968 92.16L118.412 90.904ZM139.276 87.448L137.814 88.8126L137.82 88.8196L139.276 87.448ZM144.14 143.128L143.951 145.119L145.993 145.313L146.135 143.267L144.14 143.128ZM129.292 141.72L127.294 141.625L127.204 143.531L129.103 143.711L129.292 141.72ZM117.9 115.864L115.966 115.353L115.905 115.585L115.9 115.824L117.9 115.864ZM116.62 144.92L116.433 146.911L118.486 147.104L118.616 145.046L116.62 144.92ZM101.644 143.512L99.6497 143.361L99.5017 145.319L101.457 145.503L101.644 143.512ZM102.412 50.712L102.599 48.7208L100.289 48.5036L100.415 50.8204L102.412 50.712ZM117.388 52.12L119.385 52.0067L119.287 50.2897L117.575 50.1288L117.388 52.12ZM119.968 92.16C123.761 87.4604 127.088 85.608 129.932 85.608V81.608C125.266 81.608 120.914 84.6196 116.856 89.648L119.968 92.16ZM129.932 85.608C133.277 85.608 135.842 86.6995 137.814 88.8126L140.738 86.0834C137.932 83.0765 134.267 81.608 129.932 81.608V85.608ZM137.82 88.8196C141.609 92.8404 143.548 97.9611 143.548 104.344H147.548C147.548 97.0735 145.305 90.9303 140.732 86.0764L137.82 88.8196ZM143.548 104.344C143.548 116.667 143.081 129.548 142.145 142.989L146.135 143.267C147.077 129.742 147.548 116.768 147.548 104.344H143.548ZM144.329 141.137L129.481 139.729L129.103 143.711L143.951 145.119L144.329 141.137ZM131.29 141.815C131.889 129.241 132.188 116.878 132.188 104.728H128.188C128.188 116.812 127.89 129.111 127.294 141.625L131.29 141.815ZM132.188 104.728C132.188 102.362 131.897 100.285 131.106 98.7321C130.696 97.9267 130.123 97.2072 129.339 96.6944C128.545 96.1746 127.65 95.944 126.732 95.944V99.944C126.966 99.944 127.079 99.996 127.149 100.042C127.229 100.094 127.376 100.223 127.542 100.548C127.903 101.256 128.188 102.572 128.188 104.728H132.188ZM126.732 95.944C125.275 95.944 124.09 96.7433 123.194 97.6865C122.287 98.6411 121.459 99.9625 120.682 101.54C119.121 104.707 117.555 109.34 115.966 115.353L119.834 116.375C121.402 110.441 122.887 106.114 124.27 103.308C124.965 101.899 125.582 100.98 126.094 100.441C126.617 99.8914 126.824 99.944 126.732 99.944V95.944ZM115.9 115.824C115.73 124.322 115.305 133.978 114.624 144.794L118.616 145.046C119.3 134.187 119.728 124.472 119.9 115.904L115.9 115.824ZM116.807 142.929L101.831 141.521L101.457 145.503L116.433 146.911L116.807 142.929ZM103.638 143.663C104.752 128.925 105.308 112.49 105.308 94.36H101.308C101.308 112.411 100.755 128.744 99.6497 143.361L103.638 143.663ZM105.308 94.36C105.308 76.2529 105.009 61.6631 104.409 50.6036L100.415 50.8204C101.01 61.7769 101.308 76.2858 101.308 94.36H105.308ZM102.225 52.7032L117.201 54.1112L117.575 50.1288L102.599 48.7208L102.225 52.7032ZM115.391 52.2333C116.071 64.2226 116.412 77.1124 116.412 90.904H120.412C120.412 77.0476 120.07 64.0814 119.385 52.0067L115.391 52.2333ZM164.467 105.24L162.503 104.862L162.089 107.017L164.272 107.23L164.467 105.24ZM171.763 88.344L173.342 89.5719L173.347 89.5649L173.353 89.5578L171.763 88.344ZM198.643 88.6L196.899 89.5791L196.909 89.5973L196.92 89.6154L198.643 88.6ZM201.331 145.816L201.165 147.809L203.194 147.978L203.327 145.947L201.331 145.816ZM190.579 144.92L188.639 145.405L188.986 146.794L190.413 146.913L190.579 144.92ZM189.555 140.824L191.495 140.339L190.853 137.772L188.559 139.09L189.555 140.824ZM166.899 140.184L165.463 141.576L165.474 141.587L165.485 141.598L166.899 140.184ZM170.483 114.712L169.313 113.09L169.307 113.095L169.3 113.099L170.483 114.712ZM188.403 108.824L188.454 110.823L190.403 110.774V108.824H188.403ZM179.059 98.712L177.338 97.6924L177.332 97.7024L177.327 97.7126L179.059 98.712ZM176.243 106.392L176.048 108.382L177.839 108.558L178.202 106.795L176.243 106.392ZM187.763 131.48L188.528 133.328L189.731 132.83L189.762 131.528L187.763 131.48ZM188.019 120.728L190.018 120.776L190.072 118.546L187.849 118.735L188.019 120.728ZM178.931 123.8L180.172 125.368L180.192 125.353L180.211 125.336L178.931 123.8ZM166.431 105.618C167.661 99.2216 169.98 93.8936 173.342 89.5719L170.184 87.1161C166.378 92.0104 163.833 97.9464 162.503 104.862L166.431 105.618ZM173.353 89.5578C176.566 85.3497 180.677 83.304 185.843 83.304V79.304C179.404 79.304 174.128 81.9517 170.173 87.1302L173.353 89.5578ZM185.843 83.304C190.959 83.304 194.54 85.3765 196.899 89.5791L200.387 87.6209C197.285 82.0955 192.333 79.304 185.843 79.304V83.304ZM196.92 89.6154C199.477 93.954 200.867 100.369 200.867 109.08H204.867C204.867 100.042 203.441 92.8033 200.366 87.5846L196.92 89.6154ZM200.867 109.08C200.867 117.89 200.358 130.085 199.335 145.685L203.327 145.947C204.352 130.315 204.867 118.019 204.867 109.08H200.867ZM201.497 143.823L190.745 142.927L190.413 146.913L201.165 147.809L201.497 143.823ZM192.519 144.435L191.495 140.339L187.615 141.309L188.639 145.405L192.519 144.435ZM188.559 139.09C184.818 141.239 181.063 142.28 177.267 142.28V146.28C181.834 146.28 186.27 145.017 190.551 142.558L188.559 139.09ZM177.267 142.28C173.568 142.28 170.636 141.092 168.313 138.77L165.485 141.598C168.623 144.737 172.604 146.28 177.267 146.28V142.28ZM168.335 138.792C166.072 136.458 164.803 133.013 164.803 128.152H160.803C160.803 133.702 162.265 138.278 165.463 141.576L168.335 138.792ZM164.803 128.152C164.803 123.726 166.933 119.796 171.666 116.325L169.3 113.099C163.793 117.138 160.803 122.167 160.803 128.152H164.803ZM171.653 116.334C176.515 112.827 182.093 110.984 188.454 110.823L188.352 106.825C181.23 107.005 174.862 109.087 169.313 113.09L171.653 116.334ZM190.403 108.824V105.368H186.403V108.824H190.403ZM190.403 105.368C190.403 101.901 189.996 99.0105 188.989 96.9171C188.473 95.8434 187.765 94.9082 186.806 94.2441C185.831 93.5687 184.716 93.256 183.539 93.256V97.256C183.983 97.256 184.287 97.3647 184.528 97.5319C184.786 97.7104 185.09 98.0393 185.385 98.6509C185.999 99.9282 186.403 102.094 186.403 105.368H190.403ZM183.539 93.256C180.838 93.256 178.82 95.1917 177.338 97.6924L180.78 99.7316C182.028 97.6243 182.998 97.256 183.539 97.256V93.256ZM177.327 97.7126C175.924 100.143 174.918 102.91 174.284 105.989L178.202 106.795C178.763 104.071 179.634 101.718 180.791 99.7114L177.327 97.7126ZM176.438 104.401L164.662 103.249L164.272 107.23L176.048 108.382L176.438 104.401ZM173.859 128.92C173.859 130.692 174.401 132.355 175.787 133.522C177.106 134.633 178.869 135.016 180.723 135.016V131.016C179.334 131.016 178.665 130.716 178.363 130.462C178.127 130.263 177.859 129.878 177.859 128.92H173.859ZM180.723 135.016C183.252 135.016 185.86 134.432 188.528 133.328L186.998 129.632C184.717 130.576 182.631 131.016 180.723 131.016V135.016ZM189.762 131.528L190.018 120.776L186.02 120.68L185.764 131.432L189.762 131.528ZM187.849 118.735C183.626 119.095 180.137 120.192 177.651 122.264L180.211 125.336C181.822 123.995 184.39 123.044 188.189 122.721L187.849 118.735ZM177.69 122.232C175.39 124.052 173.859 126.276 173.859 128.92H177.859C177.859 127.98 178.376 126.79 180.172 125.368L177.69 122.232ZM253.894 89.496H255.894V87.496H253.894V89.496ZM253.894 101.656V103.656H255.894V101.656H253.894ZM244.422 101.784L244.345 99.7855L242.479 99.8573L242.423 101.724L244.422 101.784ZM244.038 144.792L243.852 146.783L246.038 146.987V144.792H244.038ZM228.934 143.384H226.934V145.206L228.748 145.375L228.934 143.384ZM229.318 102.808L231.318 102.85L231.361 100.808H229.318V102.808ZM222.022 103.448L220.055 103.808L220.393 105.656L222.258 105.434L222.022 103.448ZM220.102 92.952L219.694 90.994L217.783 91.3921L218.135 93.3119L220.102 92.952ZM229.702 91.288L230.012 93.2638L231.656 93.0059L231.701 91.342L229.702 91.288ZM230.726 63.64L230.91 61.6485L228.817 61.455L228.728 63.5556L230.726 63.64ZM245.958 65.048L247.954 65.169L248.072 63.2348L246.142 63.0565L245.958 65.048ZM244.806 89.624L242.807 89.5595L242.738 91.7083L244.886 91.6224L244.806 89.624ZM251.894 89.496V101.656H255.894V89.496H251.894ZM253.894 99.656C249.79 99.656 246.602 99.6987 244.345 99.7855L244.499 103.783C246.679 103.699 249.806 103.656 253.894 103.656V99.656ZM242.423 101.724C242.166 110.29 242.038 124.653 242.038 144.792H246.038C246.038 124.654 246.166 110.344 246.421 101.844L242.423 101.724ZM244.224 142.801L229.12 141.393L228.748 145.375L243.852 146.783L244.224 142.801ZM230.934 143.384C230.934 128.462 231.062 114.951 231.318 102.85L227.318 102.766C227.062 114.9 226.934 128.44 226.934 143.384H230.934ZM229.318 100.808C227.902 100.808 225.355 101.037 221.786 101.462L222.258 105.434C225.857 105.006 228.175 104.808 229.318 104.808V100.808ZM223.989 103.088L222.069 92.5921L218.135 93.3119L220.055 103.808L223.989 103.088ZM220.51 94.91C222.506 94.494 225.665 93.9457 230.012 93.2638L229.392 89.3122C225.035 89.9957 221.794 90.5566 219.694 90.994L220.51 94.91ZM231.701 91.342C231.872 85.0429 232.212 75.839 232.724 63.7244L228.728 63.5556C228.216 75.6756 227.874 84.9038 227.703 91.234L231.701 91.342ZM230.542 65.6315L245.774 67.0395L246.142 63.0565L230.91 61.6485L230.542 65.6315ZM243.962 64.927C243.449 73.3926 243.064 81.6035 242.807 89.5595L246.805 89.6885C247.06 81.7725 247.443 73.5994 247.954 65.169L243.962 64.927ZM244.886 91.6224C246.979 91.5387 249.977 91.496 253.894 91.496V87.496C249.96 87.496 246.899 87.5387 244.726 87.6256L244.886 91.6224ZM341.356 62.872L341.535 60.88L339.606 60.7064L339.371 62.6292L341.356 62.872ZM354.156 64.024L356.148 63.8497L356.003 62.1821L354.335 62.032L354.156 64.024ZM356.844 91.16L354.855 91.3709L354.856 91.3792L354.857 91.3875L356.844 91.16ZM359.532 114.968L357.544 115.185L357.781 117.358L359.924 116.929L359.532 114.968ZM360.172 114.84L360.564 116.801L361.829 116.548L362.12 115.292L360.172 114.84ZM371.948 53.528L372.115 51.535L370.195 51.3737L369.963 53.287L371.948 53.528ZM388.716 54.936L390.688 55.2696L391.051 53.125L388.883 52.943L388.716 54.936ZM367.724 141.976L367.558 143.969L369.16 144.103L369.635 142.567L367.724 141.976ZM355.436 140.952L353.514 141.506L353.896 142.831L355.27 142.945L355.436 140.952ZM345.708 101.4L347.661 100.97L343.75 100.991L345.708 101.4ZM335.212 143.512L335.046 145.505L336.636 145.638L337.118 144.116L335.212 143.512ZM322.924 142.488L320.963 142.881L321.259 144.356L322.758 144.481L322.924 142.488ZM308.204 54.424L308.374 52.4312L305.941 52.2238L306.217 54.6498L308.204 54.424ZM324.716 55.832L326.707 55.6435L326.55 53.9811L324.886 53.8392L324.716 55.832ZM331.116 114.968L329.129 115.199L329.38 117.355L331.508 116.929L331.116 114.968ZM331.756 114.84L332.148 116.801L333.432 116.544L333.71 115.265L331.756 114.84ZM341.177 64.8639L353.977 66.0159L354.335 62.032L341.535 60.88L341.177 64.8639ZM352.164 64.1983C352.762 71.0425 353.66 80.1015 354.855 91.3709L358.833 90.9491C357.639 79.6905 356.744 70.6588 356.148 63.8497L352.164 64.1983ZM354.857 91.3875C356.137 102.566 357.032 110.497 357.544 115.185L361.52 114.751C361.008 110.052 360.111 102.111 358.831 90.9325L354.857 91.3875ZM359.924 116.929L360.564 116.801L359.78 112.879L359.14 113.007L359.924 116.929ZM362.12 115.292C368.184 89.1561 372.129 68.6375 373.933 53.769L369.963 53.287C368.183 67.9438 364.277 88.2999 358.224 114.388L362.12 115.292ZM371.781 55.521L388.549 56.929L388.883 52.943L372.115 51.535L371.781 55.521ZM386.744 54.6024C381.981 82.7533 375.006 111.681 365.813 141.385L369.635 142.567C378.874 112.709 385.893 83.6093 390.688 55.2696L386.744 54.6024ZM367.89 139.983L355.602 138.959L355.27 142.945L367.558 143.969L367.89 139.983ZM357.358 140.398C354.473 130.387 351.241 117.249 347.661 100.97L343.755 101.83C347.343 118.149 350.596 131.379 353.514 141.506L357.358 140.398ZM343.75 100.991C340.087 118.539 336.605 132.503 333.306 142.908L337.118 144.116C340.476 133.529 343.99 119.418 347.666 101.809L343.75 100.991ZM335.378 141.519L323.09 140.495L322.758 144.481L335.046 145.505L335.378 141.519ZM324.885 142.095C317.637 105.939 312.742 76.6464 310.191 54.1982L306.217 54.6498C308.786 77.2576 313.705 106.674 320.963 142.881L324.885 142.095ZM308.034 56.4168L324.546 57.8248L324.886 53.8392L308.374 52.4312L308.034 56.4168ZM322.725 56.0205C324.092 70.4624 326.227 90.1904 329.129 115.199L333.103 114.737C330.202 89.7402 328.07 70.0443 326.707 55.6435L322.725 56.0205ZM331.508 116.929L332.148 116.801L331.364 112.879L330.724 113.007L331.508 116.929ZM333.71 115.265C338.663 92.4655 341.879 75.0702 343.341 63.1148L339.371 62.6292C337.932 74.3965 334.748 91.6465 329.802 114.415L333.71 115.265ZM398.182 105.24L396.218 104.862L395.804 107.017L397.987 107.23L398.182 105.24ZM405.478 88.344L407.057 89.5719L407.062 89.5649L407.068 89.5578L405.478 88.344ZM432.358 88.6L430.614 89.5791L430.624 89.5973L430.635 89.6154L432.358 88.6ZM435.046 145.816L434.88 147.809L436.909 147.978L437.042 145.947L435.046 145.816ZM424.294 144.92L422.354 145.405L422.701 146.794L424.128 146.913L424.294 144.92ZM423.27 140.824L425.21 140.339L424.568 137.772L422.274 139.09L423.27 140.824ZM400.614 140.184L399.178 141.576L399.189 141.587L399.2 141.598L400.614 140.184ZM404.198 114.712L403.028 113.09L403.022 113.095L403.015 113.099L404.198 114.712ZM422.118 108.824L422.169 110.823L424.118 110.774V108.824H422.118ZM412.774 98.712L411.053 97.6924L411.048 97.7024L411.042 97.7126L412.774 98.712ZM409.958 106.392L409.763 108.382L411.554 108.558L411.917 106.795L409.958 106.392ZM421.478 131.48L422.243 133.328L423.446 132.83L423.477 131.528L421.478 131.48ZM421.734 120.728L423.733 120.776L423.787 118.546L421.564 118.735L421.734 120.728ZM412.646 123.8L413.887 125.368L413.907 125.353L413.926 125.336L412.646 123.8ZM400.146 105.618C401.376 99.2216 403.695 93.8936 407.057 89.5719L403.899 87.1161C400.093 92.0104 397.548 97.9464 396.218 104.862L400.146 105.618ZM407.068 89.5578C410.281 85.3497 414.392 83.304 419.558 83.304V79.304C413.119 79.304 407.843 81.9517 403.888 87.1302L407.068 89.5578ZM419.558 83.304C424.674 83.304 428.255 85.3765 430.614 89.5791L434.102 87.6209C431 82.0955 426.048 79.304 419.558 79.304V83.304ZM430.635 89.6154C433.192 93.954 434.582 100.369 434.582 109.08H438.582C438.582 100.042 437.156 92.8033 434.081 87.5846L430.635 89.6154ZM434.582 109.08C434.582 117.89 434.073 130.085 433.05 145.685L437.042 145.947C438.067 130.315 438.582 118.019 438.582 109.08H434.582ZM435.212 143.823L424.46 142.927L424.128 146.913L434.88 147.809L435.212 143.823ZM426.234 144.435L425.21 140.339L421.33 141.309L422.354 145.405L426.234 144.435ZM422.274 139.09C418.533 141.239 414.778 142.28 410.982 142.28V146.28C415.549 146.28 419.985 145.017 424.266 142.558L422.274 139.09ZM410.982 142.28C407.283 142.28 404.351 141.092 402.028 138.77L399.2 141.598C402.338 144.737 406.319 146.28 410.982 146.28V142.28ZM402.05 138.792C399.787 136.458 398.518 133.013 398.518 128.152H394.518C394.518 133.702 395.98 138.278 399.178 141.576L402.05 138.792ZM398.518 128.152C398.518 123.726 400.648 119.796 405.381 116.325L403.015 113.099C397.508 117.138 394.518 122.167 394.518 128.152H398.518ZM405.368 116.334C410.23 112.827 415.808 110.984 422.169 110.823L422.067 106.825C414.945 107.005 408.577 109.087 403.028 113.09L405.368 116.334ZM424.118 108.824V105.368H420.118V108.824H424.118ZM424.118 105.368C424.118 101.901 423.711 99.0105 422.704 96.9171C422.188 95.8434 421.48 94.9082 420.521 94.2441C419.546 93.5687 418.431 93.256 417.254 93.256V97.256C417.698 97.256 418.002 97.3647 418.243 97.5319C418.501 97.7104 418.805 98.0393 419.1 98.6509C419.714 99.9282 420.118 102.094 420.118 105.368H424.118ZM417.254 93.256C414.553 93.256 412.535 95.1917 411.053 97.6924L414.495 99.7316C415.743 97.6243 416.713 97.256 417.254 97.256V93.256ZM411.042 97.7126C409.64 100.143 408.633 102.91 407.999 105.989L411.917 106.795C412.478 104.071 413.349 101.718 414.506 99.7114L411.042 97.7126ZM410.153 104.401L398.377 103.249L397.987 107.23L409.763 108.382L410.153 104.401ZM407.574 128.92C407.574 130.692 408.116 132.355 409.502 133.522C410.821 134.633 412.584 135.016 414.438 135.016V131.016C413.049 131.016 412.38 130.716 412.078 130.462C411.842 130.263 411.574 129.878 411.574 128.92H407.574ZM414.438 135.016C416.967 135.016 419.575 134.432 422.243 133.328L420.713 129.632C418.432 130.576 416.346 131.016 414.438 131.016V135.016ZM423.477 131.528L423.733 120.776L419.735 120.68L419.479 131.432L423.477 131.528ZM421.564 118.735C417.341 119.095 413.852 120.192 411.366 122.264L413.926 125.336C415.536 123.995 418.105 123.044 421.904 122.721L421.564 118.735ZM411.405 122.232C409.105 124.052 407.574 126.276 407.574 128.92H411.574C411.574 127.98 412.091 126.79 413.887 125.368L411.405 122.232ZM474.041 96.92L472.53 95.6101L472.523 95.6184L474.041 96.92ZM473.657 107.032L471.914 108.013L471.937 108.053L471.961 108.092L473.657 107.032ZM478.137 111.128L477.059 112.813L477.098 112.837L477.138 112.86L478.137 111.128ZM483.257 114.328L482.095 115.955L482.16 116.002L482.228 116.043L483.257 114.328ZM487.737 117.656L489.057 116.153L489.045 116.143L489.032 116.132L487.737 117.656ZM487.481 141.208L486.218 139.657L486.21 139.664L486.201 139.672L487.481 141.208ZM463.033 142.104L461.897 143.75L461.919 143.765L461.942 143.78L463.033 142.104ZM454.329 132.888L452.832 131.562L451.856 132.664L452.618 133.923L454.329 132.888ZM461.241 125.08L462.971 124.077L461.581 121.679L459.743 123.754L461.241 125.08ZM475.321 132.888L476.497 134.505L476.543 134.472L476.587 134.436L475.321 132.888ZM470.841 122.264L471.853 120.539L471.83 120.525L471.806 120.512L470.841 122.264ZM460.985 114.584L462.51 113.29V113.29L460.985 114.584ZM463.801 88.728L465.186 90.1708L465.194 90.1636L465.201 90.1564L463.801 88.728ZM489.145 87.576L487.602 88.8488L487.62 88.8698L487.637 88.8903L489.145 87.576ZM492.729 108.568L492.554 110.56L494.35 110.718L494.693 108.948L492.729 108.568ZM481.081 107.544L479.098 107.285L478.828 109.354L480.906 109.536L481.081 107.544ZM483.465 102.68C483.465 100.018 483.143 97.7235 482.294 96.0256C481.855 95.1483 481.246 94.3702 480.414 93.8159C479.57 93.2532 478.615 93 477.625 93V97C477.915 97 478.08 97.0668 478.196 97.1441C478.324 97.2298 478.515 97.4117 478.716 97.8144C479.147 98.6765 479.465 100.222 479.465 102.68H483.465ZM477.625 93C475.592 93 473.889 94.0421 472.53 95.6101L475.552 98.2299C476.412 97.2379 477.098 97 477.625 97V93ZM472.523 95.6184C471.092 97.2869 470.505 99.4718 470.505 101.912H474.505C474.505 100.086 474.942 98.9424 475.56 98.2216L472.523 95.6184ZM470.505 101.912C470.505 104.201 470.934 106.27 471.914 108.013L475.4 106.051C474.845 105.064 474.505 103.719 474.505 101.912H470.505ZM471.961 108.092C473.036 109.812 474.804 111.369 477.059 112.813L479.215 109.443C477.203 108.156 475.985 106.983 475.353 105.972L471.961 108.092ZM477.138 112.86C479.335 114.128 480.977 115.157 482.095 115.955L484.419 112.701C483.147 111.792 481.377 110.688 479.136 109.396L477.138 112.86ZM482.228 116.043C483.38 116.734 484.782 117.769 486.442 119.18L489.032 116.132C487.279 114.642 485.694 113.458 484.286 112.613L482.228 116.043ZM486.417 119.159C489.462 121.832 490.985 125.242 490.985 129.56H494.985C494.985 124.15 493.009 119.624 489.057 116.153L486.417 119.159ZM490.985 129.56C490.985 133.744 489.416 137.054 486.218 139.657L488.744 142.759C492.885 139.388 494.985 134.933 494.985 129.56H490.985ZM486.201 139.672C482.964 142.369 479.36 143.688 475.321 143.688V147.688C480.327 147.688 484.83 146.02 488.761 142.744L486.201 139.672ZM475.321 143.688C471.172 143.688 467.458 142.599 464.124 140.428L461.942 143.78C465.947 146.388 470.424 147.688 475.321 147.688V143.688ZM464.169 140.458C460.814 138.142 458.11 135.277 456.04 131.853L452.618 133.923C454.985 137.838 458.084 141.117 461.897 143.75L464.169 140.458ZM455.827 134.214L462.739 126.406L459.743 123.754L452.832 131.562L455.827 134.214ZM459.511 126.083C462.992 132.088 467.092 135.912 471.993 135.912V131.912C469.384 131.912 466.317 129.848 462.971 124.077L459.511 126.083ZM471.993 135.912C473.65 135.912 475.182 135.462 476.497 134.505L474.145 131.271C473.583 131.679 472.896 131.912 471.993 131.912V135.912ZM476.587 134.436C478.019 133.265 478.729 131.658 478.729 129.816H474.729C474.729 130.534 474.5 130.975 474.055 131.34L476.587 134.436ZM478.729 129.816C478.729 125.995 475.968 122.954 471.853 120.539L469.829 123.989C473.564 126.182 474.729 128.176 474.729 129.816H478.729ZM471.806 120.512C467.779 118.293 464.704 115.875 462.51 113.29L459.46 115.878C462.045 118.925 465.541 121.627 469.876 124.016L471.806 120.512ZM462.51 113.29C460.528 110.954 459.401 107.508 459.401 102.68H455.401C455.401 108.092 456.664 112.582 459.46 115.878L462.51 113.29ZM459.401 102.68C459.401 98.0955 461.254 93.9459 465.186 90.1708L462.416 87.2852C457.815 91.7021 455.401 96.8538 455.401 102.68H459.401ZM465.201 90.1564C469.184 86.2529 473.271 84.456 477.497 84.456V80.456C471.995 80.456 466.951 82.8404 462.401 87.2996L465.201 90.1564ZM477.497 84.456C481.929 84.456 485.214 85.9542 487.602 88.8488L490.688 86.3032C487.444 82.3711 482.964 80.456 477.497 80.456V84.456ZM487.637 88.8903C490.137 91.7574 491.497 95.7641 491.497 101.144H495.497C495.497 95.0892 493.956 90.0506 490.653 86.2617L487.637 88.8903ZM491.497 101.144C491.497 103.301 491.257 105.647 490.765 108.188L494.693 108.948C495.225 106.198 495.497 103.595 495.497 101.144H491.497ZM492.904 106.576L481.256 105.552L480.906 109.536L492.554 110.56L492.904 106.576ZM483.064 107.803C483.326 105.795 483.465 104.08 483.465 102.68H479.465C479.465 103.84 479.348 105.368 479.098 107.285L483.064 107.803ZM184.826 280.72L182.852 281.046L183.107 282.585L184.661 282.713L184.826 280.72ZM181.882 262.928L183.855 262.602L183.566 260.859L181.801 260.93L181.882 262.928ZM162.81 263.696L162.729 261.698L161.16 261.761L160.849 263.3L162.81 263.696ZM157.946 287.76L157.775 289.753L159.552 289.905L159.906 288.156L157.946 287.76ZM140.026 286.224L138.084 285.745L137.523 288.017L139.855 288.217L140.026 286.224ZM162.938 193.424L163.11 191.431L161.406 191.284L160.996 192.945L162.938 193.424ZM186.618 195.472L188.581 195.093L188.295 193.61L186.79 193.479L186.618 195.472ZM203.386 282.256L203.221 284.249L205.85 284.467L205.349 281.877L203.386 282.256ZM173.562 210.192L175.537 209.877L171.601 209.795L173.562 210.192ZM165.498 250L163.537 249.603L163.034 252.089L165.569 251.999L165.498 250ZM179.834 249.488L179.905 251.487L182.165 251.406L181.809 249.173L179.834 249.488ZM186.799 280.394L183.855 262.602L179.908 263.255L182.852 281.046L186.799 280.394ZM181.801 260.93L162.729 261.698L162.89 265.694L181.962 264.926L181.801 260.93ZM160.849 263.3L155.985 287.364L159.906 288.156L164.77 264.092L160.849 263.3ZM158.116 285.767L140.196 284.231L139.855 288.217L157.775 289.753L158.116 285.767ZM141.967 286.703L164.879 193.903L160.996 192.945L138.084 285.745L141.967 286.703ZM162.765 195.417L186.445 197.465L186.79 193.479L163.11 191.431L162.765 195.417ZM184.654 195.851L201.422 282.635L205.349 281.877L188.581 195.093L184.654 195.851ZM203.55 280.263L184.99 278.727L184.661 282.713L203.221 284.249L203.55 280.263ZM171.601 209.795L163.537 249.603L167.458 250.397L175.522 210.589L171.601 209.795ZM165.569 251.999L179.905 251.487L179.762 247.489L165.426 248.001L165.569 251.999ZM181.809 249.173L175.537 209.877L171.587 210.507L177.859 249.803L181.809 249.173ZM273.122 282.256L271.125 282.369L271.222 284.098L272.948 284.248L273.122 282.256ZM272.61 207.632L274.608 207.716L274.708 205.32L272.333 205.651L272.61 207.632ZM256.994 209.808L255.029 210.181L255.383 212.052L257.27 211.789L256.994 209.808ZM254.178 194.96L253.836 192.989L251.834 193.337L252.213 195.333L254.178 194.96ZM279.01 191.76L278.903 189.763L278.873 189.764L278.843 189.767L279.01 191.76ZM302.946 190.48L304.917 190.143L304.616 188.388L302.839 188.483L302.946 190.48ZM305.378 204.688L305.486 206.685L307.728 206.563L307.349 204.351L305.378 204.688ZM289.506 205.84L289.332 203.848L287.58 204L287.507 205.757L289.506 205.84ZM289.25 283.664L289.076 285.656L291.289 285.85L291.249 283.628L289.25 283.664ZM275.118 282.143C274.266 267.065 273.842 253.963 273.842 242.832H269.842C269.842 254.059 270.27 267.239 271.125 282.369L275.118 282.143ZM273.842 242.832C273.842 231.598 274.097 219.893 274.608 207.716L270.611 207.548C270.098 219.776 269.842 231.538 269.842 242.832H273.842ZM272.333 205.651L256.717 207.827L257.27 211.789L272.886 209.613L272.333 205.651ZM258.958 209.435L256.143 194.587L252.213 195.333L255.029 210.181L258.958 209.435ZM254.519 196.931C262.826 195.49 271.044 194.431 279.176 193.753L278.843 189.767C270.591 190.455 262.255 191.529 253.836 192.989L254.519 196.931ZM279.116 193.757L303.052 192.477L302.839 188.483L278.903 189.763L279.116 193.757ZM300.974 190.817L303.406 205.025L307.349 204.351L304.917 190.143L300.974 190.817ZM305.269 202.691C300.549 202.948 295.237 203.334 289.332 203.848L289.679 207.832C295.551 207.322 300.819 206.94 305.486 206.685L305.269 202.691ZM287.507 205.757C286.994 218.067 286.738 229.359 286.738 239.632H290.738C290.738 229.425 290.993 218.189 291.504 205.923L287.507 205.757ZM286.738 239.632C286.738 249.89 286.908 264.581 287.25 283.7L291.249 283.628C290.908 264.517 290.738 249.854 290.738 239.632H286.738ZM289.423 281.672L273.295 280.264L272.948 284.248L289.076 285.656L289.423 281.672ZM324.229 220.944L324.421 218.953L322.229 218.742V220.944H324.229ZM338.821 222.352H340.821V220.536L339.013 220.361L338.821 222.352ZM338.821 283.792L338.628 285.783L340.821 285.994V283.792H338.821ZM324.229 282.384H322.229V284.2L324.036 284.375L324.229 282.384ZM325.253 198.416L325.483 196.429L323.445 196.193L323.261 198.237L325.253 198.416ZM339.589 200.08L341.581 200.258L341.754 198.318L339.819 198.093L339.589 200.08ZM338.309 214.416L338.06 216.401L340.116 216.658L340.301 214.594L338.309 214.416ZM323.973 212.624L321.981 212.445L321.807 214.369L323.724 214.609L323.973 212.624ZM324.036 222.935L338.628 224.343L339.013 220.361L324.421 218.953L324.036 222.935ZM336.821 222.352V283.792H340.821V222.352H336.821ZM339.013 281.801L324.421 280.393L324.036 284.375L338.628 285.783L339.013 281.801ZM326.229 282.384V220.944H322.229V282.384H326.229ZM325.022 200.403L339.358 202.067L339.819 198.093L325.483 196.429L325.022 200.403ZM337.596 199.902L336.316 214.238L340.301 214.594L341.581 200.258L337.596 199.902ZM338.557 212.431L324.221 210.639L323.724 214.609L338.06 216.401L338.557 212.431ZM325.964 212.803L327.244 198.595L323.261 198.237L321.981 212.445L325.964 212.803ZM388.527 263.44L389.546 261.719L387.821 260.698L386.803 262.425L388.527 263.44ZM398.255 269.2L399.988 270.198L400.974 268.486L399.273 267.479L398.255 269.2ZM393.518 276.368L391.944 275.135L391.927 275.157L391.91 275.179L393.518 276.368ZM363.311 277.904L361.746 279.15L361.752 279.157L361.757 279.164L363.311 277.904ZM362.543 234.512L360.702 233.729L360.697 233.74L360.693 233.752L362.543 234.512ZM369.839 224.784L371.072 226.358L371.078 226.354L369.839 224.784ZM387.887 222.608L386.934 224.367L386.963 224.382L386.992 224.397L387.887 222.608ZM392.751 226.192L391.245 227.509L391.289 227.559L391.336 227.606L392.751 226.192ZM396.078 231.952L394.201 232.641L396.078 231.952ZM397.999 238.224L396.041 238.636L396.052 238.685L396.064 238.733L397.999 238.224ZM399.023 245.264L397.029 245.43L399.023 245.264ZM399.535 256.4L400.065 258.328L401.535 257.924V256.4H399.535ZM373.039 261.52L372.758 259.54L370.904 259.803L371.044 261.67L373.039 261.52ZM374.831 269.712L373.012 270.545L374.831 269.712ZM375.854 239.12L374.003 238.363L373.996 238.381L373.989 238.399L375.854 239.12ZM373.294 252.176L371.297 252.073L371.163 254.661L373.701 254.134L373.294 252.176ZM385.07 249.488L385.567 251.425L387.07 251.04V249.488H385.07ZM378.159 274.784C380.452 274.784 382.584 273.68 384.521 271.934C386.46 270.186 388.362 267.659 390.25 264.455L386.803 262.425C385.021 265.45 383.361 267.595 381.844 268.962C380.325 270.331 379.107 270.784 378.159 270.784V274.784ZM387.508 265.161L397.236 270.921L399.273 267.479L389.546 261.719L387.508 265.161ZM396.521 268.202C394.934 270.959 393.407 273.266 391.944 275.135L395.094 277.601C396.702 275.545 398.333 273.073 399.988 270.198L396.521 268.202ZM391.91 275.179C390.668 276.86 388.683 278.575 385.834 280.285L387.892 283.715C391.015 281.841 393.468 279.801 395.127 277.557L391.91 275.179ZM385.834 280.285C383.175 281.88 380.206 282.688 376.879 282.688V286.688C380.89 286.688 384.577 285.704 387.892 283.715L385.834 280.285ZM376.879 282.688C372.16 282.688 368.189 280.743 364.864 276.644L361.757 279.164C365.77 284.11 370.845 286.688 376.879 286.688V282.688ZM364.875 276.658C361.566 272.503 359.807 266.801 359.807 259.344H355.807C355.807 267.417 357.716 274.089 361.746 279.15L364.875 276.658ZM359.807 259.344C359.807 250.712 361.341 242.695 364.392 235.272L360.693 233.752C357.43 241.689 355.807 250.227 355.807 259.344H359.807ZM364.383 235.295C365.969 231.567 368.203 228.607 371.072 226.358L368.605 223.21C365.159 225.911 362.529 229.435 360.702 233.729L364.383 235.295ZM371.078 226.354C374.055 224.004 376.916 222.944 379.695 222.944V218.944C375.817 218.944 372.108 220.444 368.599 223.214L371.078 226.354ZM379.695 222.944C382.919 222.944 385.283 223.472 386.934 224.367L388.839 220.849C386.394 219.525 383.297 218.944 379.695 218.944V222.944ZM386.992 224.397C388.866 225.334 390.26 226.383 391.245 227.509L394.256 224.875C392.852 223.27 391.003 221.93 388.781 220.819L386.992 224.397ZM391.336 227.606C392.334 228.604 393.316 230.228 394.201 232.641L397.956 231.263C396.964 228.556 395.727 226.34 394.165 224.778L391.336 227.606ZM394.201 232.641C395.125 235.16 395.728 237.149 396.041 238.636L399.956 237.812C399.586 236.056 398.91 233.864 397.956 231.263L394.201 232.641ZM396.064 238.733C396.446 240.185 396.776 242.395 397.029 245.43L401.016 245.098C400.757 241.989 400.404 239.506 399.933 237.715L396.064 238.733ZM397.029 245.43C397.367 249.483 397.535 253.138 397.535 256.4H401.535C401.535 253.006 401.361 249.237 401.016 245.098L397.029 245.43ZM399.004 254.472C392.291 256.318 383.551 258.01 372.758 259.54L373.319 263.5C384.201 261.958 393.125 260.237 400.065 258.328L399.004 254.472ZM371.044 261.67C371.31 265.209 371.937 268.2 373.012 270.545L376.649 268.879C375.846 267.128 375.279 264.657 375.033 261.37L371.044 261.67ZM373.012 270.545C374.016 272.735 375.62 274.784 378.159 274.784V270.784C378.11 270.784 377.979 270.782 377.723 270.546C377.434 270.28 377.057 269.77 376.649 268.879L373.012 270.545ZM380.975 231.488C379.294 231.488 377.9 232.348 376.807 233.551C375.731 234.734 374.813 236.383 374.003 238.363L377.706 239.877C378.432 238.103 379.136 236.935 379.766 236.241C380.38 235.567 380.777 235.488 380.975 235.488V231.488ZM373.989 238.399C372.447 242.391 371.562 246.959 371.297 252.073L375.292 252.279C375.539 247.494 376.361 243.358 377.72 239.841L373.989 238.399ZM373.701 254.134C378.244 253.191 382.201 252.288 385.567 251.425L384.574 247.551C381.284 248.394 377.39 249.283 372.888 250.218L373.701 254.134ZM387.07 249.488C387.07 244.113 386.731 239.909 385.984 236.992C385.613 235.543 385.102 234.245 384.353 233.27C383.559 232.237 382.423 231.488 380.975 231.488V235.488C380.981 235.488 380.976 235.489 380.966 235.486C380.957 235.483 380.954 235.481 380.96 235.484C380.973 235.492 381.053 235.541 381.18 235.706C381.455 236.064 381.797 236.766 382.109 237.984C382.728 240.401 383.07 244.197 383.07 249.488H387.07Z" fill="white" mask="url(#path-4-outside-1_39_575)"/>
</g>
<defs>
<filter id="filter0_d_39_575" x="36.4001" y="50.712" width="464.097" height="239.048" filterUnits="userSpaceOnUse" color-interpolation-filters="sRGB">
<feFlood flood-opacity="0" result="BackgroundImageFix"/>
<feColorMatrix in="SourceAlpha" type="matrix" values="0 0 0 0 0 0 0 0 0 0 0 0 0 0 0 0 0 0 127 0" result="hardAlpha"/>
<feOffset dx="7" dy="2"/>
<feComposite in2="hardAlpha" operator="out"/>
<feColorMatrix type="matrix" values="0 0 0 0 0.870588 0 0 0 0 0.619608 0 0 0 0 0.27451 0 0 0 1 0"/>
<feBlend mode="normal" in2="BackgroundImageFix" result="effect1_dropShadow_39_575"/>
<feBlend mode="normal" in="SourceGraphic" in2="effect1_dropShadow_39_575" result="shape"/>
</filter>
</defs>
</svg>
