<svg width="429" height="436" viewBox="0 0 429 436" fill="none" xmlns="http://www.w3.org/2000/svg">
<path d="M391.785 256.215C391.785 256.215 391.727 147.668 333.594 95.8263C282.278 50.0635 211.626 40.7672 164.183 93.6843C147.279 112.54 126.837 132.19 105.605 145.364C81.7994 160.135 53.9714 166.884 37.7688 215.795C21.5662 264.707 46.6553 336.43 83.4561 361.824C120.257 387.217 177.923 377.779 227.458 367.161C276.993 356.543 387.467 390.903 391.785 256.215Z" fill="#92E3A9"/>
<path opacity="0.7" d="M391.785 256.215C391.785 256.215 391.727 147.668 333.594 95.8263C282.278 50.0635 211.626 40.7672 164.183 93.6843C147.279 112.54 126.837 132.19 105.605 145.364C81.7994 160.135 53.9714 166.884 37.7688 215.795C21.5662 264.707 46.6553 336.43 83.4561 361.824C120.257 387.217 177.923 377.779 227.458 367.161C276.993 356.543 387.467 390.903 391.785 256.215Z" fill="white"/>
<path opacity="0.16" d="M215.085 411.135C280.333 411.135 333.227 404.683 333.227 396.724C333.227 388.766 280.333 382.314 215.085 382.314C149.837 382.314 96.9429 388.766 96.9429 396.724C96.9429 404.683 149.837 411.135 215.085 411.135Z" fill="black"/>
<path opacity="0.07" d="M333.597 95.824C325.322 88.4432 316.545 82.0159 307.444 76.6491L230.565 192.187L335.042 97.1456C334.568 96.6943 334.084 96.256 333.597 95.824ZM264.795 59.9313C252.616 57.462 240.344 56.936 228.339 58.5534L230.565 192.187L264.795 59.9313ZM184.217 75.8343C177.194 80.7289 170.484 86.6579 164.184 93.6859C162.093 96.0227 159.948 98.3587 157.755 100.709L230.565 192.187L184.217 75.8343ZM121.141 134.542C116.035 138.471 110.844 142.115 105.609 145.364C94.0787 152.513 81.6062 157.789 69.9731 166.883L230.565 192.187L121.141 134.542ZM33.0306 240.927C31.625 261.775 35.5784 284.343 43.225 304.75L230.565 192.187L33.0306 240.927ZM230.565 192.187L96.8183 369.199C116.279 377.657 139.667 379.184 163.908 377.347L230.565 192.187ZM230.565 192.187L236.931 365.699C250.672 364.227 267.463 364.683 284.856 363.935L230.565 192.187ZM380.711 312.418L230.565 192.187L347.463 349.776C361.079 342.161 372.75 330.461 380.711 312.418ZM387.061 208.722L230.565 192.187L391.634 250.516C391.308 242.65 390.283 227.306 387.061 208.722ZM361.713 131.949L230.565 192.187L375.482 163.165C371.793 152.591 367.267 142.009 361.713 131.949Z" fill="black"/>
<g filter="url(#filter0_d_42_36)">
<mask id="path-5-outside-1_42_36" maskUnits="userSpaceOnUse" x="125" y="99" width="183" height="238" fill="black">
<rect fill="white" x="125" y="99" width="183" height="238"/>
<path d="M151.961 168.552V158.696C140.782 135.059 134.595 118.035 133.401 107.624L149.401 109.16C151.278 118.717 155.203 130.152 161.177 143.464C168.259 128.019 173.763 114.067 177.689 101.608L192.537 103.016C186.222 121.021 178.627 139.325 169.753 157.928C169.582 165.608 169.497 172.349 169.497 178.152C169.497 183.955 169.667 189.8 170.009 195.688L153.113 193.896C152.345 185.96 151.961 177.512 151.961 168.552ZM208.861 169.96C208.861 179.603 210.994 184.424 215.261 184.424C217.138 184.424 218.717 181.736 219.997 176.36C221.277 170.899 221.917 165.693 221.917 160.744C221.917 149.821 220.125 144.36 216.541 144.36C214.237 144.36 212.359 147.304 210.909 153.192C209.543 158.995 208.861 164.584 208.861 169.96ZM193.885 168.808C193.885 160.872 195.506 153.107 198.749 145.512C200.455 141.672 202.845 138.557 205.917 136.168C209.074 133.693 212.573 132.456 216.413 132.456C220.253 132.456 223.538 133.352 226.269 135.144C229.085 136.851 231.218 139.155 232.669 142.056C235.485 147.773 236.893 154.003 236.893 160.744C236.893 170.045 234.973 178.323 231.133 185.576C227.378 192.744 222.087 196.328 215.261 196.328C201.01 196.328 193.885 187.155 193.885 168.808ZM295.282 132.968L295.026 153.192C295.026 172.221 295.367 186.216 296.049 195.176L283.378 193.896C283.122 190.312 282.567 186.685 281.714 183.016C277.02 189.928 272.284 193.384 267.506 193.384C262.812 193.384 259.057 191.763 256.241 188.52C253.425 185.277 252.017 180.797 252.017 175.08C252.017 163.987 252.828 150.76 254.449 135.4L269.298 136.808C267.762 151.4 266.993 163.517 266.993 173.16C266.993 177.512 268.359 179.688 271.09 179.688C272.37 179.688 273.906 177.939 275.698 174.44C277.575 170.941 279.068 166.717 280.178 161.768C280.092 159.891 280.049 157.672 280.049 155.112C280.049 152.552 280.178 144.744 280.434 131.688L295.282 132.968ZM160.625 251.872L173.425 253.024C174.022 259.851 174.918 268.896 176.113 280.16C177.393 291.339 178.289 299.275 178.801 303.968L179.441 303.84C185.499 277.728 189.425 257.291 191.217 242.528L207.985 243.936C203.206 272.181 196.209 301.195 186.993 330.976L174.705 329.952C171.803 319.883 168.561 306.699 164.977 290.4C161.307 307.979 157.809 322.016 154.481 332.512L142.193 331.488C134.939 295.307 130.033 265.952 127.473 243.424L143.985 244.832C145.35 259.253 147.483 278.965 150.385 303.968L151.025 303.84C155.974 281.056 159.174 263.733 160.625 251.872ZM225.02 270.944L239.612 272.352V333.792L225.02 332.384V270.944ZM226.044 248.416L240.38 250.08L239.1 264.416L224.764 262.624L226.044 248.416ZM288.293 271.072C299.557 271.072 305.189 280.459 305.189 299.232C305.189 309.131 304.635 319.627 303.525 330.72L288.549 329.312C289.488 319.584 289.957 309.771 289.957 299.872C289.957 289.888 288.549 284.896 285.733 284.896C284.368 284.896 282.619 288.352 280.485 295.264C278.352 302.091 277.029 308.789 276.517 315.36C276.688 318.859 277.029 325.173 277.541 334.304L262.565 332.896C261.627 320.864 261.157 310.283 261.157 301.152C261.157 292.021 261.413 283.829 261.925 276.576L271.397 277.6C271.568 278.283 272.208 281.056 273.317 285.92C278.267 276.021 283.259 271.072 288.293 271.072Z"/>
</mask>
<path d="M151.961 168.552V158.696C140.782 135.059 134.595 118.035 133.401 107.624L149.401 109.16C151.278 118.717 155.203 130.152 161.177 143.464C168.259 128.019 173.763 114.067 177.689 101.608L192.537 103.016C186.222 121.021 178.627 139.325 169.753 157.928C169.582 165.608 169.497 172.349 169.497 178.152C169.497 183.955 169.667 189.8 170.009 195.688L153.113 193.896C152.345 185.96 151.961 177.512 151.961 168.552ZM208.861 169.96C208.861 179.603 210.994 184.424 215.261 184.424C217.138 184.424 218.717 181.736 219.997 176.36C221.277 170.899 221.917 165.693 221.917 160.744C221.917 149.821 220.125 144.36 216.541 144.36C214.237 144.36 212.359 147.304 210.909 153.192C209.543 158.995 208.861 164.584 208.861 169.96ZM193.885 168.808C193.885 160.872 195.506 153.107 198.749 145.512C200.455 141.672 202.845 138.557 205.917 136.168C209.074 133.693 212.573 132.456 216.413 132.456C220.253 132.456 223.538 133.352 226.269 135.144C229.085 136.851 231.218 139.155 232.669 142.056C235.485 147.773 236.893 154.003 236.893 160.744C236.893 170.045 234.973 178.323 231.133 185.576C227.378 192.744 222.087 196.328 215.261 196.328C201.01 196.328 193.885 187.155 193.885 168.808ZM295.282 132.968L295.026 153.192C295.026 172.221 295.367 186.216 296.049 195.176L283.378 193.896C283.122 190.312 282.567 186.685 281.714 183.016C277.02 189.928 272.284 193.384 267.506 193.384C262.812 193.384 259.057 191.763 256.241 188.52C253.425 185.277 252.017 180.797 252.017 175.08C252.017 163.987 252.828 150.76 254.449 135.4L269.298 136.808C267.762 151.4 266.993 163.517 266.993 173.16C266.993 177.512 268.359 179.688 271.09 179.688C272.37 179.688 273.906 177.939 275.698 174.44C277.575 170.941 279.068 166.717 280.178 161.768C280.092 159.891 280.049 157.672 280.049 155.112C280.049 152.552 280.178 144.744 280.434 131.688L295.282 132.968ZM160.625 251.872L173.425 253.024C174.022 259.851 174.918 268.896 176.113 280.16C177.393 291.339 178.289 299.275 178.801 303.968L179.441 303.84C185.499 277.728 189.425 257.291 191.217 242.528L207.985 243.936C203.206 272.181 196.209 301.195 186.993 330.976L174.705 329.952C171.803 319.883 168.561 306.699 164.977 290.4C161.307 307.979 157.809 322.016 154.481 332.512L142.193 331.488C134.939 295.307 130.033 265.952 127.473 243.424L143.985 244.832C145.35 259.253 147.483 278.965 150.385 303.968L151.025 303.84C155.974 281.056 159.174 263.733 160.625 251.872ZM225.02 270.944L239.612 272.352V333.792L225.02 332.384V270.944ZM226.044 248.416L240.38 250.08L239.1 264.416L224.764 262.624L226.044 248.416ZM288.293 271.072C299.557 271.072 305.189 280.459 305.189 299.232C305.189 309.131 304.635 319.627 303.525 330.72L288.549 329.312C289.488 319.584 289.957 309.771 289.957 299.872C289.957 289.888 288.549 284.896 285.733 284.896C284.368 284.896 282.619 288.352 280.485 295.264C278.352 302.091 277.029 308.789 276.517 315.36C276.688 318.859 277.029 325.173 277.541 334.304L262.565 332.896C261.627 320.864 261.157 310.283 261.157 301.152C261.157 292.021 261.413 283.829 261.925 276.576L271.397 277.6C271.568 278.283 272.208 281.056 273.317 285.92C278.267 276.021 283.259 271.072 288.293 271.072Z" fill="#1C404C"/>
<path d="M151.961 158.696H153.961V158.247L153.769 157.841L151.961 158.696ZM133.401 107.624L133.592 105.633L131.132 105.397L131.414 107.852L133.401 107.624ZM149.401 109.16L151.363 108.774L151.076 107.312L149.592 107.169L149.401 109.16ZM161.177 143.464L159.352 144.283L161.157 148.305L162.994 144.298L161.177 143.464ZM177.689 101.608L177.877 99.6169L176.267 99.4642L175.781 101.007L177.689 101.608ZM192.536 103.016L194.424 103.678L195.27 101.266L192.725 101.025L192.536 103.016ZM169.753 157.928L167.947 157.067L167.763 157.454L167.753 157.884L169.753 157.928ZM170.009 195.688L169.798 197.677L172.142 197.925L172.005 195.572L170.009 195.688ZM153.113 193.896L151.122 194.089L151.279 195.713L152.902 195.885L153.113 193.896ZM153.961 168.552V158.696H149.961V168.552H153.961ZM153.769 157.841C142.585 134.192 136.54 117.44 135.387 107.396L131.414 107.852C132.65 118.629 138.979 135.925 150.152 159.551L153.769 157.841ZM133.209 109.615L149.209 111.151L149.592 107.169L133.592 105.633L133.209 109.615ZM147.438 109.545C149.355 119.306 153.344 130.893 159.352 144.283L163.001 142.645C157.063 129.41 153.2 118.129 151.363 108.774L147.438 109.545ZM162.994 144.298C170.102 128.798 175.64 114.766 179.596 102.209L175.781 101.007C171.887 113.367 166.416 127.239 159.359 142.63L162.994 144.298ZM177.5 103.599L192.348 105.007L192.725 101.025L177.877 99.6169L177.5 103.599ZM190.649 102.354C184.36 120.286 176.794 138.524 167.947 157.067L171.558 158.789C180.461 140.127 188.084 121.756 194.424 103.678L190.649 102.354ZM167.753 157.884C167.582 165.574 167.497 172.331 167.497 178.152H171.497C171.497 172.368 171.582 165.642 171.752 157.972L167.753 157.884ZM167.497 178.152C167.497 183.994 167.668 189.878 168.012 195.804L172.005 195.572C171.666 189.722 171.497 183.915 171.497 178.152H167.497ZM170.219 193.699L153.323 191.907L152.902 195.885L169.798 197.677L170.219 193.699ZM155.103 193.703C154.342 185.839 153.961 177.455 153.961 168.552H149.961C149.961 177.569 150.347 186.081 151.122 194.089L155.103 193.703ZM219.997 176.36L221.942 176.823L221.944 176.816L219.997 176.36ZM210.909 153.192L208.967 152.714L208.964 152.724L208.962 152.734L210.909 153.192ZM198.748 145.512L196.921 144.7L196.915 144.713L196.909 144.727L198.748 145.512ZM205.917 136.168L207.144 137.747L207.15 137.742L205.917 136.168ZM226.269 135.144L225.171 136.816L225.201 136.836L225.232 136.854L226.269 135.144ZM232.669 142.056L234.463 141.172L234.457 141.162L232.669 142.056ZM231.133 185.576L229.365 184.64L229.361 184.648L231.133 185.576ZM206.861 169.96C206.861 174.867 207.394 178.82 208.632 181.617C209.261 183.039 210.112 184.255 211.257 185.117C212.427 185.999 213.79 186.424 215.26 186.424V182.424C214.598 182.424 214.094 182.246 213.664 181.923C213.209 181.58 212.727 180.988 212.289 179.999C211.394 177.974 210.861 174.696 210.861 169.96H206.861ZM215.26 186.424C217.287 186.424 218.675 184.958 219.577 183.421C220.516 181.822 221.286 179.58 221.942 176.823L218.051 175.897C217.427 178.516 216.768 180.306 216.128 181.395C215.452 182.546 215.111 182.424 215.26 182.424V186.424ZM221.944 176.816C223.254 171.225 223.917 165.866 223.917 160.744H219.917C219.917 165.521 219.299 170.572 218.049 175.904L221.944 176.816ZM223.917 160.744C223.917 155.225 223.47 150.872 222.473 147.832C221.497 144.858 219.679 142.36 216.54 142.36V146.36C216.986 146.36 217.856 146.592 218.672 149.08C219.467 151.501 219.917 155.34 219.917 160.744H223.917ZM216.54 142.36C214.4 142.36 212.823 143.76 211.718 145.493C210.607 147.236 209.712 149.69 208.967 152.714L212.85 153.67C213.556 150.806 214.325 148.844 215.091 147.643C215.863 146.432 216.377 146.36 216.54 146.36V142.36ZM208.962 152.734C207.565 158.671 206.861 164.414 206.861 169.96H210.861C210.861 164.754 211.522 159.319 212.855 153.65L208.962 152.734ZM195.884 168.808C195.884 161.153 197.447 153.654 200.588 146.297L196.909 144.727C193.565 152.559 191.884 160.591 191.884 168.808H195.884ZM200.576 146.324C202.16 142.761 204.353 139.918 207.144 137.747L204.689 134.589C201.336 137.197 198.75 140.583 196.921 144.7L200.576 146.324ZM207.15 137.742C209.972 135.53 213.041 134.456 216.412 134.456V130.456C212.104 130.456 208.175 131.857 204.683 134.594L207.15 137.742ZM216.412 134.456C219.932 134.456 222.82 135.273 225.171 136.816L227.366 133.472C224.255 131.431 220.573 130.456 216.412 130.456V134.456ZM225.232 136.854C227.73 138.369 229.6 140.392 230.88 142.95L234.457 141.162C232.835 137.917 230.439 135.333 227.305 133.434L225.232 136.854ZM230.874 142.94C233.547 148.366 234.893 154.291 234.893 160.744H238.893C238.893 153.714 237.422 147.18 234.463 141.172L230.874 142.94ZM234.893 160.744C234.893 169.763 233.033 177.712 229.365 184.64L232.9 186.512C236.912 178.934 238.893 170.328 238.893 160.744H234.893ZM229.361 184.648C225.874 191.304 221.19 194.328 215.26 194.328V198.328C222.984 198.328 228.882 194.184 232.904 186.504L229.361 184.648ZM215.26 194.328C208.597 194.328 203.906 192.209 200.808 188.221C197.636 184.137 195.884 177.778 195.884 168.808H191.884C191.884 178.185 193.696 185.586 197.649 190.675C201.677 195.86 207.673 198.328 215.26 198.328V194.328ZM295.281 132.968L297.281 132.993L297.305 131.135L295.453 130.975L295.281 132.968ZM295.025 153.192L293.026 153.167L293.025 153.179V153.192H295.025ZM296.049 195.176L295.848 197.166L298.225 197.406L298.044 195.024L296.049 195.176ZM283.378 193.896L281.383 194.038L281.502 195.717L283.176 195.886L283.378 193.896ZM281.714 183.016L283.662 182.563L282.626 178.111L280.059 181.892L281.714 183.016ZM256.242 188.52L254.731 189.831L256.242 188.52ZM254.449 135.4L254.638 133.409L252.668 133.222L252.461 135.19L254.449 135.4ZM269.298 136.808L271.287 137.017L271.498 135.008L269.486 134.817L269.298 136.808ZM275.697 174.44L273.935 173.494L273.926 173.511L273.917 173.528L275.697 174.44ZM280.178 161.768L282.129 162.205L282.188 161.944L282.175 161.677L280.178 161.768ZM280.434 131.688L280.605 129.695L278.476 129.512L278.434 131.649L280.434 131.688ZM293.282 132.943L293.026 153.167L297.025 153.217L297.281 132.993L293.282 132.943ZM293.025 153.192C293.025 172.229 293.366 186.288 294.055 195.328L298.044 195.024C297.367 186.144 297.025 172.214 297.025 153.192H293.025ZM296.251 193.186L283.579 191.906L283.176 195.886L295.848 197.166L296.251 193.186ZM285.372 193.753C285.109 190.06 284.537 186.329 283.662 182.563L279.765 183.469C280.596 187.041 281.134 190.564 281.383 194.038L285.372 193.753ZM280.059 181.892C275.463 188.661 271.249 191.384 267.505 191.384V195.384C273.319 195.384 278.577 191.195 283.368 184.139L280.059 181.892ZM267.505 191.384C263.331 191.384 260.15 189.97 257.752 187.209L254.731 189.831C257.965 193.555 262.293 195.384 267.505 195.384V191.384ZM257.752 187.209C255.343 184.436 254.018 180.477 254.018 175.08H250.018C250.018 181.118 251.508 186.119 254.731 189.831L257.752 187.209ZM254.018 175.08C254.018 164.078 254.822 150.925 256.438 135.61L252.461 135.19C250.834 150.595 250.018 163.895 250.018 175.08H254.018ZM254.261 137.391L269.109 138.799L269.486 134.817L254.638 133.409L254.261 137.391ZM267.308 136.599C265.769 151.228 264.993 163.421 264.993 173.16H268.993C268.993 163.613 269.754 151.572 271.287 137.017L267.308 136.599ZM264.993 173.16C264.993 175.48 265.346 177.561 266.323 179.119C267.399 180.833 269.088 181.688 271.09 181.688V177.688C270.36 177.688 270.002 177.455 269.712 176.993C269.324 176.375 268.993 175.191 268.993 173.16H264.993ZM271.09 181.688C272.631 181.688 273.845 180.674 274.704 179.696C275.63 178.641 276.55 177.162 277.478 175.352L273.917 173.528C273.053 175.216 272.309 176.362 271.699 177.056C271.022 177.827 270.828 177.688 271.09 177.688V181.688ZM277.46 175.386C279.443 171.69 280.99 167.285 282.129 162.205L278.226 161.331C277.146 166.149 275.707 170.193 273.935 173.494L277.46 175.386ZM282.175 161.677C282.092 159.839 282.049 157.652 282.049 155.112H278.049C278.049 157.692 278.092 159.943 278.18 161.859L282.175 161.677ZM282.049 155.112C282.049 152.577 282.177 144.794 282.433 131.727L278.434 131.649C278.178 144.694 278.049 152.527 278.049 155.112H282.049ZM280.262 133.681L295.11 134.961L295.453 130.975L280.605 129.695L280.262 133.681ZM160.625 251.872L160.804 249.88L158.874 249.706L158.639 251.629L160.625 251.872ZM173.425 253.024L175.417 252.85L175.271 251.182L173.604 251.032L173.425 253.024ZM176.113 280.16L174.124 280.371L174.125 280.379L174.125 280.387L176.113 280.16ZM178.801 303.968L176.812 304.185L177.049 306.358L179.193 305.929L178.801 303.968ZM179.441 303.84L179.833 305.801L181.097 305.548L181.389 304.292L179.441 303.84ZM191.217 242.528L191.384 240.535L189.463 240.374L189.231 242.287L191.217 242.528ZM207.985 243.936L209.956 244.27L210.319 242.125L208.152 241.943L207.985 243.936ZM186.993 330.976L186.826 332.969L188.428 333.103L188.903 331.567L186.993 330.976ZM174.705 329.952L172.783 330.506L173.164 331.831L174.538 331.945L174.705 329.952ZM164.977 290.4L166.93 289.97L163.019 289.991L164.977 290.4ZM154.481 332.512L154.314 334.505L155.905 334.638L156.387 333.116L154.481 332.512ZM142.193 331.488L140.232 331.881L140.527 333.356L142.026 333.481L142.193 331.488ZM127.473 243.424L127.642 241.431L125.21 241.224L125.485 243.65L127.473 243.424ZM143.985 244.832L145.976 244.643L145.818 242.981L144.154 242.839L143.985 244.832ZM150.385 303.968L148.398 304.199L148.648 306.355L150.777 305.929L150.385 303.968ZM151.025 303.84L151.417 305.801L152.701 305.544L152.979 304.265L151.025 303.84ZM160.445 253.864L173.245 255.016L173.604 251.032L160.804 249.88L160.445 253.864ZM171.432 253.198C172.031 260.042 172.928 269.101 174.124 280.371L178.101 279.949C176.907 268.69 176.013 259.659 175.417 252.85L171.432 253.198ZM174.125 280.387C175.405 291.566 176.301 299.497 176.812 304.185L180.789 303.751C180.276 299.052 179.38 291.111 178.1 279.932L174.125 280.387ZM179.193 305.929L179.833 305.801L179.048 301.879L178.408 302.007L179.193 305.929ZM181.389 304.292C187.453 278.156 191.397 257.637 193.202 242.769L189.231 242.287C187.452 256.944 183.545 277.3 177.492 303.388L181.389 304.292ZM191.049 244.521L207.817 245.929L208.152 241.943L191.384 240.535L191.049 244.521ZM206.013 243.602C201.25 271.753 194.274 300.68 185.082 330.385L188.903 331.567C198.143 301.709 205.162 272.609 209.956 244.27L206.013 243.602ZM187.159 328.983L174.871 327.959L174.538 331.945L186.826 332.969L187.159 328.983ZM176.626 329.398C173.742 319.387 170.509 306.249 166.93 289.97L163.023 290.829C166.612 307.149 169.865 320.379 172.783 330.506L176.626 329.398ZM163.019 289.991C159.356 307.539 155.873 321.503 152.574 331.907L156.387 333.116C159.744 322.529 163.259 308.418 166.934 290.809L163.019 289.991ZM154.647 330.519L142.359 329.495L142.026 333.481L154.314 334.505L154.647 330.519ZM144.153 331.095C136.905 294.939 132.011 265.646 129.46 243.198L125.485 243.65C128.054 266.258 132.973 295.674 140.232 331.881L144.153 331.095ZM127.303 245.417L143.815 246.825L144.154 242.839L127.642 241.431L127.303 245.417ZM141.993 245.02C143.361 259.462 145.496 279.19 148.398 304.199L152.371 303.737C149.47 278.74 147.339 259.044 145.976 244.643L141.993 245.02ZM150.777 305.929L151.417 305.801L150.632 301.879L149.992 302.007L150.777 305.929ZM152.979 304.265C157.932 281.465 161.148 264.07 162.61 252.115L158.639 251.629C157.2 263.396 154.016 280.646 149.07 303.415L152.979 304.265ZM225.02 270.944L225.212 268.953L223.02 268.742V270.944H225.02ZM239.612 272.352H241.612V270.536L239.804 270.361L239.612 272.352ZM239.612 333.792L239.419 335.783L241.612 335.994V333.792H239.612ZM225.02 332.384H223.02V334.2L224.827 334.375L225.02 332.384ZM226.044 248.416L226.274 246.429L224.236 246.193L224.052 248.237L226.044 248.416ZM240.38 250.08L242.372 250.258L242.545 248.318L240.61 248.093L240.38 250.08ZM239.1 264.416L238.851 266.401L240.907 266.658L241.092 264.594L239.1 264.416ZM224.764 262.624L222.772 262.445L222.598 264.369L224.515 264.609L224.764 262.624ZM224.827 272.935L239.419 274.343L239.804 270.361L225.212 268.953L224.827 272.935ZM237.612 272.352V333.792H241.612V272.352H237.612ZM239.804 331.801L225.212 330.393L224.827 334.375L239.419 335.783L239.804 331.801ZM227.02 332.384V270.944H223.02V332.384H227.02ZM225.813 250.403L240.149 252.067L240.61 248.093L226.274 246.429L225.813 250.403ZM238.387 249.902L237.107 264.238L241.092 264.594L242.372 250.258L238.387 249.902ZM239.348 262.431L225.012 260.639L224.515 264.609L238.851 266.401L239.348 262.431ZM226.755 262.803L228.035 248.595L224.052 248.237L222.772 262.445L226.755 262.803ZM303.525 330.72L303.338 332.711L305.318 332.897L305.516 330.919L303.525 330.72ZM288.549 329.312L286.559 329.12L286.366 331.116L288.362 331.303L288.549 329.312ZM280.485 295.264L282.394 295.861L282.397 295.854L280.485 295.264ZM276.517 315.36L274.524 315.205L274.514 315.331L274.52 315.457L276.517 315.36ZM277.541 334.304L277.354 336.295L279.668 336.513L279.538 334.192L277.541 334.304ZM262.565 332.896L260.572 333.052L260.702 334.73L262.378 334.887L262.565 332.896ZM261.925 276.576L262.14 274.588L260.077 274.364L259.93 276.435L261.925 276.576ZM271.397 277.6L273.338 277.115L272.999 275.761L271.612 275.612L271.397 277.6ZM273.317 285.92L271.368 286.365L272.609 291.809L275.106 286.814L273.317 285.92ZM288.293 273.072C293.248 273.072 296.809 275.071 299.251 279.141C301.79 283.374 303.189 289.98 303.189 299.232H307.189C307.189 289.711 305.773 282.237 302.68 277.083C299.49 271.766 294.603 269.072 288.293 269.072V273.072ZM303.189 299.232C303.189 309.057 302.639 319.486 301.535 330.521L305.516 330.919C306.631 319.768 307.189 309.205 307.189 299.232H303.189ZM303.713 328.729L288.737 327.321L288.362 331.303L303.338 332.711L303.713 328.729ZM290.54 329.504C291.485 319.711 291.957 309.834 291.957 299.872H287.957C287.957 309.707 287.491 319.457 286.559 329.12L290.54 329.504ZM291.957 299.872C291.957 294.833 291.607 290.865 290.826 288.097C290.437 286.717 289.898 285.473 289.108 284.54C288.268 283.547 287.124 282.896 285.733 282.896V286.896C285.751 286.896 285.839 286.869 286.055 287.124C286.321 287.439 286.662 288.066 286.977 289.183C287.604 291.407 287.957 294.927 287.957 299.872H291.957ZM285.733 282.896C284.533 282.896 283.666 283.634 283.152 284.205C282.592 284.827 282.085 285.653 281.613 286.585C280.661 288.465 279.651 291.186 278.574 294.674L282.397 295.854C283.453 292.43 284.385 289.967 285.182 288.391C285.585 287.595 285.905 287.125 286.123 286.883C286.387 286.59 286.251 286.896 285.733 286.896V282.896ZM278.577 294.667C276.402 301.625 275.048 308.472 274.524 315.205L278.511 315.515C279.011 309.107 280.302 302.556 282.394 295.861L278.577 294.667ZM274.52 315.457C274.691 318.964 275.033 325.286 275.545 334.416L279.538 334.192C279.026 325.061 278.685 318.753 278.515 315.263L274.52 315.457ZM277.729 332.313L262.753 330.905L262.378 334.887L277.354 336.295L277.729 332.313ZM264.559 332.74C263.624 320.745 263.157 310.217 263.157 301.152H259.157C259.157 310.348 259.63 320.983 260.572 333.052L264.559 332.74ZM263.157 301.152C263.157 292.057 263.413 283.913 263.921 276.717L259.93 276.435C259.414 283.745 259.157 291.986 259.157 301.152H263.157ZM261.711 278.564L271.183 279.588L271.612 275.612L262.14 274.588L261.711 278.564ZM269.457 278.085C269.621 278.742 270.255 281.486 271.368 286.365L275.267 285.475C274.161 280.626 273.515 277.824 273.338 277.115L269.457 278.085ZM275.106 286.814C277.533 281.961 279.903 278.464 282.182 276.204C284.454 273.952 286.483 273.072 288.293 273.072V269.072C285.069 269.072 282.085 270.667 279.365 273.364C276.652 276.054 274.051 279.98 271.529 285.026L275.106 286.814Z" fill="white" mask="url(#path-5-outside-1_42_36)"/>
</g>
<path d="M328.903 110.486C332.378 108.103 335.564 105.402 338.403 102.285C340.37 100.125 337.264 96.7671 335.276 98.9493C332.716 101.76 329.877 104.307 326.739 106.458C325.725 107.153 325.173 108.386 325.807 109.554C326.347 110.549 327.876 111.191 328.903 110.486Z" fill="#FFD11C"/>
<path d="M275.186 82.7927C274.207 82.2066 272.573 82.4935 272.059 83.6127C270.293 87.4623 268.217 91.1426 265.836 94.6449C264.178 97.0838 268.137 99.3731 269.783 96.9518C272.164 93.4495 274.24 89.7688 276.006 85.9196C276.524 84.7895 276.318 83.4712 275.186 82.7927Z" fill="#E68E8E"/>
<path d="M177.291 319.342C176.312 318.756 174.677 319.043 174.164 320.162C172.398 324.012 170.322 327.692 167.941 331.194C166.282 333.633 170.241 335.923 171.888 333.502C174.269 329.999 176.345 326.319 178.111 322.469C178.629 321.339 178.423 320.02 177.291 319.342Z" fill="#E68E8E"/>
<path d="M375.441 144.713C371.92 142.975 368.873 140.666 366.252 137.741C364.284 135.546 361.047 138.776 363.004 140.959C365.868 144.155 369.318 146.778 373.166 148.677C375.791 149.973 378.085 146.018 375.441 144.713Z" fill="#AED6CF"/>
<path d="M131.274 360.312C127.752 358.574 124.706 356.265 122.084 353.34C120.116 351.144 116.879 354.375 118.837 356.558C121.701 359.754 125.151 362.377 128.998 364.276C131.624 365.573 133.917 361.617 131.274 360.312Z" fill="#AED6CF"/>
<path d="M48.5177 319.967C44.7492 317.864 40.69 316.36 36.4481 315.559C33.5734 315.016 32.3411 319.421 35.2331 319.967C39.1055 320.698 42.7682 321.993 46.2105 323.914C48.7821 325.349 51.0893 321.402 48.5177 319.967Z" fill="#AED6CF"/>
<path d="M78.3918 158.371C81.9731 155.963 85.1523 153.025 87.7872 149.606C89.5729 147.288 86.2034 144.195 84.4074 146.526C82.0022 149.648 79.189 152.327 75.9174 154.527C73.4736 156.17 75.9476 160.014 78.3918 158.371Z" fill="#FFD11C"/>
<path d="M206.98 109.701C203.211 107.598 199.152 106.094 194.91 105.293C192.036 104.75 190.803 109.155 193.695 109.701C197.568 110.432 201.23 111.727 204.673 113.648C207.244 115.083 209.552 111.136 206.98 109.701Z" fill="#AED6CF"/>
<path d="M6.16211 331.419C4.24259 334.212 2.32271 337.004 0.402832 339.797C-1.26771 342.227 2.69215 344.515 4.3497 342.104C6.26957 339.311 8.18945 336.519 10.1093 333.726C11.7799 331.296 7.82037 329.008 6.16211 331.419Z" fill="#FFD11C"/>
<path d="M84.3342 268.485C83.9819 267.439 83.6301 266.393 83.2778 265.347C82.8972 264.216 81.6867 263.356 80.4663 263.75C79.3419 264.114 78.4618 265.349 78.8699 266.562C79.2221 267.608 79.5743 268.654 79.9262 269.7C80.3069 270.831 81.5174 271.691 82.7377 271.296C83.8625 270.933 84.7426 269.699 84.3342 268.485Z" fill="#E68E8E"/>
<path d="M72.7861 121.09C72.4338 120.044 72.082 118.997 71.7297 117.951C71.3491 116.821 70.1386 115.96 68.9182 116.355C67.7938 116.719 66.9137 117.953 67.3218 119.166C67.674 120.213 68.0262 121.259 68.3781 122.305C68.7588 123.436 69.9693 124.296 71.1896 123.901C72.3144 123.537 73.1945 122.303 72.7861 121.09Z" fill="#E68E8E"/>
<path d="M383.178 311.72C383.705 310.75 384.232 309.78 384.759 308.81C385.329 307.762 385.136 306.289 384.016 305.664C382.985 305.087 381.481 305.282 380.869 306.406C380.342 307.376 379.815 308.346 379.288 309.316C378.718 310.364 378.911 311.836 380.031 312.462C381.063 313.039 382.567 312.844 383.178 311.72Z" fill="#E68E8E"/>
<path d="M417.516 320.31C417.164 319.264 416.812 318.218 416.459 317.171C416.079 316.041 414.868 315.18 413.648 315.575C412.524 315.939 411.643 317.174 412.052 318.386C412.404 319.433 412.756 320.479 413.108 321.525C413.489 322.656 414.699 323.516 415.919 323.121C417.044 322.758 417.924 321.523 417.516 320.31Z" fill="#FFD11C"/>
<path d="M219.439 84.1413C219.087 83.0952 218.735 82.049 218.383 81.0029C218.002 79.8721 216.792 79.0117 215.571 79.4064C214.447 79.7702 213.567 81.0046 213.975 82.2176C214.327 83.2641 214.679 84.3099 215.031 85.356C215.412 86.4868 216.622 87.3472 217.843 86.9521C218.967 86.5887 219.847 85.3543 219.439 84.1413Z" fill="#FFD11C"/>
<path d="M144.399 331.356C144.047 330.31 143.695 329.264 143.343 328.218C142.962 327.087 141.752 326.227 140.531 326.621C139.407 326.985 138.527 328.219 138.935 329.432C139.287 330.479 139.639 331.525 139.991 332.571C140.372 333.702 141.582 334.562 142.803 334.167C143.927 333.804 144.807 332.569 144.399 331.356Z" fill="#FFD11C"/>
<path d="M14.6481 247.235C18.1233 244.852 21.3085 242.151 24.1477 239.034C26.1147 236.874 23.0085 233.516 21.0212 235.698C18.4611 238.509 15.6219 241.056 12.4838 243.208C11.4703 243.903 10.9179 245.135 11.5521 246.304C12.0919 247.298 13.6205 247.939 14.6481 247.235Z" fill="#FFD11C"/>
<path d="M60.0862 194.131C60.7415 193.197 60.573 191.546 59.4935 190.954C55.7812 188.915 52.2596 186.58 48.9378 183.953C46.6246 182.123 44.0561 185.907 46.3528 187.723C49.6746 190.35 53.1962 192.686 56.9084 194.724C57.9981 195.323 59.328 195.212 60.0862 194.131Z" fill="#AED6CF"/>
<path d="M364.073 68.1072C362.841 64.3788 362.348 60.5878 362.592 56.668C362.775 53.7251 358.203 53.6855 358.02 56.6125C357.753 60.8958 358.305 65.1935 359.652 69.2685C360.571 72.0481 364.999 70.9064 364.073 68.1072Z" fill="#AED6CF"/>
<path d="M409.723 404.879C406.202 403.141 403.155 400.832 400.534 397.907C398.566 395.712 395.329 398.942 397.286 401.126C400.15 404.321 403.6 406.944 407.448 408.844C410.073 410.14 412.367 406.184 409.723 404.879Z" fill="#AED6CF"/>
<path d="M271.353 399.96C267.585 397.857 263.525 396.353 259.284 395.552C256.409 395.009 255.177 399.414 258.069 399.96C261.941 400.691 265.604 401.986 269.046 403.907C271.618 405.342 273.925 401.395 271.353 399.96Z" fill="#AED6CF"/>
<path d="M233.806 354.925C237.387 352.517 240.566 349.579 243.201 346.159C244.987 343.842 241.617 340.749 239.821 343.08C237.416 346.202 234.603 348.881 231.331 351.08C228.888 352.723 231.362 356.568 233.806 354.925Z" fill="#FFD11C"/>
<path d="M319.972 412.741C318.052 415.533 316.132 418.326 314.212 421.118C312.542 423.549 316.501 425.837 318.159 423.426C320.079 420.633 321.999 417.841 323.919 415.048C325.589 412.618 321.63 410.329 319.972 412.741Z" fill="#FFD11C"/>
<path d="M342.476 417.063C342.124 416.017 341.772 414.971 341.42 413.925C341.039 412.794 339.829 411.933 338.608 412.329C337.484 412.692 336.604 413.927 337.012 415.14C337.364 416.186 337.716 417.232 338.068 418.278C338.449 419.409 339.659 420.269 340.88 419.875C342.004 419.51 342.884 418.276 342.476 417.063Z" fill="#E68E8E"/>
<path d="M368.759 220.51C368.407 219.463 368.055 218.417 367.702 217.371C367.322 216.24 366.111 215.38 364.891 215.775C363.766 216.139 362.886 217.373 363.295 218.586C363.647 219.632 363.999 220.679 364.351 221.725C364.732 222.855 365.942 223.716 367.163 223.321C368.287 222.957 369.167 221.723 368.759 220.51Z" fill="#E68E8E"/>
<path d="M417.516 107.758C417.164 106.712 416.812 105.666 416.459 104.619C416.079 103.489 414.868 102.628 413.648 103.023C412.524 103.387 411.643 104.622 412.052 105.835C412.404 106.881 412.756 107.927 413.108 108.973C413.489 110.104 414.699 110.964 415.919 110.569C417.044 110.206 417.924 108.971 417.516 107.758Z" fill="#E68E8E"/>
<path d="M128.127 435.64C131.602 433.257 134.787 430.556 137.627 427.439C139.594 425.279 136.487 421.921 134.5 424.103C131.94 426.914 129.101 429.461 125.963 431.612C124.949 432.307 124.397 433.539 125.031 434.708C125.571 435.703 127.1 436.344 128.127 435.64Z" fill="#FFD11C"/>
<path d="M70.6066 380.466C71.0386 379.41 70.5087 377.837 69.3249 377.498C65.2533 376.333 61.3019 374.835 57.4807 373.009C54.8199 371.737 53.1529 375.995 55.7947 377.258C59.6159 379.085 63.5673 380.582 67.6389 381.748C68.8343 382.09 70.1066 381.688 70.6066 380.466Z" fill="#E68E8E"/>
<path d="M61.3674 428.216C57.5989 426.113 53.5397 424.609 49.2982 423.808C46.4231 423.265 45.1912 427.67 48.0827 428.216C51.9551 428.947 55.6179 430.242 59.0601 432.163C61.6318 433.598 63.939 429.651 61.3674 428.216Z" fill="#AED6CF"/>
<path d="M16.593 407.011C16.2407 405.965 15.8889 404.918 15.5366 403.872C15.156 402.741 13.9455 401.881 12.7251 402.276C11.601 402.64 10.7206 403.874 11.129 405.087C11.4813 406.134 11.8335 407.18 12.1854 408.226C12.566 409.357 13.7765 410.217 14.9969 409.822C16.121 409.458 17.0014 408.224 16.593 407.011Z" fill="#FFD11C"/>
<path d="M161.227 390.977C159.995 387.248 159.502 383.458 159.746 379.538C159.929 376.595 155.357 376.555 155.174 379.482C154.907 383.765 155.459 388.063 156.806 392.138C157.725 394.918 162.153 393.776 161.227 390.977Z" fill="#AED6CF"/>
<path d="M214.67 430.628C214.317 429.582 213.966 428.536 213.613 427.49C213.233 426.359 212.022 425.498 210.802 425.893C209.677 426.257 208.797 427.491 209.205 428.705C209.558 429.751 209.91 430.797 210.262 431.843C210.642 432.974 211.853 433.834 213.073 433.44C214.198 433.075 215.078 431.841 214.67 430.628Z" fill="#E68E8E"/>
<path d="M297.146 346.212C296.794 345.166 296.442 344.12 296.09 343.073C295.709 341.943 294.499 341.082 293.278 341.477C292.154 341.841 291.274 343.075 291.682 344.288C292.034 345.335 292.387 346.381 292.739 347.427C293.119 348.558 294.33 349.418 295.55 349.023C296.674 348.66 297.554 347.425 297.146 346.212Z" fill="#AED6CF"/>
<path d="M138.414 77.7038C134.645 75.601 130.586 74.0965 126.344 73.2958C123.47 72.7529 122.237 77.1577 125.129 77.7035C129.002 78.4346 132.664 79.7297 136.107 81.6507C138.678 83.0856 140.986 79.1391 138.414 77.7038Z" fill="#AED6CF"/>
<path d="M100.866 32.6682C104.447 30.2602 107.626 27.3223 110.261 23.9029C112.047 21.5855 108.677 18.4923 106.881 20.8234C104.476 23.9454 101.663 26.6245 98.3912 28.8239C95.9474 30.4671 98.4218 34.3114 100.866 32.6682Z" fill="#FFD11C"/>
<path d="M164.206 23.9564C163.854 22.9102 163.502 21.8641 163.15 20.8179C162.769 19.6872 161.559 18.8268 160.339 19.2218C159.214 19.5857 158.334 20.82 158.742 22.0334C159.094 23.0795 159.447 24.1257 159.799 25.1718C160.179 26.3026 161.39 27.163 162.61 26.7683C163.734 26.4037 164.615 25.1694 164.206 23.9564Z" fill="#AED6CF"/>
<path d="M401.898 195.369C401.546 194.323 401.194 193.277 400.842 192.23C400.461 191.1 399.251 190.239 398.03 190.634C396.906 190.998 396.026 192.232 396.434 193.445C396.786 194.492 397.138 195.538 397.49 196.584C397.871 197.715 399.081 198.575 400.302 198.18C401.427 197.817 402.307 196.582 401.898 195.369Z" fill="#AED6CF"/>
<path d="M405.327 356.878C404.975 355.832 404.623 354.785 404.271 353.739C403.89 352.609 402.679 351.748 401.459 352.143C400.334 352.507 399.454 353.741 399.863 354.954C400.215 356.001 400.567 357.047 400.919 358.093C401.3 359.224 402.51 360.084 403.73 359.689C404.855 359.325 405.735 358.091 405.327 356.878Z" fill="#FFD11C"/>
<path d="M17.9265 55.4006C17.5742 54.3545 17.2224 53.3083 16.8701 52.2622C16.4895 51.1314 15.279 50.271 14.0586 50.6657C12.9345 51.0295 12.0541 52.2639 12.4625 53.4772C12.8148 54.5234 13.167 55.5695 13.5189 56.6157C13.8995 57.7465 15.11 58.6069 16.3304 58.2121C17.4548 57.8483 18.3349 56.6139 17.9265 55.4006Z" fill="#FFD11C"/>
<path d="M427.828 271.529C424.306 269.791 421.26 267.482 418.638 264.557C416.67 262.362 413.433 265.591 415.391 267.775C418.255 270.971 421.704 273.594 425.553 275.493C428.177 276.79 430.471 272.834 427.828 271.529Z" fill="#AED6CF"/>
<path d="M312.673 12.668C308.905 10.5652 304.845 9.06112 300.604 8.26009C297.728 7.71717 296.496 12.122 299.388 12.668C303.261 13.3992 306.924 14.6943 310.366 16.6153C312.938 18.0498 315.245 14.1033 312.673 12.668Z" fill="#AED6CF"/>
<path d="M329.074 282.092C332.656 279.684 335.835 276.746 338.47 273.326C340.256 271.009 336.886 267.916 335.09 270.247C332.685 273.369 329.872 276.048 326.6 278.247C324.156 279.891 326.63 283.735 329.074 282.092Z" fill="#FFD11C"/>
<path d="M361.29 25.449C359.37 28.2416 357.45 31.0341 355.53 33.8267C353.859 36.2568 357.819 38.5451 359.477 36.1339C361.397 33.3413 363.317 30.5488 365.237 27.7562C366.907 25.3261 362.948 23.0375 361.29 25.449Z" fill="#FFD11C"/>
<path d="M383.793 29.7712C383.441 28.725 383.089 27.6789 382.737 26.6327C382.356 25.5019 381.146 24.6415 379.926 25.0366C378.801 25.4004 377.921 26.6348 378.329 27.8481C378.681 28.8943 379.034 29.9404 379.385 30.9866C379.766 32.1174 380.977 32.9777 382.197 32.5827C383.321 32.2185 384.202 30.9841 383.793 29.7712Z" fill="#E68E8E"/>
<path d="M36.5795 13.6683C35.3472 9.93987 34.8538 6.14893 35.0982 2.2291C35.2815 -0.713752 30.7089 -0.753435 30.5263 2.17362C30.2594 6.45656 30.8114 10.7546 32.1582 14.8293C33.0772 17.6092 37.5048 16.4675 36.5795 13.6683Z" fill="#AED6CF"/>
<path d="M310.235 184.427C309.883 183.381 309.531 182.335 309.179 181.289C308.798 180.158 307.588 179.297 306.367 179.692C305.243 180.056 304.363 181.29 304.771 182.503C305.123 183.55 305.475 184.596 305.827 185.642C306.208 186.773 307.419 187.633 308.639 187.238C309.763 186.874 310.644 185.64 310.235 184.427Z" fill="#FFD11C"/>
<defs>
<filter id="filter0_d_42_36" x="127.472" y="101.608" width="184.717" height="234.696" filterUnits="userSpaceOnUse" color-interpolation-filters="sRGB">
<feFlood flood-opacity="0" result="BackgroundImageFix"/>
<feColorMatrix in="SourceAlpha" type="matrix" values="0 0 0 0 0 0 0 0 0 0 0 0 0 0 0 0 0 0 127 0" result="hardAlpha"/>
<feOffset dx="7" dy="2"/>
<feComposite in2="hardAlpha" operator="out"/>
<feColorMatrix type="matrix" values="0 0 0 0 0.870588 0 0 0 0 0.619608 0 0 0 0 0.27451 0 0 0 1 0"/>
<feBlend mode="normal" in2="BackgroundImageFix" result="effect1_dropShadow_42_36"/>
<feBlend mode="normal" in="SourceGraphic" in2="effect1_dropShadow_42_36" result="shape"/>
</filter>
</defs>
</svg>
