<svg width="42" height="44" viewBox="0 0 42 44" fill="none" xmlns="http://www.w3.org/2000/svg">
<rect width="42" height="44" rx="6" transform="matrix(-1 0 0 1 42 0)" fill="#CD4F41"/>
<path d="M29.3333 34C30.0667 34 30.6944 33.7389 31.2167 33.2167C31.7389 32.6944 32 32.0667 32 31.3333V12.6667C32 11.9333 31.7389 11.3056 31.2167 10.7833C30.6944 10.2611 30.0667 10 29.3333 10H20V12.6667H29.3333V31.3333H20V34H29.3333ZM14.6667 28.6667L16.5 26.7333L13.1 23.3333H24V20.6667H13.1L16.5 17.2667L14.6667 15.3333L8 22L14.6667 28.6667Z" fill="white"/>
</svg>
