<svg width="35" height="37" viewBox="0 0 35 37" fill="none" xmlns="http://www.w3.org/2000/svg">
<path d="M34.736 18.464C34.736 21.3653 34.3307 23.9467 33.52 26.208C32.752 28.4693 31.6213 30.3893 30.128 31.968C28.6773 33.504 26.9067 34.6773 24.816 35.488C22.7253 36.256 20.3573 36.64 17.712 36.64C15.28 36.64 13.0187 36.256 10.928 35.488C8.88 34.6773 7.10933 33.504 5.616 31.968C4.12267 30.3893 2.94933 28.4693 2.096 26.208C1.28533 23.9467 0.88 21.3653 0.88 18.464C0.88 14.5813 1.56267 11.3173 2.928 8.672C4.29333 5.984 6.256 3.936 8.816 2.528C11.376 1.12 14.4053 0.415997 17.904 0.415997C21.1893 0.415997 24.0907 1.12 26.608 2.528C29.1253 3.936 31.1093 5.984 32.56 8.672C34.0107 11.3173 34.736 14.5813 34.736 18.464ZM10.608 18.464C10.608 20.768 10.8427 22.7093 11.312 24.288C11.824 25.824 12.6133 26.9973 13.68 27.808C14.7467 28.576 16.1333 28.96 17.84 28.96C19.5467 28.96 20.912 28.576 21.936 27.808C23.0027 26.9973 23.7707 25.824 24.24 24.288C24.752 22.7093 25.008 20.768 25.008 18.464C25.008 16.16 24.752 14.24 24.24 12.704C23.7707 11.168 23.0027 10.016 21.936 9.248C20.8693 8.48 19.4827 8.096 17.776 8.096C15.2587 8.096 13.424 8.97067 12.272 10.72C11.1627 12.4267 10.608 15.008 10.608 18.464Z" fill="#DE9E46"/>
</svg>
