<svg width="48" height="48" viewBox="0 0 48 48" fill="none" xmlns="http://www.w3.org/2000/svg">
<rect x="0.5" y="0.5" width="47" height="46.1067" rx="5.5" stroke="#2D8078"/>
<path d="M34.4 37.2921L30.3667 33.3714C29.8111 33.717 29.2223 34.014 28.6 34.2625C27.9778 34.5109 27.3334 34.7107 26.6667 34.8619V32.2049C26.9778 32.0969 27.2834 31.9889 27.5834 31.8809C27.8834 31.7729 28.1667 31.6432 28.4334 31.492L24 27.1825V33.9222L17.3334 27.4417H12V19.665H16.2667L9.8667 13.4437L11.7334 11.6291L36.2667 35.4776L34.4 37.2921ZM34.1334 29.7747L32.2 27.8953C32.5778 27.2257 32.8611 26.5236 33.05 25.7891C33.2389 25.0547 33.3334 24.2986 33.3334 23.5209C33.3334 21.4904 32.7223 19.6758 31.5 18.0773C30.2778 16.4787 28.6667 15.3986 26.6667 14.837V12.18C29.4223 12.7848 31.6667 14.1403 33.4 16.2465C35.1334 18.3527 36 20.7775 36 23.5209C36 24.6658 35.8389 25.7675 35.5167 26.826C35.1945 27.8845 34.7334 28.8674 34.1334 29.7747ZM29.6667 25.4327L26.6667 22.5165V18.3041C27.7111 18.7793 28.5278 19.4922 29.1167 20.4427C29.7056 21.3932 30 22.43 30 23.5533C30 23.8774 29.9723 24.196 29.9167 24.5092C29.8611 24.8225 29.7778 25.1303 29.6667 25.4327ZM24 19.9242L20.5334 16.5543L24 13.1845V19.9242ZM21.3334 27.6361V24.5902L18.9334 22.2572H14.6667V24.8495H18.4667L21.3334 27.6361Z" fill="white"/>
</svg>
