<svg width="48" height="48" viewBox="0 0 48 48" fill="none" xmlns="http://www.w3.org/2000/svg">
<rect x="0.5" y="0.5" width="47" height="46.33" rx="5.5" stroke="#2D8078"/>
<path d="M31.7999 33.9691L28.7749 31.0285C28.3582 31.2878 27.9166 31.5105 27.4499 31.6968C26.9832 31.8832 26.4999 32.033 25.9999 32.1464V30.1537C26.2332 30.0726 26.4624 29.9916 26.6874 29.9106C26.9124 29.8296 27.1249 29.7324 27.3249 29.619L23.9999 26.3868V31.4417L18.9999 26.5813H14.9999V20.7487H18.1999L13.3999 16.0827L14.7999 14.7218L33.1999 32.6082L31.7999 33.9691ZM31.5999 28.331L30.1499 26.9215C30.4332 26.4192 30.6457 25.8927 30.7874 25.3418C30.9291 24.791 30.9999 24.2239 30.9999 23.6407C30.9999 22.1178 30.5416 20.7569 29.6249 19.5579C28.7082 18.359 27.4999 17.549 25.9999 17.1277V15.135C28.0666 15.5886 29.7499 16.6052 31.0499 18.1849C32.3499 19.7645 32.9999 21.5831 32.9999 23.6407C32.9999 24.4994 32.8791 25.3256 32.6374 26.1195C32.3957 26.9134 32.0499 27.6505 31.5999 28.331ZM28.2499 25.0745L25.9999 22.8873V19.7281C26.7832 20.0845 27.3957 20.6191 27.8374 21.332C28.2791 22.0449 28.4999 22.8225 28.4999 23.665C28.4999 23.908 28.4791 24.147 28.4374 24.3819C28.3957 24.6168 28.3332 24.8477 28.2499 25.0745ZM23.9999 20.9432L21.3999 18.4157L23.9999 15.8883V20.9432ZM21.9999 26.7271V24.4427L20.1999 22.6929H16.9999V24.6371H19.8499L21.9999 26.7271Z" fill="white"/>
</svg>
