<svg width="48" height="48" viewBox="0 0 48 48" fill="none" xmlns="http://www.w3.org/2000/svg">
<rect x="0.5" y="0.5" width="47" height="46.3333" rx="5.5" stroke="#2D8078"/>
<path d="M26.6667 35.3333V32.6C28.6667 32.0222 30.2778 30.9111 31.5 29.2667C32.7222 27.6222 33.3333 25.7556 33.3333 23.6667C33.3333 21.5778 32.7222 19.7111 31.5 18.0667C30.2778 16.4222 28.6667 15.3111 26.6667 14.7333V12C29.4222 12.6222 31.6667 14.0167 33.4 16.1833C35.1333 18.35 36 20.8444 36 23.6667C36 26.4889 35.1333 28.9833 33.4 31.15C31.6667 33.3167 29.4222 34.7111 26.6667 35.3333ZM12 27.7V19.7H17.3333L24 13.0333V34.3667L17.3333 27.7H12ZM26.6667 29.0333V18.3C27.7111 18.7889 28.5278 19.5222 29.1167 20.5C29.7056 21.4778 30 22.5444 30 23.7C30 24.8333 29.7056 25.8833 29.1167 26.85C28.5278 27.8167 27.7111 28.5444 26.6667 29.0333ZM21.3333 19.5L18.4667 22.3667H14.6667V25.0333H18.4667L21.3333 27.9V19.5Z" fill="white"/>
</svg>
